<?xml version="1.0" encoding="UTF-8"?>
<svg xmlns="http://www.w3.org/2000/svg"
  xmlns:xlink="http://www.w3.org/1999/xlink" width="73px" height="50px" viewBox="0 0 73 50" version="1.1">
  <g id="surface1">
    <path style=" stroke:none;fill-rule:nonzero;fill:rgb(0%,0%,0%);fill-opacity:1;" d="M 71.730469 40.269531 L 68.605469 40.269531 C 68.507812 39.738281 68.363281 39.367188 68.144531 39.164062 C 67.800781 38.8125 67.238281 38.648438 66.453125 38.648438 C 65.664062 38.648438 65.140625 38.773438 64.839844 39.039062 C 64.617188 39.246094 64.496094 39.511719 64.496094 39.859375 C 64.496094 40.351562 65.164062 40.722656 66.453125 41.03125 C 67.941406 41.359375 69.007812 41.644531 69.675781 41.871094 C 69.855469 41.933594 69.996094 41.992188 70.097656 42.054688 C 71.425781 42.691406 72.070312 43.65625 72.070312 44.945312 C 72.070312 46.527344 71.425781 47.675781 70.136719 48.414062 C 69.976562 48.496094 69.816406 48.578125 69.652344 48.660156 C 68.828125 49.027344 67.863281 49.214844 66.773438 49.214844 C 65.140625 49.214844 63.832031 48.925781 62.824219 48.332031 C 62.203125 47.960938 61.71875 47.492188 61.414062 46.917969 C 61.09375 46.34375 60.953125 45.683594 60.953125 44.925781 L 64.234375 44.925781 C 64.234375 45.5 64.4375 45.953125 64.839844 46.261719 C 65.242188 46.589844 65.929688 46.753906 66.875 46.753906 C 67.601562 46.753906 68.144531 46.589844 68.484375 46.300781 C 68.769531 46.054688 68.890625 45.789062 68.890625 45.480469 C 68.890625 44.96875 68.246094 44.558594 66.957031 44.269531 C 65.042969 43.859375 63.832031 43.511719 63.328125 43.265625 C 62.019531 42.648438 61.375 41.664062 61.375 40.332031 C 61.375 39.265625 61.71875 38.34375 62.402344 37.605469 C 63.269531 36.660156 64.558594 36.210938 66.269531 36.210938 C 67.679688 36.210938 68.808594 36.414062 69.675781 36.824219 C 69.753906 36.867188 69.816406 36.886719 69.875 36.925781 C 70.480469 37.277344 70.941406 37.726562 71.265625 38.28125 C 71.566406 38.835938 71.730469 39.492188 71.730469 40.269531 Z M 71.730469 40.269531 "/>
    <path style=" stroke:none;fill-rule:nonzero;fill:rgb(0%,0%,0%);fill-opacity:1;" d="M 70.058594 32.496094 C 70.058594 32.4375 70.039062 32.375 70.015625 32.332031 C 69.976562 32.273438 69.9375 32.25 69.875 32.230469 C 69.835938 32.210938 69.777344 32.210938 69.675781 32.191406 L 69.171875 32.191406 L 69.171875 32.804688 L 69.574219 32.804688 C 69.613281 32.804688 69.65625 32.804688 69.675781 32.804688 C 69.816406 32.785156 69.917969 32.765625 69.957031 32.722656 C 70.015625 32.660156 70.058594 32.578125 70.058594 32.496094 Z M 70.320312 32.167969 C 70.378906 32.25 70.421875 32.355469 70.421875 32.457031 C 70.421875 32.601562 70.359375 32.742188 70.257812 32.847656 C 70.160156 32.949219 70.015625 33.03125 69.835938 33.03125 C 69.917969 33.070312 69.957031 33.09375 70.015625 33.132812 L 70.320312 33.542969 L 70.5625 33.953125 L 70.179688 33.953125 L 69.996094 33.625 C 69.875 33.421875 69.777344 33.257812 69.695312 33.195312 C 69.675781 33.175781 69.675781 33.175781 69.65625 33.152344 L 69.394531 33.070312 L 69.191406 33.070312 L 69.191406 33.953125 L 68.871094 33.953125 L 68.871094 31.882812 L 69.574219 31.882812 C 69.613281 31.882812 69.65625 31.902344 69.695312 31.902344 C 69.875 31.902344 69.996094 31.921875 70.078125 31.964844 C 70.160156 32.003906 70.238281 32.066406 70.320312 32.167969 Z M 70.320312 32.167969 "/>
    <path style=" stroke:none;fill-rule:nonzero;fill:rgb(0%,0%,0%);fill-opacity:1;" d="M 71.226562 32.925781 C 71.226562 32.640625 71.164062 32.375 71.023438 32.128906 C 70.882812 31.882812 70.679688 31.675781 70.4375 31.53125 C 70.199219 31.410156 69.9375 31.328125 69.675781 31.328125 C 69.652344 31.328125 69.652344 31.328125 69.652344 31.328125 C 69.390625 31.328125 69.128906 31.410156 68.886719 31.53125 C 68.648438 31.675781 68.445312 31.882812 68.304688 32.128906 C 68.164062 32.375 68.082031 32.640625 68.082031 32.925781 C 68.082031 33.195312 68.164062 33.460938 68.304688 33.726562 C 68.425781 33.972656 68.625 34.15625 68.867188 34.300781 C 69.109375 34.445312 69.371094 34.507812 69.652344 34.507812 C 69.652344 34.507812 69.652344 34.507812 69.675781 34.507812 C 69.9375 34.507812 70.199219 34.445312 70.460938 34.300781 C 70.703125 34.15625 70.902344 33.953125 71.023438 33.726562 C 71.164062 33.460938 71.226562 33.195312 71.226562 32.925781 Z M 71.546875 32.925781 C 71.546875 33.253906 71.464844 33.5625 71.304688 33.871094 C 71.144531 34.179688 70.921875 34.402344 70.621094 34.566406 C 70.320312 34.753906 70.015625 34.8125 69.695312 34.8125 C 69.675781 34.8125 69.675781 34.8125 69.675781 34.8125 C 69.351562 34.8125 69.050781 34.730469 68.746094 34.566406 C 68.445312 34.402344 68.222656 34.179688 68.0625 33.871094 C 67.882812 33.5625 67.820312 33.253906 67.820312 32.925781 C 67.820312 32.578125 67.902344 32.269531 68.0625 31.964844 C 68.242188 31.65625 68.464844 31.429688 68.769531 31.265625 C 69.070312 31.101562 69.371094 31.019531 69.675781 31.019531 C 69.675781 31.019531 69.675781 31.019531 69.695312 31.019531 C 70.015625 31.019531 70.320312 31.101562 70.621094 31.265625 C 70.921875 31.429688 71.164062 31.65625 71.324219 31.964844 C 71.464844 32.25 71.546875 32.578125 71.546875 32.925781 Z M 71.546875 32.925781 "/>
    <path style=" stroke:none;fill-rule:nonzero;fill:rgb(0%,0%,0%);fill-opacity:1;" d="M 53.199219 17.398438 L 62.058594 32.414062 L 47.839844 32.414062 L 39.378906 18.078125 L 32.976562 7.226562 L 39.378906 3.289062 L 43.410156 0.828125 Z M 53.199219 17.398438 "/>
    <path style=" stroke:none;fill-rule:nonzero;fill:rgb(0%,0%,0%);fill-opacity:1;" d="M 59.621094 42.855469 L 59.621094 49.007812 L 56.679688 49.007812 L 56.679688 48.332031 C 55.695312 48.988281 54.507812 49.378906 53.238281 49.378906 C 53.21875 49.378906 53.21875 49.378906 53.195312 49.378906 C 49.691406 49.355469 46.832031 46.445312 46.832031 42.855469 C 46.832031 39.285156 49.691406 36.351562 53.195312 36.332031 C 53.21875 36.332031 53.21875 36.332031 53.238281 36.332031 C 54.507812 36.332031 55.695312 36.722656 56.679688 37.378906 L 56.679688 36.660156 L 59.621094 36.660156 Z M 56.679688 43.53125 L 56.679688 42.179688 C 56.359375 40.535156 54.929688 39.285156 53.238281 39.285156 C 53.21875 39.285156 53.21875 39.285156 53.195312 39.285156 C 51.261719 39.304688 49.710938 40.90625 49.710938 42.855469 C 49.710938 44.824219 51.285156 46.425781 53.195312 46.445312 C 53.21875 46.445312 53.21875 46.445312 53.238281 46.445312 C 54.929688 46.445312 56.359375 45.171875 56.679688 43.53125 Z M 56.679688 43.53125 "/>
    <path style=" stroke:none;fill-rule:nonzero;fill:rgb(0%,0%,0%);fill-opacity:1;" d="M 45.804688 42.855469 L 45.804688 49.007812 L 42.863281 49.007812 L 42.863281 48.332031 C 41.859375 48.988281 40.691406 49.378906 39.421875 49.378906 C 39.402344 49.378906 39.402344 49.378906 39.378906 49.378906 C 35.875 49.355469 33.015625 46.445312 33.015625 42.855469 C 33.015625 39.285156 35.875 36.351562 39.378906 36.332031 C 39.402344 36.332031 39.402344 36.332031 39.421875 36.332031 C 40.691406 36.332031 41.878906 36.722656 42.863281 37.378906 L 42.863281 32.414062 L 45.804688 32.414062 Z M 42.863281 43.53125 L 42.863281 42.179688 C 42.542969 40.535156 41.113281 39.285156 39.421875 39.285156 C 39.402344 39.285156 39.402344 39.285156 39.378906 39.285156 C 37.445312 39.304688 35.894531 40.90625 35.894531 42.855469 C 35.894531 44.824219 37.46875 46.421875 39.378906 46.445312 C 39.402344 46.445312 39.402344 46.445312 39.421875 46.445312 C 41.113281 46.445312 42.542969 45.171875 42.863281 43.53125 Z M 42.863281 43.53125 "/>
    <path style=" stroke:none;fill-rule:nonzero;fill:rgb(0%,0%,0%);fill-opacity:1;" d="M 39.378906 26.507812 L 42.84375 32.414062 L 28.644531 32.414062 L 20.746094 19.0625 L 20.40625 18.464844 L 20.746094 18.261719 L 30.859375 12.066406 Z M 39.378906 26.507812 "/>
    <path style=" stroke:none;fill-rule:nonzero;fill:rgb(0%,0%,0%);fill-opacity:1;" d="M 31.847656 36.332031 L 28.644531 36.332031 L 28.644531 49.007812 L 31.847656 49.007812 Z M 31.847656 36.332031 "/>
    <path style=" stroke:none;fill-rule:nonzero;fill:rgb(0%,0%,0%);fill-opacity:1;" d="M 31.847656 32.496094 L 28.644531 32.496094 L 28.644531 35.367188 L 31.847656 35.367188 Z M 31.847656 32.496094 "/>
    <path style=" stroke:none;fill-rule:nonzero;fill:rgb(0%,0%,0%);fill-opacity:1;" d="M 27.171875 42.855469 L 27.171875 49.007812 L 24.234375 49.007812 L 24.234375 48.332031 C 23.226562 48.988281 22.039062 49.378906 20.769531 49.378906 C 20.75 49.378906 20.75 49.378906 20.726562 49.378906 C 17.222656 49.355469 14.363281 46.445312 14.363281 42.855469 C 14.363281 39.285156 17.222656 36.351562 20.726562 36.332031 C 20.75 36.332031 20.75 36.332031 20.769531 36.332031 C 22.039062 36.332031 23.226562 36.722656 24.234375 37.378906 L 24.234375 32.414062 L 27.171875 32.414062 Z M 24.234375 43.53125 L 24.234375 42.179688 C 23.910156 40.535156 22.480469 39.285156 20.769531 39.285156 C 20.75 39.285156 20.75 39.285156 20.726562 39.285156 C 18.792969 39.304688 17.242188 40.90625 17.242188 42.855469 C 17.242188 44.824219 18.816406 46.421875 20.726562 46.445312 C 20.75 46.445312 20.75 46.445312 20.769531 46.445312 C 22.5 46.445312 23.929688 45.171875 24.234375 43.53125 Z M 24.234375 43.53125 "/>
    <path style=" stroke:none;fill-rule:nonzero;fill:rgb(0%,0%,0%);fill-opacity:1;" d="M 20.75 27.492188 L 23.648438 32.414062 L 9.429688 32.414062 L 7.835938 29.707031 L 18.292969 23.328125 Z M 20.75 27.492188 "/>
    <path style=" stroke:none;fill-rule:nonzero;fill:rgb(0%,0%,0%);fill-opacity:1;" d="M 13.214844 42.855469 L 13.214844 49.007812 L 10.273438 49.007812 L 10.273438 48.332031 C 9.269531 48.988281 8.078125 49.378906 6.808594 49.378906 C 6.789062 49.378906 6.789062 49.378906 6.769531 49.378906 C 3.285156 49.355469 0.425781 46.425781 0.425781 42.855469 C 0.425781 39.285156 3.285156 36.351562 6.789062 36.332031 C 6.808594 36.332031 6.808594 36.332031 6.832031 36.332031 C 8.097656 36.332031 9.289062 36.722656 10.296875 37.378906 L 10.296875 36.660156 L 13.234375 36.660156 L 13.234375 42.855469 Z M 10.273438 43.53125 L 10.273438 42.179688 C 9.953125 40.535156 8.523438 39.285156 6.808594 39.285156 C 6.789062 39.285156 6.789062 39.285156 6.769531 39.285156 C 4.855469 39.304688 3.285156 40.90625 3.285156 42.855469 C 3.285156 44.824219 4.855469 46.425781 6.769531 46.445312 C 6.789062 46.445312 6.789062 46.445312 6.808594 46.445312 C 8.542969 46.445312 9.972656 45.171875 10.273438 43.53125 Z M 10.273438 43.53125 "/>
  </g>
</svg>
