<svg width="73" height="50" viewBox="0 0 73 50" fill="none" xmlns="http://www.w3.org/2000/svg">
<path d="M71.7288 40.2704H69.6743H68.6068C68.5061 39.7371 68.3651 39.3678 68.1435 39.1627C67.8011 38.814 67.2371 38.6499 66.4516 38.6499C65.666 38.6499 65.1423 38.773 64.8402 39.0396C64.6186 39.2448 64.4978 39.5114 64.4978 39.8601C64.4978 40.3524 65.1625 40.7216 66.4516 41.0293C67.9421 41.3575 69.0096 41.6447 69.6743 41.8703C69.8556 41.9318 69.9966 41.9934 70.0973 42.0549C71.4267 42.6908 72.0712 43.6549 72.0712 44.9471C72.0712 46.5265 71.4267 47.6752 70.1376 48.4136C69.9765 48.4957 69.8153 48.5777 69.6542 48.6598C68.8284 49.029 67.8615 49.2136 66.7738 49.2136C65.1423 49.2136 63.8331 48.9265 62.826 48.3316C62.2016 47.9624 61.7182 47.4906 61.416 46.9163C61.0938 46.3419 60.9528 45.6855 60.9528 44.9266H64.2359C64.2359 45.5009 64.4374 45.9522 64.8402 46.2599C65.243 46.5881 65.9279 46.7522 66.8746 46.7522C67.5997 46.7522 68.1435 46.5881 68.4859 46.3009C68.7679 46.0548 68.8888 45.7881 68.8888 45.4804C68.8888 44.9676 68.2442 44.5574 66.9551 44.2702C65.0416 43.86 63.8331 43.5113 63.3295 43.2651C62.0203 42.6498 61.3757 41.6652 61.3757 40.3319C61.3757 39.2653 61.7182 38.3422 62.403 37.6038C63.2691 36.6602 64.5582 36.209 66.2703 36.209C67.6802 36.209 68.8082 36.4141 69.6743 36.8243C69.7549 36.8654 69.8153 36.8859 69.8757 36.9269C70.48 37.2756 70.9433 37.7269 71.2656 38.2807C71.5677 38.8345 71.7288 39.4909 71.7288 40.2704Z" fill="white"/>
<path d="M70.0577 32.4972C70.0577 32.4357 70.0375 32.3741 70.0174 32.3331C69.9771 32.2716 69.9368 32.2511 69.8764 32.2305C69.8361 32.21 69.7757 32.21 69.6749 32.1895H69.5541H69.1714V32.8049H69.5742C69.6145 32.8049 69.6548 32.8049 69.6749 32.8049C69.8159 32.7844 69.9167 32.7639 69.9569 32.7228C70.0174 32.6613 70.0577 32.5792 70.0577 32.4972ZM70.3195 32.169C70.3799 32.2511 70.4202 32.3536 70.4202 32.4562C70.4202 32.5998 70.3598 32.7433 70.2591 32.8459C70.1584 32.9485 70.0174 33.0305 69.8361 33.0305C69.9167 33.0715 69.9569 33.092 70.0174 33.1331L70.3195 33.5433L70.5612 33.9536H70.1785L69.9972 33.6254C69.8764 33.4202 69.7757 33.2561 69.6951 33.1946C69.675 33.1741 69.675 33.1741 69.6548 33.1536L69.393 33.0715H69.1915V33.9536H68.8693V31.8818H69.5742C69.6145 31.8818 69.6548 31.9023 69.6951 31.9023C69.8764 31.9023 69.9972 31.9229 70.0778 31.9639C70.1584 32.0049 70.2389 32.0664 70.3195 32.169Z" fill="white"/>
<path d="M71.2249 32.9272C71.2249 32.64 71.1645 32.3733 71.0235 32.1272C70.8825 31.881 70.6811 31.6759 70.4394 31.5323C70.1977 31.4093 69.9358 31.3272 69.674 31.3272C69.6539 31.3272 69.6539 31.3272 69.6539 31.3272C69.392 31.3272 69.1302 31.4093 68.8885 31.5323C68.6467 31.6759 68.4453 31.881 68.3043 32.1272C68.1633 32.3733 68.0828 32.64 68.0828 32.9272C68.0828 33.1938 68.1633 33.4605 68.3043 33.7271C68.4252 33.9733 68.6266 34.1579 68.8683 34.3015C69.11 34.445 69.3719 34.5066 69.6539 34.5066C69.6539 34.5066 69.6539 34.5066 69.674 34.5066C69.9358 34.5066 70.1977 34.445 70.4595 34.3015C70.7013 34.1579 70.9027 33.9528 71.0235 33.7271C71.1645 33.4605 71.2249 33.1938 71.2249 32.9272ZM71.5472 32.9272C71.5472 33.2553 71.4667 33.563 71.3055 33.8707C71.1444 34.1784 70.9228 34.404 70.6207 34.5681C70.3186 34.7527 70.0164 34.8143 69.6941 34.8143C69.674 34.8143 69.674 34.8143 69.674 34.8143C69.3517 34.8143 69.0496 34.7322 68.7475 34.5681C68.4453 34.404 68.2238 34.1784 68.0626 33.8707C67.8813 33.563 67.8209 33.2553 67.8209 32.9272C67.8209 32.5784 67.9015 32.2708 68.0626 31.9631C68.2439 31.6554 68.4655 31.4298 68.7676 31.2657C69.0697 31.1016 69.3719 31.0195 69.674 31.0195C69.674 31.0195 69.674 31.0195 69.6941 31.0195C70.0164 31.0195 70.3186 31.1016 70.6207 31.2657C70.9228 31.4298 71.1645 31.6554 71.3257 31.9631C71.4667 32.2503 71.5472 32.5784 71.5472 32.9272Z" fill="white"/>
<path d="M53.198 17.3999L62.0605 32.4147H53.198H47.8401L39.3804 18.0768L32.9752 7.22593L39.3804 3.28762L43.4089 0.826172L53.198 17.3999Z" fill="white"/>
<path d="M59.6223 42.8549V49.0085H56.6816V48.3316C55.6946 48.988 54.5062 49.3777 53.2372 49.3777C53.2171 49.3777 53.2171 49.3777 53.197 49.3777C49.6922 49.3572 46.832 46.4445 46.832 42.8549C46.832 39.2858 49.6922 36.3525 53.197 36.332C53.2171 36.332 53.2171 36.332 53.2372 36.332C54.5062 36.332 55.6946 36.7218 56.6816 37.3781V36.6602H59.6223V42.8549ZM56.6816 43.5318V42.178C56.3593 40.537 54.9292 39.2858 53.2372 39.2858C53.2171 39.2858 53.2171 39.2858 53.197 39.2858C51.2633 39.3063 49.7124 40.9062 49.7124 42.8549C49.7124 44.824 51.2835 46.424 53.197 46.4445C53.2171 46.4445 53.2171 46.4445 53.2372 46.4445C54.9292 46.4445 56.3593 45.1727 56.6816 43.5318Z" fill="white"/>
<path d="M45.8059 42.8547V49.0083H42.8651V48.3314C41.858 48.9878 40.6898 49.3775 39.4208 49.3775C39.4007 49.3775 39.4007 49.3775 39.3806 49.3775C35.8758 49.357 33.0156 46.4443 33.0156 42.8547C33.0156 39.2856 35.8758 36.3524 39.3806 36.3319C39.4007 36.3319 39.4007 36.3319 39.4208 36.3319C40.6898 36.3319 41.8782 36.7216 42.8651 37.378V32.4141H45.8059V42.8547ZM42.8651 43.5316V42.1778C42.5429 40.5368 41.1128 39.2856 39.4208 39.2856C39.4007 39.2856 39.4007 39.2856 39.3806 39.2856C37.4469 39.3061 35.896 40.906 35.896 42.8547C35.896 44.8238 37.467 46.4238 39.3806 46.4443C39.4007 46.4443 39.4007 46.4443 39.4208 46.4443C41.1128 46.4443 42.5429 45.1726 42.8651 43.5316Z" fill="white"/>
<path d="M39.3793 26.5069L42.8438 32.4143H39.3793H28.6435L20.7478 19.061L20.4054 18.4662L20.7478 18.261L30.8592 12.0664L39.3793 26.5069Z" fill="white"/>
<path d="M31.8465 36.332H28.6439V49.0085H31.8465V36.332Z" fill="white"/>
<path d="M31.8465 32.4971H28.6439V35.3688H31.8465V32.4971Z" fill="white"/>
<path d="M27.1736 42.8547V49.0083H24.2328V48.3314C23.2257 48.9878 22.0373 49.3775 20.7684 49.3775C20.7482 49.3775 20.7482 49.3775 20.7281 49.3775C17.2233 49.357 14.3632 46.4443 14.3632 42.8547C14.3632 39.2856 17.2233 36.3524 20.7281 36.3319C20.7482 36.3319 20.7482 36.3319 20.7684 36.3319C22.0373 36.3319 23.2257 36.7216 24.2328 37.378V32.4141H27.1736V42.8547ZM24.2328 43.5316V42.1778C23.9106 40.5368 22.4805 39.2856 20.7684 39.2856C20.7482 39.2856 20.7482 39.2856 20.7281 39.2856C18.7944 39.3061 17.2435 40.906 17.2435 42.8547C17.2435 44.8238 18.8146 46.4238 20.7281 46.4443C20.7482 46.4443 20.7482 46.4443 20.7684 46.4443C22.5006 46.4443 23.9307 45.1726 24.2328 43.5316Z" fill="white"/>
<path d="M20.7485 27.4911L23.649 32.414H20.7485H9.42863L7.8374 29.7064L18.2912 23.3271L20.7485 27.4911Z" fill="white"/>
<path d="M13.2156 42.8549V49.0085H10.2748V48.3316C9.26771 48.988 8.07932 49.3777 6.81036 49.3777C6.79022 49.3777 6.79022 49.3777 6.77008 49.3777C3.28548 49.3572 0.425293 46.424 0.425293 42.8549C0.425293 39.2858 3.28548 36.3525 6.79022 36.332C6.81036 36.332 6.81036 36.332 6.83051 36.332C8.09946 36.332 9.28785 36.7218 10.295 37.3781V36.6602H13.2357V42.8549H13.2156ZM10.2748 43.5318V42.178C9.95254 40.537 8.52245 39.2858 6.81036 39.2858C6.79022 39.2858 6.79022 39.2858 6.77008 39.2858C4.85657 39.3063 3.28548 40.9062 3.28548 42.8549C3.28548 44.824 4.85657 46.424 6.77008 46.4445C6.79022 46.4445 6.79022 46.4445 6.81036 46.4445C8.54259 46.4445 9.97269 45.1727 10.2748 43.5318Z" fill="white"/>
</svg>
