<svg width="70" height="91" viewBox="0 0 70 91" fill="none" xmlns="http://www.w3.org/2000/svg">
<path d="M15.2819 87.0654C15.2157 87.0654 15.1537 87.0406 15.0958 86.991C15.0461 86.9414 15.0213 86.8793 15.0213 86.8049C15.0213 86.7718 15.0296 86.7346 15.0461 86.6933L18.0359 78.6915C18.0608 78.6088 18.1062 78.5385 18.1724 78.4806C18.2468 78.4145 18.3461 78.3814 18.4701 78.3814H19.8224C19.9464 78.3814 20.0415 78.4145 20.1077 78.4806C20.1739 78.5385 20.2235 78.6088 20.2566 78.6915L23.2464 86.6933C23.2546 86.7346 23.2588 86.7718 23.2588 86.8049C23.2588 86.8793 23.234 86.9414 23.1843 86.991C23.1347 87.0406 23.0768 87.0654 23.0107 87.0654H21.9314C21.8156 87.0654 21.7287 87.0406 21.6708 86.991C21.6212 86.9331 21.5881 86.8793 21.5716 86.8297L20.9885 85.3162H17.304L16.7209 86.8297C16.7044 86.8793 16.6672 86.9331 16.6093 86.991C16.5597 87.0406 16.477 87.0654 16.3612 87.0654H15.2819ZM17.7382 83.8895H20.5543L19.1401 80.0562L17.7382 83.8895ZM26.5897 87.1895C26.1597 87.1895 25.7792 87.1192 25.4484 86.9786C25.1259 86.8297 24.8571 86.623 24.642 86.3583C24.427 86.0936 24.2616 85.7835 24.1458 85.4279C24.03 85.064 23.9638 84.667 23.9473 84.2369C23.939 84.088 23.9349 83.9557 23.9349 83.8399C23.9349 83.7159 23.939 83.5794 23.9473 83.4305C23.9638 83.017 24.0259 82.6324 24.1334 82.2768C24.2492 81.9212 24.4146 81.611 24.6296 81.3464C24.8529 81.0734 25.1259 80.8625 25.4484 80.7137C25.7792 80.5648 26.1597 80.4904 26.5897 80.4904C27.0363 80.4904 27.4127 80.5689 27.7187 80.7261C28.0329 80.8749 28.2935 81.0693 28.5002 81.3091V78.5551C28.5002 78.4724 28.525 78.4021 28.5747 78.3442C28.6326 78.2863 28.707 78.2573 28.798 78.2573H29.8525C29.9352 78.2573 30.0055 78.2863 30.0634 78.3442C30.1213 78.4021 30.1502 78.4724 30.1502 78.5551V86.7677C30.1502 86.8504 30.1213 86.9207 30.0634 86.9786C30.0055 87.0365 29.9352 87.0654 29.8525 87.0654H28.8724C28.7814 87.0654 28.707 87.0365 28.6491 86.9786C28.5995 86.9207 28.5747 86.8504 28.5747 86.7677V86.3087C28.3679 86.5651 28.1032 86.776 27.7807 86.9414C27.4664 87.1068 27.0694 87.1895 26.5897 87.1895ZM27.0488 85.8621C27.3961 85.8621 27.6732 85.7835 27.8799 85.6264C28.0867 85.4692 28.2397 85.2707 28.339 85.0309C28.4382 84.7828 28.492 84.5305 28.5002 84.2741C28.5085 84.1253 28.5126 83.9681 28.5126 83.8027C28.5126 83.629 28.5085 83.4678 28.5002 83.3189C28.492 83.0708 28.4341 82.8351 28.3265 82.6118C28.219 82.3802 28.0619 82.19 27.8551 82.0411C27.6484 81.8922 27.3796 81.8178 27.0488 81.8178C26.7014 81.8178 26.4243 81.8964 26.2176 82.0535C26.0191 82.2024 25.8743 82.4009 25.7834 82.649C25.6924 82.8971 25.6386 83.17 25.6221 83.4678C25.6138 83.7159 25.6138 83.964 25.6221 84.2121C25.6386 84.5098 25.6924 84.7828 25.7834 85.0309C25.8743 85.279 26.0191 85.4816 26.2176 85.6388C26.4243 85.7876 26.7014 85.8621 27.0488 85.8621ZM32.1014 87.0654C32.0187 87.0654 31.9484 87.0365 31.8905 86.9786C31.8326 86.9207 31.8037 86.8504 31.8037 86.7677V80.9122C31.8037 80.8295 31.8326 80.7592 31.8905 80.7013C31.9484 80.6434 32.0187 80.6144 32.1014 80.6144H33.1311C33.2221 80.6144 33.2924 80.6434 33.342 80.7013C33.3999 80.7592 33.4288 80.8295 33.4288 80.9122V86.7677C33.4288 86.8504 33.3999 86.9207 33.342 86.9786C33.2924 87.0365 33.2221 87.0654 33.1311 87.0654H32.1014ZM32.0518 79.5475C31.9691 79.5475 31.8988 79.5186 31.8409 79.4607C31.783 79.4028 31.754 79.3325 31.754 79.2498V78.3566C31.754 78.2739 31.783 78.2036 31.8409 78.1457C31.8988 78.0878 31.9691 78.0588 32.0518 78.0588H33.1807C33.2717 78.0588 33.3461 78.0878 33.404 78.1457C33.4619 78.2036 33.4908 78.2739 33.4908 78.3566V79.2498C33.4908 79.3325 33.4619 79.4028 33.404 79.4607C33.3461 79.5186 33.2717 79.5475 33.1807 79.5475H32.0518ZM37.469 87.1895C37.039 87.1895 36.6585 87.1192 36.3277 86.9786C36.0052 86.8297 35.7364 86.623 35.5213 86.3583C35.3063 86.0936 35.1409 85.7835 35.0251 85.4279C34.9093 85.064 34.8431 84.667 34.8266 84.2369C34.8183 84.088 34.8142 83.9557 34.8142 83.8399C34.8142 83.7159 34.8183 83.5794 34.8266 83.4305C34.8431 83.017 34.9052 82.6324 35.0127 82.2768C35.1285 81.9212 35.2939 81.611 35.5089 81.3464C35.7322 81.0734 36.0052 80.8625 36.3277 80.7137C36.6585 80.5648 37.039 80.4904 37.469 80.4904C37.9156 80.4904 38.292 80.5689 38.598 80.7261C38.9122 80.8749 39.1728 81.0693 39.3795 81.3091V78.5551C39.3795 78.4724 39.4043 78.4021 39.454 78.3442C39.5119 78.2863 39.5863 78.2573 39.6773 78.2573H40.7318C40.8145 78.2573 40.8848 78.2863 40.9427 78.3442C41.0005 78.4021 41.0295 78.4724 41.0295 78.5551V86.7677C41.0295 86.8504 41.0005 86.9207 40.9427 86.9786C40.8848 87.0365 40.8145 87.0654 40.7318 87.0654H39.7517C39.6607 87.0654 39.5863 87.0365 39.5284 86.9786C39.4788 86.9207 39.454 86.8504 39.454 86.7677V86.3087C39.2472 86.5651 38.9825 86.776 38.66 86.9414C38.3457 87.1068 37.9487 87.1895 37.469 87.1895ZM37.928 85.8621C38.2754 85.8621 38.5525 85.7835 38.7592 85.6264C38.966 85.4692 39.119 85.2707 39.2182 85.0309C39.3175 84.7828 39.3713 84.5305 39.3795 84.2741C39.3878 84.1253 39.3919 83.9681 39.3919 83.8027C39.3919 83.629 39.3878 83.4678 39.3795 83.3189C39.3713 83.0708 39.3134 82.8351 39.2058 82.6118C39.0983 82.3802 38.9412 82.19 38.7344 82.0411C38.5277 81.8922 38.2589 81.8178 37.928 81.8178C37.5807 81.8178 37.3036 81.8964 37.0969 82.0535C36.8984 82.2024 36.7536 82.4009 36.6627 82.649C36.5717 82.8971 36.5179 83.17 36.5014 83.4678C36.4931 83.7159 36.4931 83.964 36.5014 84.2121C36.5179 84.5098 36.5717 84.7828 36.6627 85.0309C36.7536 85.279 36.8984 85.4816 37.0969 85.6388C37.3036 85.7876 37.5807 85.8621 37.928 85.8621ZM44.5562 87.1895C44.1262 87.1895 43.7374 87.1068 43.3901 86.9414C43.0427 86.7677 42.7657 86.5403 42.5589 86.2591C42.3604 85.9696 42.2612 85.647 42.2612 85.2914C42.2612 84.7125 42.4969 84.2535 42.9683 83.9144C43.4397 83.567 44.0559 83.3354 44.8168 83.2196L46.5163 82.9715V82.711C46.5163 82.3636 46.4295 82.0948 46.2558 81.9046C46.0821 81.7144 45.7844 81.6193 45.3626 81.6193C45.0649 81.6193 44.8209 81.6813 44.6307 81.8054C44.4487 81.9212 44.3122 82.0783 44.2213 82.2768C44.1551 82.3843 44.06 82.4381 43.9359 82.4381H42.9559C42.8649 82.4381 42.7946 82.4133 42.745 82.3636C42.7036 82.314 42.683 82.2478 42.683 82.1651C42.6912 82.0328 42.745 81.8715 42.8442 81.6813C42.9517 81.4911 43.1089 81.3091 43.3157 81.1355C43.5307 80.9535 43.8077 80.8005 44.1468 80.6764C44.4859 80.5524 44.8953 80.4904 45.375 80.4904C45.8961 80.4904 46.3344 80.5565 46.69 80.6889C47.0539 80.8129 47.3434 80.9825 47.5584 81.1975C47.7735 81.4125 47.9306 81.6648 48.0299 81.9542C48.1291 82.2437 48.1787 82.5497 48.1787 82.8723V86.7677C48.1787 86.8504 48.1498 86.9207 48.0919 86.9786C48.034 87.0365 47.9637 87.0654 47.881 87.0654H46.8761C46.7851 87.0654 46.7107 87.0365 46.6528 86.9786C46.6032 86.9207 46.5784 86.8504 46.5784 86.7677V86.2839C46.4709 86.4327 46.3261 86.5775 46.1442 86.7181C45.9622 86.8587 45.7389 86.9745 45.4743 87.0654C45.2179 87.1481 44.9119 87.1895 44.5562 87.1895ZM44.978 86.0109C45.2675 86.0109 45.528 85.9489 45.7596 85.8249C45.9994 85.7008 46.1855 85.5106 46.3179 85.2542C46.4585 84.9895 46.5288 84.6587 46.5288 84.2617V84.0012L45.2882 84.1997C44.8002 84.2741 44.4363 84.394 44.1965 84.5595C43.9566 84.7249 43.8367 84.9275 43.8367 85.1673C43.8367 85.3493 43.8905 85.5064 43.998 85.6388C44.1138 85.7628 44.2585 85.8579 44.4322 85.9241C44.6059 85.982 44.7878 86.0109 44.978 86.0109ZM52.2142 87.1895C51.718 87.1895 51.292 87.1316 50.9364 87.0158C50.589 86.9 50.3037 86.7553 50.0804 86.5816C49.8571 86.4079 49.6917 86.2342 49.5842 86.0606C49.4766 85.8869 49.4188 85.7421 49.4105 85.6264C49.4022 85.5354 49.427 85.4651 49.4849 85.4155C49.5511 85.3576 49.6214 85.3286 49.6958 85.3286H50.6759C50.709 85.3286 50.7379 85.3328 50.7627 85.341C50.7875 85.3493 50.8206 85.3741 50.862 85.4155C50.9695 85.5064 51.0811 85.6015 51.1969 85.7008C51.321 85.8 51.4657 85.8869 51.6311 85.9613C51.7965 86.0275 52.0033 86.0606 52.2514 86.0606C52.574 86.0606 52.8427 85.9985 53.0578 85.8745C53.2811 85.7421 53.3927 85.5561 53.3927 85.3162C53.3927 85.1425 53.3431 85.0019 53.2439 84.8944C53.1529 84.7869 52.9792 84.6918 52.7228 84.6091C52.4664 84.5181 52.1025 84.423 51.6311 84.3237C51.168 84.2162 50.7834 84.0798 50.4774 83.9144C50.1714 83.7489 49.9439 83.5422 49.7951 83.2941C49.6462 83.046 49.5718 82.7565 49.5718 82.4257C49.5718 82.1031 49.6669 81.7971 49.8571 81.5076C50.0556 81.2099 50.345 80.9659 50.7255 80.7757C51.1142 80.5855 51.5939 80.4904 52.1646 80.4904C52.6112 80.4904 52.9999 80.5483 53.3307 80.664C53.6615 80.7716 53.9345 80.908 54.1495 81.0734C54.3728 81.2388 54.5423 81.4084 54.6581 81.5821C54.7739 81.7475 54.8359 81.8922 54.8442 82.0163C54.8525 82.1072 54.8277 82.1817 54.7698 82.2396C54.7119 82.2892 54.6457 82.314 54.5713 82.314H53.6533C53.6119 82.314 53.5747 82.3057 53.5416 82.2892C53.5085 82.2727 53.4754 82.252 53.4424 82.2272C53.3514 82.1445 53.2521 82.0576 53.1446 81.9666C53.0371 81.8674 52.9048 81.7847 52.7476 81.7185C52.5988 81.6524 52.4003 81.6193 52.1522 81.6193C51.8379 81.6193 51.598 81.6896 51.4326 81.8302C51.2672 81.9625 51.1845 82.1321 51.1845 82.3388C51.1845 82.4794 51.2217 82.6035 51.2962 82.711C51.3789 82.8102 51.5401 82.9054 51.78 82.9963C52.0198 83.0873 52.3837 83.1824 52.8717 83.2817C53.4258 83.3809 53.8642 83.5298 54.1867 83.7283C54.5175 83.9185 54.7491 84.1418 54.8814 84.3982C55.022 84.6463 55.0923 84.9234 55.0923 85.2294C55.0923 85.6015 54.9807 85.9365 54.7574 86.2342C54.5423 86.532 54.2198 86.7677 53.7897 86.9414C53.3679 87.1068 52.8427 87.1895 52.2142 87.1895Z" fill="black"/>
<circle cx="35.0065" cy="34.7468" r="33.7282" stroke="black" stroke-width="0.775362"/>
<g clip-path="url(#clip0_2226_9978)">
<path d="M51.385 41.4796H50.4231H49.9233C49.8762 41.2314 49.8102 41.0595 49.7064 40.964C49.5461 40.8016 49.2821 40.7252 48.9143 40.7252C48.5465 40.7252 48.3013 40.7825 48.1599 40.9067C48.0561 41.0022 47.9996 41.1263 47.9996 41.2886C47.9996 41.5178 48.3108 41.6897 48.9143 41.833C49.6121 41.9857 50.1119 42.1194 50.4231 42.2245C50.508 42.2531 50.574 42.2818 50.6212 42.3104C51.2435 42.6065 51.5453 43.0553 51.5453 43.6569C51.5453 44.3922 51.2435 44.9269 50.64 45.2707C50.5646 45.3089 50.4891 45.3471 50.4137 45.3853C50.0271 45.5572 49.5744 45.6431 49.0652 45.6431C48.3013 45.6431 47.6884 45.5095 47.2169 45.2325C46.9245 45.0606 46.6982 44.841 46.5567 44.5736C46.4059 44.3062 46.3398 44.0007 46.3398 43.6473H47.877C47.877 43.9147 47.9713 44.1248 48.1599 44.268C48.3485 44.4208 48.6691 44.4972 49.1123 44.4972C49.4518 44.4972 49.7064 44.4208 49.8667 44.2871C49.9988 44.1725 50.0553 44.0484 50.0553 43.9052C50.0553 43.6664 49.7536 43.4754 49.15 43.3418C48.2542 43.1508 47.6884 42.9884 47.4526 42.8738C46.8396 42.5874 46.5379 42.129 46.5379 41.5083C46.5379 41.0117 46.6982 40.582 47.0188 40.2382C47.4243 39.799 48.0278 39.5889 48.8294 39.5889C49.4895 39.5889 50.0176 39.6844 50.4231 39.8753C50.4608 39.8944 50.4891 39.904 50.5174 39.9231C50.8003 40.0854 51.0172 40.2955 51.1681 40.5534C51.3096 40.8112 51.385 41.1168 51.385 41.4796Z" fill="black"/>
<path d="M50.6023 37.8607C50.6023 37.8321 50.5929 37.8034 50.5834 37.7843C50.5646 37.7557 50.5457 37.7461 50.5174 37.7366C50.4985 37.727 50.4703 37.727 50.4231 37.7175H50.3665H50.1874V38.0039H50.376C50.3948 38.0039 50.4137 38.0039 50.4231 38.0039C50.4891 37.9944 50.5363 37.9848 50.5551 37.9657C50.5834 37.9371 50.6023 37.8989 50.6023 37.8607ZM50.7249 37.7079C50.7532 37.7461 50.772 37.7939 50.772 37.8416C50.772 37.9084 50.7437 37.9753 50.6966 38.023C50.6494 38.0708 50.5834 38.109 50.4985 38.109C50.5363 38.1281 50.5551 38.1376 50.5834 38.1567L50.7249 38.3477L50.838 38.5387H50.6589L50.574 38.3859C50.5174 38.2904 50.4703 38.214 50.4325 38.1854C50.4231 38.1758 50.4231 38.1758 50.4137 38.1663L50.2911 38.1281H50.1968V38.5387H50.0459V37.5742H50.376C50.3948 37.5742 50.4137 37.5838 50.4325 37.5838C50.5174 37.5838 50.574 37.5933 50.6117 37.6124C50.6494 37.6315 50.6872 37.6602 50.7249 37.7079Z" fill="black"/>
<path d="M51.1494 38.0609C51.1494 37.9272 51.1211 37.8031 51.0551 37.6885C50.9891 37.5739 50.8948 37.4784 50.7816 37.4116C50.6684 37.3543 50.5458 37.3161 50.4232 37.3161C50.4138 37.3161 50.4138 37.3161 50.4138 37.3161C50.2912 37.3161 50.1686 37.3543 50.0555 37.4116C49.9423 37.4784 49.848 37.5739 49.782 37.6885C49.716 37.8031 49.6783 37.9272 49.6783 38.0609C49.6783 38.1851 49.716 38.3092 49.782 38.4334C49.8386 38.548 49.9329 38.6339 50.046 38.7007C50.1592 38.7676 50.2818 38.7962 50.4138 38.7962C50.4138 38.7962 50.4138 38.7962 50.4232 38.7962C50.5458 38.7962 50.6684 38.7676 50.791 38.7007C50.9042 38.6339 50.9985 38.5384 51.0551 38.4334C51.1211 38.3092 51.1494 38.1851 51.1494 38.0609ZM51.3003 38.0609C51.3003 38.2137 51.2625 38.357 51.1871 38.5002C51.1116 38.6435 51.0079 38.7485 50.8665 38.8249C50.725 38.9108 50.5836 38.9395 50.4327 38.9395C50.4232 38.9395 50.4232 38.9395 50.4232 38.9395C50.2724 38.9395 50.1309 38.9013 49.9895 38.8249C49.848 38.7485 49.7443 38.6435 49.6688 38.5002C49.584 38.357 49.5557 38.2137 49.5557 38.0609C49.5557 37.8986 49.5934 37.7554 49.6688 37.6121C49.7537 37.4689 49.8574 37.3638 49.9989 37.2874C50.1403 37.211 50.2818 37.1729 50.4232 37.1729C50.4232 37.1729 50.4232 37.1729 50.4327 37.1729C50.5836 37.1729 50.725 37.211 50.8665 37.2874C51.0079 37.3638 51.1211 37.4689 51.1965 37.6121C51.2625 37.7458 51.3003 37.8986 51.3003 38.0609Z" fill="black"/>
<path d="M42.7091 30.8321L46.8584 37.8222H42.7091H40.2007L36.24 31.1472L33.2412 26.0956L36.24 24.2621L38.1261 23.1162L42.7091 30.8321Z" fill="black"/>
<path d="M45.7167 42.6832V45.548H44.3399V45.2328C43.8778 45.5384 43.3214 45.7199 42.7273 45.7199C42.7179 45.7199 42.7179 45.7199 42.7085 45.7199C41.0676 45.7103 39.7285 44.3543 39.7285 42.6832C39.7285 41.0216 41.0676 39.656 42.7085 39.6465C42.7179 39.6465 42.7179 39.6465 42.7273 39.6465C43.3214 39.6465 43.8778 39.8279 44.3399 40.1335V39.7993H45.7167V42.6832ZM44.3399 42.9983V42.368C44.189 41.6041 43.5195 41.0216 42.7273 41.0216C42.7179 41.0216 42.7179 41.0216 42.7085 41.0216C41.8032 41.0311 41.077 41.776 41.077 42.6832C41.077 43.5999 41.8126 44.3448 42.7085 44.3543C42.7179 44.3543 42.7179 44.3543 42.7273 44.3543C43.5195 44.3543 44.189 43.7622 44.3399 42.9983Z" fill="black"/>
<path d="M39.2479 42.6829V45.5477H37.8711V45.2325C37.3996 45.5381 36.8527 45.7196 36.2586 45.7196C36.2491 45.7196 36.2491 45.7196 36.2397 45.7196C34.5989 45.71 33.2598 44.354 33.2598 42.6829C33.2598 41.0213 34.5989 39.6557 36.2397 39.6462C36.2491 39.6462 36.2491 39.6462 36.2586 39.6462C36.8527 39.6462 37.4091 39.8276 37.8711 40.1332V37.8223H39.2479V42.6829ZM37.8711 42.998V42.3677C37.7202 41.6038 37.0507 41.0213 36.2586 41.0213C36.2491 41.0213 36.2491 41.0213 36.2397 41.0213C35.3344 41.0308 34.6083 41.7757 34.6083 42.6829C34.6083 43.5996 35.3438 44.3445 36.2397 44.354C36.2491 44.354 36.2491 44.354 36.2586 44.354C37.0507 44.354 37.7202 43.762 37.8711 42.998Z" fill="black"/>
<path d="M36.2397 35.0723L37.8617 37.8225H36.2397H31.2134L27.5168 31.6059L27.3564 31.329L27.5168 31.2335L32.2507 28.3496L36.2397 35.0723Z" fill="black"/>
<path d="M32.7123 39.6465H31.2129V45.548H32.7123V39.6465Z" fill="black"/>
<path d="M32.7123 37.8604H31.2129V39.1973H32.7123V37.8604Z" fill="black"/>
<path d="M30.5249 42.6829V45.5477H29.1481V45.2325C28.6766 45.5381 28.1202 45.7196 27.5261 45.7196C27.5167 45.7196 27.5167 45.7196 27.5073 45.7196C25.8664 45.71 24.5273 44.354 24.5273 42.6829C24.5273 41.0213 25.8664 39.6557 27.5073 39.6462C27.5167 39.6462 27.5167 39.6462 27.5261 39.6462C28.1202 39.6462 28.6766 39.8276 29.1481 40.1332V37.8223H30.5249V42.6829ZM29.1481 42.998V42.3677C28.9973 41.6038 28.3277 41.0213 27.5261 41.0213C27.5167 41.0213 27.5167 41.0213 27.5073 41.0213C26.602 41.0308 25.8759 41.7757 25.8759 42.6829C25.8759 43.5996 26.6114 44.3445 27.5073 44.354C27.5167 44.354 27.5167 44.354 27.5261 44.354C28.3371 44.354 29.0067 43.762 29.1481 42.998Z" fill="black"/>
<path d="M27.5164 35.5303L28.8744 37.8222H27.5164H22.2167L21.4717 36.5616L26.366 33.5918L27.5164 35.5303Z" fill="black"/>
<path d="M23.9901 42.6832V45.548H22.6133V45.2328C22.1418 45.5384 21.5854 45.7199 20.9913 45.7199C20.9819 45.7199 20.9819 45.7199 20.9725 45.7199C19.341 45.7103 18.002 44.3448 18.002 42.6832C18.002 41.0216 19.341 39.656 20.9819 39.6465C20.9913 39.6465 20.9913 39.6465 21.0008 39.6465C21.5949 39.6465 22.1512 39.8279 22.6227 40.1335V39.7993H23.9996V42.6832H23.9901ZM22.6133 42.9983V42.368C22.4624 41.6041 21.7929 41.0216 20.9913 41.0216C20.9819 41.0216 20.9819 41.0216 20.9725 41.0216C20.0766 41.0311 19.341 41.776 19.341 42.6832C19.341 43.5999 20.0766 44.3448 20.9725 44.3543C20.9819 44.3543 20.9819 44.3543 20.9913 44.3543C21.8023 44.3543 22.4719 43.7622 22.6133 42.9983Z" fill="black"/>
</g>
<defs>
<clipPath id="clip0_2226_9978">
<rect width="36.442" height="22.6033" fill="black" transform="translate(17.1738 23.1162)"/>
</clipPath>
</defs>
</svg>
