<svg width="437" height="264" viewBox="0 0 437 264" fill="white" xmlns="http://www.w3.org/2000/svg">
<path d="M426.842 8.5308L435.529 0.510742L449.229 8.5308H426.842Z" fill="white"/>
<path d="M398.44 24.2369L407.128 16.2168L420.828 24.2369H398.44Z" fill="white"/>
<path d="M370.039 43.2837L378.727 35.2637L392.426 43.2837H370.039Z" fill="white"/>
<path d="M426.842 43.2837L435.529 35.2637L449.229 43.2837H426.842Z" fill="white"/>
<path d="M341.637 58.9898L350.324 50.9697L364.024 58.9898H341.637Z" fill="white"/>
<path d="M398.44 58.9898L407.128 50.9697L420.828 58.9898H398.44Z" fill="white"/>
<path d="M313.235 78.0376L321.923 70.0176L335.622 78.0376H313.235Z" fill="white"/>
<path d="M370.038 78.0376L378.726 70.0176L392.425 78.0376H370.038Z" fill="white"/>
<path d="M426.842 78.0376L435.529 70.0176L449.229 78.0376H426.842Z" fill="white"/>
<path d="M284.834 93.7447L293.522 85.7246L307.221 93.7447H284.834Z" fill="white"/>
<path d="M341.637 93.7447L350.324 85.7246L364.024 93.7447H341.637Z" fill="white"/>
<path d="M398.44 93.7447L407.128 85.7246L420.828 93.7447H398.44Z" fill="white"/>
<path d="M256.433 112.457L264.786 104.771L278.82 112.457H256.433Z" fill="white"/>
<path d="M313.235 112.457L321.923 104.771L335.622 112.457H313.235Z" fill="white"/>
<path d="M370.039 112.457L378.727 104.771L392.426 112.457H370.039Z" fill="white"/>
<path d="M426.842 112.457L435.529 104.771L449.229 112.457H426.842Z" fill="white"/>
<path d="M228.031 128.498L236.385 120.478L250.418 128.498H228.031Z" fill="white"/>
<path d="M284.834 128.498L293.522 120.478L307.221 128.498H284.834Z" fill="white"/>
<path d="M341.637 128.498L350.324 120.478L364.024 128.498H341.637Z" fill="white"/>
<path d="M398.44 128.498L407.128 120.478L420.828 128.498H398.44Z" fill="white"/>
<path d="M199.629 147.211L207.982 139.525L222.016 147.211H199.629Z" fill="white"/>
<path d="M256.433 147.211L264.786 139.525L278.82 147.211H256.433Z" fill="white"/>
<path d="M313.235 147.211L321.923 139.525L335.622 147.211H313.235Z" fill="white"/>
<path d="M370.039 147.211L378.727 139.525L392.426 147.211H370.039Z" fill="white"/>
<path d="M426.842 147.211L435.529 139.525L449.229 147.211H426.842Z" fill="white"/>
<path d="M171.228 163.251L179.581 155.23L193.615 163.251H171.228Z" fill="white"/>
<path d="M228.031 163.251L236.385 155.23L250.418 163.251H228.031Z" fill="white"/>
<path d="M284.834 163.251L293.522 155.23L307.221 163.251H284.834Z" fill="white"/>
<path d="M341.637 163.251L350.324 155.23L364.024 163.251H341.637Z" fill="white"/>
<path d="M398.44 163.251L407.128 155.23L420.828 163.251H398.44Z" fill="white"/>
<path d="M142.826 181.964L151.18 174.278L165.213 181.964H142.826Z" fill="white"/>
<path d="M199.629 181.964L207.982 174.278L222.016 181.964H199.629Z" fill="white"/>
<path d="M256.433 181.964L264.786 174.278L278.82 181.964H256.433Z" fill="white"/>
<path d="M313.235 181.964L321.923 174.278L335.622 181.964H313.235Z" fill="white"/>
<path d="M370.038 181.964L378.726 174.278L392.425 181.964H370.038Z" fill="white"/>
<path d="M426.842 181.964L435.529 174.278L449.229 181.964H426.842Z" fill="white"/>
<path d="M114.425 198.004L122.778 189.984L136.812 198.004H114.425Z" fill="white"/>
<path d="M171.228 198.004L179.581 189.984L193.615 198.004H171.228Z" fill="white"/>
<path d="M228.031 198.004L236.385 189.984L250.418 198.004H228.031Z" fill="white"/>
<path d="M284.834 198.004L293.522 189.984L307.221 198.004H284.834Z" fill="white"/>
<path d="M341.637 198.004L350.324 189.984L364.024 198.004H341.637Z" fill="white"/>
<path d="M398.44 198.004L407.128 189.984L420.828 198.004H398.44Z" fill="white"/>
<path d="M86.0234 216.718L94.3768 208.698L108.411 216.718H86.0234Z" fill="white"/>
<path d="M142.826 216.718L151.18 208.698L165.213 216.718H142.826Z" fill="white"/>
<path d="M199.629 216.718L207.982 208.698L222.016 216.718H199.629Z" fill="white"/>
<path d="M256.433 216.718L264.786 208.698L278.82 216.718H256.433Z" fill="white"/>
<path d="M313.235 216.718L321.923 208.698L335.622 216.718H313.235Z" fill="white"/>
<path d="M370.038 216.718L378.726 208.698L392.425 216.718H370.038Z" fill="white"/>
<path d="M426.842 216.718L435.529 208.698L449.229 216.718H426.842Z" fill="white"/>
<path d="M57.6211 232.424L65.9745 224.738L80.0082 232.424H57.6211Z" fill="white"/>
<path d="M114.424 232.424L122.777 224.738L136.811 232.424H114.424Z" fill="white"/>
<path d="M171.228 232.424L179.581 224.738L193.615 232.424H171.228Z" fill="white"/>
<path d="M228.031 232.424L236.385 224.738L250.418 232.424H228.031Z" fill="white"/>
<path d="M284.834 232.424L293.522 224.738L307.221 232.424H284.834Z" fill="white"/>
<path d="M341.637 232.424L350.324 224.738L364.024 232.424H341.637Z" fill="white"/>
<path d="M398.44 232.424L407.128 224.738L420.828 232.424H398.44Z" fill="white"/>
<path d="M29.2197 251.472L37.5731 243.452L51.6068 251.472H29.2197Z" fill="white"/>
<path d="M86.0234 251.472L94.3768 243.452L108.411 251.472H86.0234Z" fill="white"/>
<path d="M142.826 251.472L151.18 243.452L165.213 251.472H142.826Z" fill="white"/>
<path d="M199.629 251.472L207.982 243.452L222.016 251.472H199.629Z" fill="white"/>
<path d="M256.433 251.472L264.786 243.452L278.82 251.472H256.433Z" fill="white"/>
<path d="M313.235 251.472L321.923 243.452L335.622 251.472H313.235Z" fill="white"/>
<path d="M370.038 251.472L378.726 243.452L392.425 251.472H370.038Z" fill="white"/>
<path d="M426.842 251.472L435.529 243.452L449.229 251.472H426.842Z" fill="white"/>
<path d="M0.818359 267.178L9.17176 259.492L23.2055 267.178H0.818359Z" fill="white"/>
<path d="M57.6211 267.178L65.9745 259.492L80.0082 267.178H57.6211Z" fill="white"/>
<path d="M114.425 267.178L122.778 259.492L136.812 267.178H114.425Z" fill="white"/>
<path d="M171.228 267.178L179.581 259.492L193.615 267.178H171.228Z" fill="white"/>
<path d="M228.031 267.178L236.385 259.492L250.418 267.178H228.031Z" fill="white"/>
<path d="M284.834 267.178L293.522 259.492L307.221 267.178H284.834Z" fill="white"/>
<path d="M341.637 267.178L350.324 259.492L364.024 267.178H341.637Z" fill="white"/>
<path d="M398.44 267.178L407.128 259.492L420.828 267.178H398.44Z" fill="white"/>
</svg>
