<svg width="45" height="22" viewBox="0 0 45 22" fill="none" xmlns="http://www.w3.org/2000/svg">
<g clip-path="url(#clip0_1389_7996)">
<path fill-rule="evenodd" clip-rule="evenodd" d="M19.1867 9.92773L14.1288 10.0945L18.9279 10.3804L19.1867 9.92773Z" fill="black"/>
<path fill-rule="evenodd" clip-rule="evenodd" d="M18.5751 11L13.5172 11.1668L18.3399 11.4527L18.5751 11Z" fill="black"/>
<path fill-rule="evenodd" clip-rule="evenodd" d="M17.9632 12.0723L12.9053 12.2629L17.728 12.5249L17.9632 12.0723Z" fill="black"/>
<path fill-rule="evenodd" clip-rule="evenodd" d="M17.3754 13.168L12.3175 13.3347L17.1167 13.6206L17.3754 13.168Z" fill="black"/>
<path fill-rule="evenodd" clip-rule="evenodd" d="M23.586 4.47168L17.1166 4.70993L23.6096 5.09113L23.586 4.47168Z" fill="black"/>
<path fill-rule="evenodd" clip-rule="evenodd" d="M23.5386 3.42383L17.7279 3.61443L23.5622 3.94798L23.5386 3.42383Z" fill="black"/>
<path fill-rule="evenodd" clip-rule="evenodd" d="M23.4919 2.37598L18.3398 2.56658L23.5154 2.85248L23.4919 2.37598Z" fill="black"/>
<path fill-rule="evenodd" clip-rule="evenodd" d="M23.468 1.32715L18.9276 1.4701L23.4915 1.756L23.468 1.32715Z" fill="black"/>
<path fill-rule="evenodd" clip-rule="evenodd" d="M23.445 0.46875H19.4928L23.445 0.683175V0.46875Z" fill="black"/>
<path fill-rule="evenodd" clip-rule="evenodd" d="M16.7635 14.2412L11.7056 14.4318H16.6694L16.7635 14.2412Z" fill="black"/>
<path fill-rule="evenodd" clip-rule="evenodd" d="M33.9137 0.494141H26.6209L26.4092 0.87534L30.0556 1.06594C30.1026 1.06594 30.1026 1.13741 30.0321 1.13741L26.1974 1.25654L25.821 1.92364L29.4675 2.13806C29.5145 2.13806 29.5145 2.20954 29.4675 2.20954L25.6093 2.32866L25.2564 2.94811L28.8793 3.16254C28.9499 3.16254 28.9499 3.23401 28.8793 3.23401L25.0447 3.37696L24.6683 4.04406L28.2677 4.25848C28.3382 4.25848 28.3382 4.32996 28.2677 4.32996L24.4331 4.47291L24.0566 5.11618L27.6795 5.33061C27.7266 5.33061 27.7501 5.40208 27.656 5.40208L16.5756 5.78328L27.0914 6.3789C27.162 6.3789 27.162 6.4742 27.0679 6.4742L15.9639 6.87923L26.4797 7.47485C26.5268 7.47485 26.5503 7.54633 26.4562 7.54633L15.3523 7.95135L25.8681 8.54698C25.9151 8.54698 25.9622 8.64227 25.8681 8.64227L14.7642 9.0473L25.28 9.64292C25.3035 9.64292 25.3505 9.73822 25.2564 9.73822L19.6809 9.92882L19.7045 10.4291L24.6683 10.715C24.7154 10.715 24.7154 10.7865 24.6448 10.7865L19.7045 10.9533L19.728 11.5251L24.0566 11.7633C24.1037 11.7633 24.1272 11.8586 24.0331 11.8586L19.775 12.0016L19.7986 12.621L23.4685 12.8355C23.5156 12.8355 23.5156 12.9308 23.445 12.9308L19.7986 13.0737L19.8221 13.7646L22.8569 13.9314C22.9039 13.9314 22.9039 14.0029 22.8333 14.0029L19.8221 14.122L19.8456 14.4079H29.6557C32.267 14.4079 34.596 12.4781 35.0429 10.9533C35.4899 9.4285 35.4899 8.04665 33.3962 7.35573C34.5724 7.09365 36.5956 5.75945 36.9955 3.90111C37.372 2.23336 36.7603 0.517966 33.9137 0.494141ZM28.9734 11.1915H25.9622L27.656 8.14195H29.8909C32.2199 8.14195 31.0907 11.1915 28.9734 11.1915ZM32.8786 4.63968C32.7845 5.02088 32.0552 5.95005 31.1378 5.95005H28.9029L30.3379 3.37696H31.4906C32.9257 3.44843 32.9727 4.28231 32.8786 4.63968Z" fill="black"/>
<path fill-rule="evenodd" clip-rule="evenodd" d="M44.9703 18.8146C44.9703 17.6233 44.0057 16.6465 42.8295 16.6465C41.6297 16.6465 40.6416 17.6471 40.6416 18.886C40.6416 20.1249 41.6061 21.1017 42.8295 21.1017C43.7234 21.1017 44.5703 20.4823 44.8056 19.6484H43.6999C43.4882 20.0058 43.1823 20.1726 42.8059 20.1726C42.3119 20.1726 41.8649 19.8152 41.7238 19.3387H44.9232C44.9467 19.1005 44.9703 18.9813 44.9703 18.8146ZM41.6767 18.5287C41.8179 17.9569 42.2648 17.5757 42.8295 17.5757C43.3941 17.5757 43.841 17.933 43.9587 18.5287H41.6767Z" fill="black"/>
<path fill-rule="evenodd" clip-rule="evenodd" d="M30.5727 16.8609V17.1945C30.2434 16.8371 29.7964 16.6465 29.3023 16.6465C28.2202 16.6465 27.2792 17.5995 27.2792 18.8146C27.2792 19.982 28.1026 21.0064 29.3259 21.0064C29.867 21.0064 30.2669 20.8873 30.6668 20.4347V20.9826H31.5843V16.8609H30.5727ZM29.4435 20.1488C28.7377 20.1488 28.1731 19.577 28.1731 18.8622C28.1731 18.1475 28.7377 17.5757 29.4435 17.5757C30.1493 17.5757 30.7139 18.1475 30.7139 18.8622C30.7139 19.577 30.1493 20.1488 29.4435 20.1488Z" fill="black"/>
<path fill-rule="evenodd" clip-rule="evenodd" d="M2.97789 16.6465C2.55443 16.6465 2.2486 16.7894 1.89572 17.1468V16.7418H0.954712V21.0064H1.9663V19.0052C1.9663 18.4572 2.01335 17.5995 2.76616 17.5995C3.47192 17.5995 3.54249 18.4095 3.54249 18.9337V21.0064H4.55408V18.7193C4.55408 18.1236 4.50703 17.8377 4.34235 17.5042C4.1071 16.98 3.54249 16.6465 2.97789 16.6465Z" fill="black"/>
<path fill-rule="evenodd" clip-rule="evenodd" d="M9.23527 18.8146C9.23527 17.6233 8.27073 16.6465 7.09447 16.6465C5.89468 16.6465 4.90662 17.6471 4.90662 18.886C4.90662 20.1249 5.87115 21.1017 7.09447 21.1017C7.98843 21.1017 8.83534 20.4823 9.07059 19.6484H7.9649C7.75317 20.0058 7.44735 20.1726 7.07094 20.1726C6.57691 20.1726 6.12993 19.8152 5.98878 19.3387H9.18822C9.23527 19.1005 9.23527 18.9813 9.23527 18.8146ZM5.96525 18.5287C6.10641 17.9569 6.55339 17.5757 7.11799 17.5757C7.6826 17.5757 8.12958 17.933 8.24721 18.5287H5.96525Z" fill="black"/>
<path fill-rule="evenodd" clip-rule="evenodd" d="M25.868 21.0067H26.8561V15.3125H25.868V21.0067Z" fill="black"/>
<path fill-rule="evenodd" clip-rule="evenodd" d="M34.2434 16.6465C33.8199 16.6465 33.5141 16.7894 33.1612 17.1468V16.7418H32.2202V21.0064H33.2318V19.0052C33.2318 18.4572 33.2789 17.5995 34.0317 17.5995C34.7374 17.5995 34.808 18.4095 34.808 18.9337V21.0064H35.8196V18.7193C35.8196 18.1236 35.7725 17.8377 35.6079 17.5042C35.3726 16.98 34.8315 16.6465 34.2434 16.6465Z" fill="black"/>
<path fill-rule="evenodd" clip-rule="evenodd" d="M38.3364 17.5757C38.8069 17.5757 39.0657 17.7186 39.3245 18.1713H40.4537C40.1479 17.2659 39.348 16.6465 38.3835 16.6465C37.1602 16.6465 36.1721 17.6471 36.1721 18.8622C36.1721 20.1011 37.1602 21.1017 38.3835 21.1017C38.9952 21.1017 39.6303 20.8158 40.0303 20.3632C40.242 20.1249 40.3126 19.982 40.4537 19.6008H39.3245C39.0893 19.9582 38.7834 20.1726 38.407 20.1726C37.7013 20.1726 37.1837 19.6246 37.1837 18.886C37.1602 18.1236 37.6777 17.5757 38.3364 17.5757Z" fill="black"/>
<path fill-rule="evenodd" clip-rule="evenodd" d="M13.0938 19.3391L12.3881 16.7422H11.5882L10.8589 19.3391L10.012 16.7422H9.11804L10.506 21.0069H11.1647L11.9881 18.2432L12.788 21.0069H13.4467L14.8112 16.7422H13.9642L13.0938 19.3391Z" fill="black"/>
<path fill-rule="evenodd" clip-rule="evenodd" d="M18.5047 16.6467C18.0107 16.6467 17.5402 16.8373 17.2344 17.1947V15.3125H16.2228V20.9828H17.1403V20.4349C17.5167 20.8875 17.9401 21.0067 18.4812 21.0067C19.7045 21.0067 20.5279 19.9584 20.5279 18.8148C20.5279 17.5997 19.6104 16.6467 18.5047 16.6467ZM18.3636 20.149C17.6578 20.149 17.0932 19.5772 17.0932 18.8624C17.0932 18.1477 17.6578 17.5759 18.3636 17.5759C19.0693 17.5759 19.6339 18.1477 19.6339 18.8624C19.6339 19.5772 19.0693 20.149 18.3636 20.149Z" fill="black"/>
<path fill-rule="evenodd" clip-rule="evenodd" d="M24.174 16.8609V17.1945C23.8447 16.8371 23.3977 16.6465 22.9037 16.6465C21.8215 16.6465 20.8805 17.5995 20.8805 18.8146C20.8805 19.982 21.7039 21.0064 22.9272 21.0064C23.4683 21.0064 23.8682 20.8873 24.2681 20.4347V20.9826H25.1856V16.8609H24.174ZM23.0448 20.1488C22.3391 20.1488 21.7745 19.577 21.7745 18.8622C21.7745 18.1475 22.3391 17.5757 23.0448 17.5757C23.7506 17.5757 24.3152 18.1475 24.3152 18.8622C24.3152 19.577 23.7506 20.1488 23.0448 20.1488Z" fill="black"/>
</g>
<defs>
<clipPath id="clip0_1389_7996">
<rect width="44.0158" height="20.6324" fill="white" transform="translate(0.954712 0.46875)"/>
</clipPath>
</defs>
</svg>
