<?xml version="1.0" encoding="UTF-8"?>
<svg xmlns="http://www.w3.org/2000/svg" xmlns:xlink="http://www.w3.org/1999/xlink" width="71px" height="35px" viewBox="0 0 71 35" version="1.1">
<defs>
<clipPath id="clip1">
  <path d="M 30.628906 0.746094 L 37 0.746094 L 37 1.398438 L 30.628906 1.398438 Z M 30.628906 0.746094 "/>
</clipPath>
<clipPath id="clip2">
  <path d="M 23 0.746094 L 59 0.746094 L 59 23 L 23 23 Z M 23 0.746094 "/>
</clipPath>
<clipPath id="clip3">
  <path d="M 64.039062 26 L 70.953125 26 L 70.953125 33.570312 L 64.039062 33.570312 Z M 64.039062 26 "/>
</clipPath>
<clipPath id="clip4">
  <path d="M 43 26 L 50 26 L 50 33.570312 L 43 33.570312 Z M 43 26 "/>
</clipPath>
<clipPath id="clip5">
  <path d="M 1.507812 26 L 7.65625 26 L 7.65625 33.570312 L 1.507812 33.570312 Z M 1.507812 26 "/>
</clipPath>
<clipPath id="clip6">
  <path d="M 7.65625 26 L 14.617188 26 L 14.617188 33.570312 L 7.65625 33.570312 Z M 7.65625 26 "/>
</clipPath>
<clipPath id="clip7">
  <path d="M 40.371094 24 L 42.460938 24 L 42.460938 33.570312 L 40.371094 33.570312 Z M 40.371094 24 "/>
</clipPath>
<clipPath id="clip8">
  <path d="M 50.8125 26 L 57 26 L 57 33.570312 L 50.8125 33.570312 Z M 50.8125 26 "/>
</clipPath>
<clipPath id="clip9">
  <path d="M 57 26 L 64 26 L 64 33.570312 L 57 33.570312 Z M 57 26 "/>
</clipPath>
<clipPath id="clip10">
  <path d="M 14 26.601562 L 23.667969 26.601562 L 23.667969 33.570312 L 14 33.570312 Z M 14 26.601562 "/>
</clipPath>
<clipPath id="clip11">
  <path d="M 25.058594 24 L 32.714844 24 L 32.714844 33.570312 L 25.058594 33.570312 Z M 25.058594 24 "/>
</clipPath>
<clipPath id="clip12">
  <path d="M 32.714844 26 L 40 26 L 40 33.570312 L 32.714844 33.570312 Z M 32.714844 26 "/>
</clipPath>
</defs>
<g id="surface1">
<path style=" stroke:none;fill-rule:evenodd;fill:rgb(0%,0%,0%);fill-opacity:1;" d="M 30.269531 15.792969 L 22.289062 16.058594 L 29.863281 16.515625 Z M 30.269531 15.792969 "/>
<path style=" stroke:none;fill-rule:evenodd;fill:rgb(0%,0%,0%);fill-opacity:1;" d="M 29.308594 17.5 L 21.328125 17.765625 L 28.9375 18.21875 Z M 29.308594 17.5 "/>
<path style=" stroke:none;fill-rule:evenodd;fill:rgb(0%,0%,0%);fill-opacity:1;" d="M 28.339844 19.207031 L 20.363281 19.511719 L 27.972656 19.925781 Z M 28.339844 19.207031 "/>
<path style=" stroke:none;fill-rule:evenodd;fill:rgb(0%,0%,0%);fill-opacity:1;" d="M 27.414062 20.949219 L 19.433594 21.214844 L 27.003906 21.667969 Z M 27.414062 20.949219 "/>
<path style=" stroke:none;fill-rule:evenodd;fill:rgb(0%,0%,0%);fill-opacity:1;" d="M 37.214844 7.113281 L 27.003906 7.492188 L 37.25 8.097656 Z M 37.214844 7.113281 "/>
<path style=" stroke:none;fill-rule:evenodd;fill:rgb(0%,0%,0%);fill-opacity:1;" d="M 37.140625 5.445312 L 27.972656 5.75 L 37.175781 6.28125 Z M 37.140625 5.445312 "/>
<path style=" stroke:none;fill-rule:evenodd;fill:rgb(0%,0%,0%);fill-opacity:1;" d="M 37.066406 3.777344 L 28.9375 4.082031 L 37.101562 4.539062 Z M 37.066406 3.777344 "/>
<path style=" stroke:none;fill-rule:evenodd;fill:rgb(0%,0%,0%);fill-opacity:1;" d="M 37.027344 2.109375 L 29.863281 2.339844 L 37.0625 2.792969 Z M 37.027344 2.109375 "/>
<g clip-path="url(#clip1)" clip-rule="nonzero">
<path style=" stroke:none;fill-rule:evenodd;fill:rgb(0%,0%,0%);fill-opacity:1;" d="M 36.988281 0.746094 L 30.753906 0.746094 L 36.988281 1.085938 Z M 36.988281 0.746094 "/>
</g>
<path style=" stroke:none;fill-rule:evenodd;fill:rgb(0%,0%,0%);fill-opacity:1;" d="M 26.449219 22.65625 L 18.46875 22.960938 L 26.300781 22.960938 Z M 26.449219 22.65625 "/>
<g clip-path="url(#clip2)" clip-rule="nonzero">
<path style=" stroke:none;fill-rule:evenodd;fill:rgb(0%,0%,0%);fill-opacity:1;" d="M 53.507812 0.789062 L 42 0.789062 L 41.667969 1.390625 L 47.421875 1.695312 C 47.496094 1.695312 47.496094 1.808594 47.386719 1.808594 L 41.332031 2 L 40.738281 3.058594 L 46.492188 3.402344 C 46.566406 3.402344 46.566406 3.515625 46.492188 3.515625 L 40.40625 3.707031 L 39.847656 4.691406 L 45.566406 5.03125 C 45.675781 5.03125 45.675781 5.144531 45.566406 5.144531 L 39.515625 5.371094 L 38.921875 6.433594 L 44.601562 6.777344 C 44.710938 6.777344 44.710938 6.886719 44.601562 6.886719 L 38.550781 7.113281 L 37.957031 8.140625 L 43.671875 8.480469 C 43.746094 8.480469 43.78125 8.59375 43.636719 8.59375 L 26.152344 9.199219 L 42.742188 10.148438 C 42.855469 10.148438 42.855469 10.300781 42.707031 10.300781 L 25.1875 10.941406 L 41.777344 11.890625 C 41.855469 11.890625 41.890625 12.007812 41.742188 12.007812 L 24.222656 12.648438 L 40.8125 13.597656 C 40.890625 13.597656 40.960938 13.75 40.8125 13.75 L 23.292969 14.394531 L 39.886719 15.339844 C 39.925781 15.339844 39.996094 15.492188 39.847656 15.492188 L 31.050781 15.796875 L 31.089844 16.59375 L 38.921875 17.046875 C 38.996094 17.046875 38.996094 17.160156 38.886719 17.160156 L 31.089844 17.425781 L 31.128906 18.335938 L 37.957031 18.714844 C 38.03125 18.714844 38.066406 18.867188 37.921875 18.867188 L 31.203125 19.09375 L 31.238281 20.078125 L 37.027344 20.421875 C 37.101562 20.421875 37.101562 20.570312 36.988281 20.570312 L 31.238281 20.800781 L 31.273438 21.898438 L 36.0625 22.164062 C 36.136719 22.164062 36.136719 22.277344 36.023438 22.277344 L 31.273438 22.464844 L 31.3125 22.921875 L 46.789062 22.921875 C 50.910156 22.921875 54.585938 19.851562 55.289062 17.425781 C 55.996094 15 55.996094 12.800781 52.691406 11.703125 C 54.546875 11.285156 57.738281 9.164062 58.371094 6.207031 C 58.964844 3.550781 58 0.824219 53.507812 0.789062 Z M 45.710938 17.804688 L 40.960938 17.804688 L 43.636719 12.953125 L 47.160156 12.953125 C 50.835938 12.953125 49.054688 17.804688 45.710938 17.804688 Z M 51.875 7.378906 C 51.726562 7.988281 50.578125 9.464844 49.128906 9.464844 L 45.601562 9.464844 L 47.867188 5.371094 L 49.683594 5.371094 C 51.949219 5.484375 52.023438 6.8125 51.875 7.378906 Z M 51.875 7.378906 "/>
</g>
<g clip-path="url(#clip3)" clip-rule="nonzero">
<path style=" stroke:none;fill-rule:evenodd;fill:rgb(0%,0%,0%);fill-opacity:1;" d="M 70.953125 29.933594 C 70.953125 28.039062 69.429688 26.480469 67.578125 26.480469 C 65.679688 26.480469 64.125 28.074219 64.125 30.046875 C 64.125 32.015625 65.644531 33.570312 67.578125 33.570312 C 68.984375 33.570312 70.324219 32.585938 70.691406 31.257812 L 68.949219 31.257812 C 68.617188 31.828125 68.132812 32.09375 67.539062 32.09375 C 66.757812 32.09375 66.054688 31.523438 65.832031 30.765625 L 70.878906 30.765625 C 70.914062 30.386719 70.953125 30.199219 70.953125 29.933594 Z M 65.757812 29.476562 C 65.980469 28.570312 66.683594 27.960938 67.578125 27.960938 C 68.464844 27.960938 69.171875 28.53125 69.359375 29.476562 Z M 65.757812 29.476562 "/>
</g>
<g clip-path="url(#clip4)" clip-rule="nonzero">
<path style=" stroke:none;fill-rule:evenodd;fill:rgb(0%,0%,0%);fill-opacity:1;" d="M 48.234375 26.824219 L 48.234375 27.355469 C 47.714844 26.785156 47.011719 26.480469 46.230469 26.480469 C 44.523438 26.480469 43.039062 28 43.039062 29.933594 C 43.039062 31.789062 44.339844 33.417969 46.269531 33.417969 C 47.125 33.417969 47.753906 33.230469 48.386719 32.507812 L 48.386719 33.382812 L 49.832031 33.382812 L 49.832031 26.824219 Z M 46.453125 32.054688 C 45.34375 32.054688 44.449219 31.144531 44.449219 30.007812 C 44.449219 28.871094 45.34375 27.960938 46.453125 27.960938 C 47.570312 27.960938 48.460938 28.871094 48.460938 30.007812 C 48.460938 31.144531 47.570312 32.054688 46.453125 32.054688 Z M 46.453125 32.054688 "/>
</g>
<g clip-path="url(#clip5)" clip-rule="nonzero">
<path style=" stroke:none;fill-rule:evenodd;fill:rgb(0%,0%,0%);fill-opacity:1;" d="M 4.699219 26.480469 C 4.03125 26.480469 3.546875 26.710938 2.992188 27.277344 L 2.992188 26.636719 L 1.507812 26.636719 L 1.507812 33.417969 L 3.101562 33.417969 L 3.101562 30.238281 C 3.101562 29.363281 3.175781 28 4.363281 28 C 5.480469 28 5.589844 29.289062 5.589844 30.121094 L 5.589844 33.417969 L 7.1875 33.417969 L 7.1875 29.78125 C 7.1875 28.832031 7.109375 28.378906 6.851562 27.847656 C 6.480469 27.011719 5.589844 26.480469 4.699219 26.480469 Z M 4.699219 26.480469 "/>
</g>
<g clip-path="url(#clip6)" clip-rule="nonzero">
<path style=" stroke:none;fill-rule:evenodd;fill:rgb(0%,0%,0%);fill-opacity:1;" d="M 14.570312 29.933594 C 14.570312 28.039062 13.046875 26.480469 11.195312 26.480469 C 9.300781 26.480469 7.742188 28.074219 7.742188 30.046875 C 7.742188 32.015625 9.265625 33.570312 11.195312 33.570312 C 12.601562 33.570312 13.941406 32.585938 14.308594 31.257812 L 12.566406 31.257812 C 12.234375 31.828125 11.75 32.09375 11.15625 32.09375 C 10.375 32.09375 9.671875 31.523438 9.449219 30.765625 L 14.496094 30.765625 C 14.570312 30.386719 14.570312 30.199219 14.570312 29.933594 Z M 9.410156 29.476562 C 9.632812 28.570312 10.339844 27.960938 11.230469 27.960938 C 12.121094 27.960938 12.824219 28.53125 13.011719 29.476562 Z M 9.410156 29.476562 "/>
</g>
<g clip-path="url(#clip7)" clip-rule="nonzero">
<path style=" stroke:none;fill-rule:evenodd;fill:rgb(0%,0%,0%);fill-opacity:1;" d="M 40.8125 33.417969 L 42.375 33.417969 L 42.375 24.359375 L 40.8125 24.359375 Z M 40.8125 33.417969 "/>
</g>
<g clip-path="url(#clip8)" clip-rule="nonzero">
<path style=" stroke:none;fill-rule:evenodd;fill:rgb(0%,0%,0%);fill-opacity:1;" d="M 54.027344 26.480469 C 53.363281 26.480469 52.878906 26.710938 52.320312 27.277344 L 52.320312 26.636719 L 50.835938 26.636719 L 50.835938 33.417969 L 52.429688 33.417969 L 52.429688 30.238281 C 52.429688 29.363281 52.507812 28 53.691406 28 C 54.808594 28 54.917969 29.289062 54.917969 30.121094 L 54.917969 33.417969 L 56.515625 33.417969 L 56.515625 29.78125 C 56.515625 28.832031 56.441406 28.378906 56.179688 27.847656 C 55.8125 27.011719 54.957031 26.480469 54.027344 26.480469 Z M 54.027344 26.480469 "/>
</g>
<g clip-path="url(#clip9)" clip-rule="nonzero">
<path style=" stroke:none;fill-rule:evenodd;fill:rgb(0%,0%,0%);fill-opacity:1;" d="M 60.484375 27.960938 C 61.226562 27.960938 61.636719 28.1875 62.046875 28.90625 L 63.828125 28.90625 C 63.34375 27.46875 62.082031 26.480469 60.5625 26.480469 C 58.632812 26.480469 57.070312 28.074219 57.070312 30.007812 C 57.070312 31.980469 58.632812 33.570312 60.5625 33.570312 C 61.527344 33.570312 62.527344 33.117188 63.160156 32.398438 C 63.492188 32.015625 63.605469 31.789062 63.828125 31.183594 L 62.046875 31.183594 C 61.671875 31.75 61.191406 32.09375 60.597656 32.09375 C 59.484375 32.09375 58.667969 31.222656 58.667969 30.046875 C 58.632812 28.832031 59.445312 27.960938 60.484375 27.960938 Z M 60.484375 27.960938 "/>
</g>
<g clip-path="url(#clip10)" clip-rule="nonzero">
<path style=" stroke:none;fill-rule:evenodd;fill:rgb(0%,0%,0%);fill-opacity:1;" d="M 20.660156 30.765625 L 19.542969 26.636719 L 18.28125 26.636719 L 17.132812 30.765625 L 15.796875 26.636719 L 14.386719 26.636719 L 16.574219 33.417969 L 17.617188 33.417969 L 18.914062 29.023438 L 20.175781 33.417969 L 21.21875 33.417969 L 23.367188 26.636719 L 22.03125 26.636719 Z M 20.660156 30.765625 "/>
</g>
<g clip-path="url(#clip11)" clip-rule="nonzero">
<path style=" stroke:none;fill-rule:evenodd;fill:rgb(0%,0%,0%);fill-opacity:1;" d="M 29.195312 26.480469 C 28.417969 26.480469 27.675781 26.785156 27.191406 27.355469 L 27.191406 24.359375 L 25.597656 24.359375 L 25.597656 33.382812 L 27.042969 33.382812 L 27.042969 32.507812 C 27.636719 33.230469 28.304688 33.417969 29.160156 33.417969 C 31.089844 33.417969 32.390625 31.75 32.390625 29.933594 C 32.390625 28 30.941406 26.480469 29.195312 26.480469 Z M 28.972656 32.054688 C 27.859375 32.054688 26.96875 31.144531 26.96875 30.007812 C 26.96875 28.871094 27.859375 27.960938 28.972656 27.960938 C 30.085938 27.960938 30.976562 28.871094 30.976562 30.007812 C 30.976562 31.144531 30.085938 32.054688 28.972656 32.054688 Z M 28.972656 32.054688 "/>
</g>
<g clip-path="url(#clip12)" clip-rule="nonzero">
<path style=" stroke:none;fill-rule:evenodd;fill:rgb(0%,0%,0%);fill-opacity:1;" d="M 38.140625 26.824219 L 38.140625 27.355469 C 37.621094 26.785156 36.917969 26.480469 36.136719 26.480469 C 34.429688 26.480469 32.945312 28 32.945312 29.933594 C 32.945312 31.789062 34.242188 33.417969 36.175781 33.417969 C 37.027344 33.417969 37.660156 33.230469 38.289062 32.507812 L 38.289062 33.382812 L 39.734375 33.382812 L 39.734375 26.824219 Z M 36.359375 32.054688 C 35.246094 32.054688 34.355469 31.144531 34.355469 30.007812 C 34.355469 28.871094 35.246094 27.960938 36.359375 27.960938 C 37.472656 27.960938 38.363281 28.871094 38.363281 30.007812 C 38.363281 31.144531 37.472656 32.054688 36.359375 32.054688 Z M 36.359375 32.054688 "/>
</g>
</g>
</svg>
