<svg width="78" height="91" viewBox="0 0 78 91" fill="none" xmlns="http://www.w3.org/2000/svg">
<path d="M1.49781 87.0654C1.41511 87.0654 1.34481 87.0365 1.28691 86.9786C1.22902 86.9207 1.20007 86.8504 1.20007 86.7677V78.6915C1.20007 78.6005 1.22902 78.5261 1.28691 78.4682C1.34481 78.4103 1.41511 78.3814 1.49781 78.3814H2.45306C2.56885 78.3814 2.65155 78.4103 2.70117 78.4682C2.75907 78.5178 2.79629 78.5551 2.81283 78.5799L6.38569 84.1377V78.6915C6.38569 78.6005 6.41051 78.5261 6.46013 78.4682C6.51802 78.4103 6.59246 78.3814 6.68343 78.3814H7.72552C7.8165 78.3814 7.89093 78.4103 7.94882 78.4682C8.00672 78.5261 8.03566 78.6005 8.03566 78.6915V86.7553C8.03566 86.8463 8.00672 86.9207 7.94882 86.9786C7.89093 87.0365 7.82063 87.0654 7.73793 87.0654H6.77027C6.65449 87.0654 6.57178 87.0365 6.52216 86.9786C6.47253 86.9207 6.43532 86.8835 6.41051 86.8669L2.85004 81.4332V86.7677C2.85004 86.8504 2.8211 86.9207 2.7632 86.9786C2.70531 87.0365 2.63087 87.0654 2.5399 87.0654H1.49781ZM12.6014 87.1895C11.6834 87.1895 10.9555 86.9248 10.418 86.3955C9.88038 85.8662 9.59091 85.1136 9.54956 84.1377C9.54129 84.055 9.53715 83.9516 9.53715 83.8275C9.53715 83.6952 9.54129 83.5918 9.54956 83.5174C9.58264 82.8888 9.72324 82.3512 9.97135 81.9046C10.2277 81.4497 10.5792 81.1024 11.0258 80.8625C11.4725 80.6144 11.9976 80.4904 12.6014 80.4904C13.2713 80.4904 13.8337 80.631 14.2886 80.9122C14.7434 81.1851 15.0867 81.5697 15.3183 82.0659C15.5498 82.5539 15.6656 83.1204 15.6656 83.7655V84.026C15.6656 84.1087 15.6367 84.179 15.5788 84.2369C15.5209 84.2948 15.4464 84.3237 15.3555 84.3237H11.2367C11.2367 84.3237 11.2367 84.3362 11.2367 84.361C11.2367 84.3858 11.2367 84.4065 11.2367 84.423C11.245 84.7125 11.2988 84.9813 11.398 85.2294C11.5055 85.4692 11.6585 85.6636 11.857 85.8124C12.0638 85.9613 12.3078 86.0357 12.589 86.0357C12.8206 86.0357 13.0149 86.0027 13.172 85.9365C13.3292 85.8621 13.4574 85.7794 13.5566 85.6884C13.6559 85.5974 13.7262 85.523 13.7675 85.4651C13.842 85.3658 13.8999 85.3079 13.9412 85.2914C13.9908 85.2666 14.0611 85.2542 14.1521 85.2542H15.219C15.3017 85.2542 15.3679 85.279 15.4175 85.3286C15.4754 85.3782 15.5002 85.4403 15.4919 85.5147C15.4837 85.647 15.4134 85.8083 15.281 85.9985C15.157 86.1888 14.975 86.3748 14.7352 86.5568C14.4953 86.7387 14.1935 86.8917 13.8296 87.0158C13.4739 87.1316 13.0645 87.1895 12.6014 87.1895ZM11.2367 83.2817H13.9784V83.2444C13.9784 82.9219 13.9247 82.6407 13.8171 82.4009C13.7096 82.1527 13.5525 81.9625 13.3457 81.8302C13.139 81.6896 12.8909 81.6193 12.6014 81.6193C12.3119 81.6193 12.0638 81.6896 11.857 81.8302C11.6503 81.9625 11.4931 82.1527 11.3856 82.4009C11.2864 82.6407 11.2367 82.9219 11.2367 83.2444V83.2817ZM18.5624 87.0654C18.4466 87.0654 18.3597 87.0365 18.3018 86.9786C18.2439 86.9207 18.1943 86.8463 18.153 86.7553L16.3789 80.999C16.3707 80.9576 16.3665 80.9204 16.3665 80.8873C16.3665 80.8129 16.3914 80.7509 16.441 80.7013C16.4989 80.6434 16.5609 80.6144 16.6271 80.6144H17.5451C17.6443 80.6144 17.7229 80.6434 17.7808 80.7013C17.8387 80.7509 17.8718 80.8005 17.88 80.8501L19.0958 84.9564L20.386 80.8873C20.4026 80.8295 20.4398 80.7716 20.4977 80.7137C20.5556 80.6475 20.6424 80.6144 20.7582 80.6144H21.3785C21.4943 80.6144 21.5811 80.6475 21.639 80.7137C21.6969 80.7716 21.7341 80.8295 21.7507 80.8873L23.0409 84.9564L24.2566 80.8501C24.2649 80.8005 24.2938 80.7509 24.3435 80.7013C24.4014 80.6434 24.4799 80.6144 24.5792 80.6144H25.4972C25.5716 80.6144 25.6337 80.6434 25.6833 80.7013C25.7412 80.7509 25.7701 80.8129 25.7701 80.8873C25.7701 80.9204 25.7619 80.9576 25.7453 80.999L23.9713 86.7553C23.9465 86.8463 23.901 86.9207 23.8348 86.9786C23.7769 87.0365 23.6901 87.0654 23.5743 87.0654H22.7679C22.6604 87.0654 22.5694 87.0365 22.495 86.9786C22.4288 86.9207 22.3833 86.8463 22.3585 86.7553L21.0683 82.8351L19.7781 86.7553C19.7451 86.8463 19.6954 86.9207 19.6293 86.9786C19.5714 87.0365 19.4804 87.0654 19.3563 87.0654H18.5624ZM29.9802 87.0654C29.8975 87.0654 29.8272 87.0365 29.7693 86.9786C29.7115 86.9207 29.6825 86.8504 29.6825 86.7677V78.6915C29.6825 78.6005 29.7115 78.5261 29.7693 78.4682C29.8272 78.4103 29.8975 78.3814 29.9802 78.3814H33.5779C34.2478 78.3814 34.7937 78.4848 35.2155 78.6915C35.6373 78.89 35.9474 79.1671 36.1459 79.5227C36.3527 79.8783 36.4561 80.2919 36.4561 80.7633C36.4561 81.0776 36.3982 81.3546 36.2824 81.5945C36.1749 81.8261 36.0384 82.0163 35.873 82.1651C35.7159 82.314 35.5587 82.4298 35.4016 82.5125C35.7241 82.6614 36.0095 82.9095 36.2576 83.2569C36.5057 83.6042 36.6297 84.0177 36.6297 84.4974C36.6297 84.9937 36.5181 85.4361 36.2948 85.8249C36.0715 86.2136 35.7407 86.5196 35.3023 86.7429C34.864 86.9579 34.3223 87.0654 33.6772 87.0654H29.9802ZM31.4069 85.7504H33.4787C33.9253 85.7504 34.2644 85.6305 34.496 85.3906C34.7275 85.1425 34.8433 84.8448 34.8433 84.4974C34.8433 84.1335 34.7234 83.8317 34.4835 83.5918C34.252 83.352 33.917 83.232 33.4787 83.232H31.4069V85.7504ZM31.4069 81.9418H33.3546C33.793 81.9418 34.1196 81.8385 34.3347 81.6317C34.558 81.4167 34.6696 81.1396 34.6696 80.8005C34.6696 80.4531 34.558 80.1802 34.3347 79.9817C34.1196 79.7832 33.793 79.684 33.3546 79.684H31.4069V81.9418ZM39.9117 87.1895C39.4816 87.1895 39.0929 87.1068 38.7455 86.9414C38.3982 86.7677 38.1211 86.5403 37.9143 86.2591C37.7158 85.9696 37.6166 85.647 37.6166 85.2914C37.6166 84.7125 37.8523 84.2535 38.3237 83.9144C38.7951 83.567 39.4113 83.3354 40.1722 83.2196L41.8718 82.9715V82.711C41.8718 82.3636 41.7849 82.0948 41.6113 81.9046C41.4376 81.7144 41.1398 81.6193 40.718 81.6193C40.4203 81.6193 40.1763 81.6813 39.9861 81.8054C39.8041 81.9212 39.6677 82.0783 39.5767 82.2768C39.5105 82.3843 39.4154 82.4381 39.2914 82.4381H38.3113C38.2203 82.4381 38.15 82.4133 38.1004 82.3636C38.0591 82.314 38.0384 82.2478 38.0384 82.1651C38.0467 82.0328 38.1004 81.8715 38.1997 81.6813C38.3072 81.4911 38.4643 81.3091 38.6711 81.1355C38.8861 80.9535 39.1632 80.8005 39.5023 80.6764C39.8414 80.5524 40.2508 80.4904 40.7304 80.4904C41.2515 80.4904 41.6898 80.5565 42.0455 80.6889C42.4094 80.8129 42.6988 80.9825 42.9139 81.1975C43.1289 81.4125 43.286 81.6648 43.3853 81.9542C43.4845 82.2437 43.5342 82.5497 43.5342 82.8723V86.7677C43.5342 86.8504 43.5052 86.9207 43.4473 86.9786C43.3894 87.0365 43.3191 87.0654 43.2364 87.0654H42.2315C42.1406 87.0654 42.0661 87.0365 42.0082 86.9786C41.9586 86.9207 41.9338 86.8504 41.9338 86.7677V86.2839C41.8263 86.4327 41.6816 86.5775 41.4996 86.7181C41.3177 86.8587 41.0944 86.9745 40.8297 87.0654C40.5733 87.1481 40.2673 87.1895 39.9117 87.1895ZM40.3335 86.0109C40.6229 86.0109 40.8835 85.9489 41.115 85.8249C41.3549 85.7008 41.541 85.5106 41.6733 85.2542C41.8139 84.9895 41.8842 84.6587 41.8842 84.2617V84.0012L40.6436 84.1997C40.1556 84.2741 39.7917 84.394 39.5519 84.5595C39.3121 84.7249 39.1921 84.9275 39.1921 85.1673C39.1921 85.3493 39.2459 85.5064 39.3534 85.6388C39.4692 85.7628 39.6139 85.8579 39.7876 85.9241C39.9613 85.982 40.1432 86.0109 40.3335 86.0109ZM45.4358 87.0654C45.3531 87.0654 45.2828 87.0365 45.2249 86.9786C45.167 86.9207 45.1381 86.8504 45.1381 86.7677V78.5551C45.1381 78.4724 45.167 78.4021 45.2249 78.3442C45.2828 78.2863 45.3531 78.2573 45.4358 78.2573H46.4655C46.5482 78.2573 46.6185 78.2863 46.6764 78.3442C46.7343 78.4021 46.7632 78.4724 46.7632 78.5551V86.7677C46.7632 86.8504 46.7343 86.9207 46.6764 86.9786C46.6185 87.0365 46.5482 87.0654 46.4655 87.0654H45.4358ZM50.2821 87.1895C49.8521 87.1895 49.4633 87.1068 49.116 86.9414C48.7686 86.7677 48.4916 86.5403 48.2848 86.2591C48.0863 85.9696 47.9871 85.647 47.9871 85.2914C47.9871 84.7125 48.2228 84.2535 48.6942 83.9144C49.1656 83.567 49.7818 83.3354 50.5427 83.2196L52.2422 82.9715V82.711C52.2422 82.3636 52.1554 82.0948 51.9817 81.9046C51.808 81.7144 51.5103 81.6193 51.0885 81.6193C50.7908 81.6193 50.5468 81.6813 50.3566 81.8054C50.1746 81.9212 50.0381 82.0783 49.9472 82.2768C49.881 82.3843 49.7859 82.4381 49.6618 82.4381H48.6818C48.5908 82.4381 48.5205 82.4133 48.4709 82.3636C48.4295 82.314 48.4089 82.2478 48.4089 82.1651C48.4171 82.0328 48.4709 81.8715 48.5701 81.6813C48.6776 81.4911 48.8348 81.3091 49.0416 81.1355C49.2566 80.9535 49.5336 80.8005 49.8727 80.6764C50.2118 80.5524 50.6212 80.4904 51.1009 80.4904C51.622 80.4904 52.0603 80.5565 52.4159 80.6889C52.7798 80.8129 53.0693 80.9825 53.2843 81.1975C53.4994 81.4125 53.6565 81.6648 53.7558 81.9542C53.855 82.2437 53.9046 82.5497 53.9046 82.8723V86.7677C53.9046 86.8504 53.8757 86.9207 53.8178 86.9786C53.7599 87.0365 53.6896 87.0654 53.6069 87.0654H52.602C52.511 87.0654 52.4366 87.0365 52.3787 86.9786C52.3291 86.9207 52.3043 86.8504 52.3043 86.7677V86.2839C52.1968 86.4327 52.052 86.5775 51.8701 86.7181C51.6881 86.8587 51.4648 86.9745 51.2002 87.0654C50.9438 87.1481 50.6378 87.1895 50.2821 87.1895ZM50.7039 86.0109C50.9934 86.0109 51.2539 85.9489 51.4855 85.8249C51.7253 85.7008 51.9114 85.5106 52.0438 85.2542C52.1844 84.9895 52.2547 84.6587 52.2547 84.2617V84.0012L51.0141 84.1997C50.5261 84.2741 50.1622 84.394 49.9224 84.5595C49.6825 84.7249 49.5626 84.9275 49.5626 85.1673C49.5626 85.3493 49.6164 85.5064 49.7239 85.6388C49.8397 85.7628 49.9844 85.8579 50.1581 85.9241C50.3318 85.982 50.5137 86.0109 50.7039 86.0109ZM55.7939 87.0654C55.7112 87.0654 55.6409 87.0365 55.583 86.9786C55.5251 86.9207 55.4961 86.8504 55.4961 86.7677V80.9122C55.4961 80.8295 55.5251 80.7592 55.583 80.7013C55.6409 80.6434 55.7112 80.6144 55.7939 80.6144H56.8112C56.8939 80.6144 56.9642 80.6434 57.0221 80.7013C57.08 80.7592 57.1089 80.8295 57.1089 80.9122V81.4208C57.3239 81.1561 57.5969 80.937 57.9277 80.7633C58.2668 80.5813 58.6844 80.4904 59.1807 80.4904C59.6852 80.4904 60.1235 80.6061 60.4957 80.8377C60.8679 81.061 61.1532 81.3794 61.3517 81.793C61.5584 82.2065 61.6618 82.7027 61.6618 83.2817V86.7677C61.6618 86.8504 61.6329 86.9207 61.575 86.9786C61.5171 87.0365 61.4468 87.0654 61.3641 87.0654H60.2724C60.1897 87.0654 60.1194 87.0365 60.0615 86.9786C60.0036 86.9207 59.9746 86.8504 59.9746 86.7677V83.3561C59.9746 82.8764 59.8547 82.5001 59.6149 82.2272C59.3833 81.9542 59.0442 81.8178 58.5976 81.8178C58.1675 81.8178 57.8243 81.9542 57.5679 82.2272C57.3115 82.5001 57.1833 82.8764 57.1833 83.3561V86.7677C57.1833 86.8504 57.1544 86.9207 57.0965 86.9786C57.0386 87.0365 56.9683 87.0654 56.8856 87.0654H55.7939ZM66.029 87.1895C65.4335 87.1895 64.9083 87.0778 64.4534 86.8545C64.0068 86.6312 63.6553 86.3087 63.3989 85.8869C63.1508 85.4568 63.0143 84.9399 62.9895 84.3362C62.9813 84.2121 62.9771 84.0508 62.9771 83.8523C62.9771 83.6456 62.9813 83.476 62.9895 83.3437C63.0143 82.7399 63.1508 82.2272 63.3989 81.8054C63.6553 81.3753 64.0068 81.0486 64.4534 80.8253C64.9083 80.602 65.4335 80.4904 66.029 80.4904C66.5583 80.4904 67.009 80.5648 67.3812 80.7137C67.7534 80.8543 68.0594 81.0404 68.2992 81.2719C68.5391 81.4952 68.7169 81.7309 68.8327 81.9791C68.9567 82.2189 69.0229 82.4381 69.0312 82.6366C69.0394 82.7275 69.0105 82.802 68.9443 82.8599C68.8864 82.9095 68.8161 82.9343 68.7334 82.9343H67.6417C67.559 82.9343 67.4928 82.9136 67.4432 82.8723C67.4019 82.8309 67.3605 82.7689 67.3192 82.6862C67.1951 82.3554 67.0297 82.1238 66.8229 81.9915C66.6244 81.8509 66.368 81.7806 66.0538 81.7806C65.6402 81.7806 65.3094 81.9129 65.0613 82.1775C64.8215 82.4339 64.6933 82.8433 64.6767 83.4057C64.6602 83.72 64.6602 84.0095 64.6767 84.2741C64.6933 84.8448 64.8215 85.2583 65.0613 85.5147C65.3094 85.7711 65.6402 85.8993 66.0538 85.8993C66.3763 85.8993 66.6368 85.8331 66.8353 85.7008C67.0338 85.5602 67.1951 85.3245 67.3192 84.9937C67.3605 84.911 67.4019 84.8489 67.4432 84.8076C67.4928 84.7662 67.559 84.7455 67.6417 84.7455H68.7334C68.8161 84.7455 68.8864 84.7745 68.9443 84.8324C69.0105 84.882 69.0394 84.9523 69.0312 85.0433C69.0229 85.1922 68.9815 85.3617 68.9071 85.5519C68.8409 85.7339 68.7293 85.9241 68.5721 86.1226C68.4233 86.3128 68.233 86.4906 68.0015 86.656C67.7699 86.8132 67.4887 86.9414 67.1579 87.0406C66.8353 87.1399 66.459 87.1895 66.029 87.1895ZM73.1038 87.1895C72.1858 87.1895 71.458 86.9248 70.9204 86.3955C70.3828 85.8662 70.0934 85.1136 70.052 84.1377C70.0437 84.055 70.0396 83.9516 70.0396 83.8275C70.0396 83.6952 70.0437 83.5918 70.052 83.5174C70.0851 82.8888 70.2257 82.3512 70.4738 81.9046C70.7302 81.4497 71.0817 81.1024 71.5283 80.8625C71.9749 80.6144 72.5001 80.4904 73.1038 80.4904C73.7737 80.4904 74.3361 80.631 74.791 80.9122C75.2459 81.1851 75.5891 81.5697 75.8207 82.0659C76.0523 82.5539 76.1681 83.1204 76.1681 83.7655V84.026C76.1681 84.1087 76.1391 84.179 76.0812 84.2369C76.0233 84.2948 75.9489 84.3237 75.8579 84.3237H71.7392C71.7392 84.3237 71.7392 84.3362 71.7392 84.361C71.7392 84.3858 71.7392 84.4065 71.7392 84.423C71.7475 84.7125 71.8012 84.9813 71.9005 85.2294C72.008 85.4692 72.161 85.6636 72.3595 85.8124C72.5663 85.9613 72.8102 86.0357 73.0914 86.0357C73.323 86.0357 73.5174 86.0027 73.6745 85.9365C73.8316 85.8621 73.9598 85.7794 74.0591 85.6884C74.1583 85.5974 74.2286 85.523 74.27 85.4651C74.3444 85.3658 74.4023 85.3079 74.4437 85.2914C74.4933 85.2666 74.5636 85.2542 74.6546 85.2542H75.7215C75.8042 85.2542 75.8703 85.279 75.92 85.3286C75.9778 85.3782 76.0027 85.4403 75.9944 85.5147C75.9861 85.647 75.9158 85.8083 75.7835 85.9985C75.6594 86.1888 75.4775 86.3748 75.2376 86.5568C74.9978 86.7387 74.6959 86.8917 74.332 87.0158C73.9764 87.1316 73.567 87.1895 73.1038 87.1895ZM71.7392 83.2817H74.4809V83.2444C74.4809 82.9219 74.4271 82.6407 74.3196 82.4009C74.2121 82.1527 74.0549 81.9625 73.8482 81.8302C73.6414 81.6896 73.3933 81.6193 73.1038 81.6193C72.8144 81.6193 72.5663 81.6896 72.3595 81.8302C72.1527 81.9625 71.9956 82.1527 71.8881 82.4009C71.7888 82.6407 71.7392 82.9219 71.7392 83.2444V83.2817Z" fill="black"/>
<circle cx="39.0007" cy="34.7468" r="33.7282" stroke="black" stroke-width="0.775362"/>
<g clip-path="url(#clip0_2226_9998)">
<path fill-rule="evenodd" clip-rule="evenodd" d="M34.8578 34.1836L29.769 34.3514L34.5974 34.639L34.8578 34.1836Z" fill="black"/>
<path fill-rule="evenodd" clip-rule="evenodd" d="M34.2426 35.2617L29.1538 35.4295L34.0059 35.7172L34.2426 35.2617Z" fill="black"/>
<path fill-rule="evenodd" clip-rule="evenodd" d="M33.6268 36.3408L28.5381 36.5326L33.3902 36.7963L33.6268 36.3408Z" fill="black"/>
<path fill-rule="evenodd" clip-rule="evenodd" d="M33.0355 37.4434L27.9468 37.6112L32.7752 37.8988L33.0355 37.4434Z" fill="black"/>
<path fill-rule="evenodd" clip-rule="evenodd" d="M39.2843 28.6943L32.7754 28.934L39.3079 29.3176L39.2843 28.6943Z" fill="black"/>
<path fill-rule="evenodd" clip-rule="evenodd" d="M39.2368 27.6396L33.3906 27.8314L39.2604 28.167L39.2368 27.6396Z" fill="black"/>
<path fill-rule="evenodd" clip-rule="evenodd" d="M39.1893 26.585L34.0059 26.7767L39.213 27.0644L39.1893 26.585Z" fill="black"/>
<path fill-rule="evenodd" clip-rule="evenodd" d="M39.1652 25.5303L34.5972 25.6741L39.1889 25.9617L39.1652 25.5303Z" fill="black"/>
<path fill-rule="evenodd" clip-rule="evenodd" d="M39.1423 24.667H35.166L39.1423 24.8827V24.667Z" fill="black"/>
<path fill-rule="evenodd" clip-rule="evenodd" d="M32.4203 38.5215L27.3315 38.7132H32.3256L32.4203 38.5215Z" fill="black"/>
<path fill-rule="evenodd" clip-rule="evenodd" d="M49.674 24.6914H42.3367L42.1237 25.0749L45.7923 25.2667C45.8396 25.2667 45.8396 25.3386 45.7686 25.3386L41.9107 25.4584L41.532 26.1296L45.2006 26.3453C45.2479 26.3453 45.2479 26.4173 45.2006 26.4173L41.3189 26.5371L40.9639 27.1603L44.6089 27.3761C44.6799 27.3761 44.6799 27.448 44.6089 27.448L40.7509 27.5918L40.3722 28.263L43.9935 28.4787C44.0645 28.4787 44.0645 28.5506 43.9935 28.5506L40.1355 28.6944L39.7568 29.3416L43.4018 29.5573C43.4491 29.5573 43.4728 29.6292 43.3781 29.6292L32.2302 30.0128L42.8101 30.612C42.8811 30.612 42.8811 30.7079 42.7864 30.7079L31.6148 31.1154L42.1947 31.7146C42.242 31.7146 42.2657 31.7866 42.171 31.7866L30.9994 32.194L41.5793 32.7933C41.6266 32.7933 41.674 32.8892 41.5793 32.8892L30.4077 33.2967L40.9876 33.8959C41.0113 33.8959 41.0586 33.9918 40.9639 33.9918L35.3545 34.1836L35.3781 34.6869L40.3722 34.9746C40.4195 34.9746 40.4195 35.0465 40.3485 35.0465L35.3781 35.2143L35.4018 35.7896L39.7568 36.0293C39.8042 36.0293 39.8278 36.1251 39.7331 36.1251L35.4491 36.269L35.4728 36.8922L39.1651 37.1079C39.2124 37.1079 39.2124 37.2038 39.1414 37.2038L35.4728 37.3476L35.4965 38.0428L38.5497 38.2105C38.5971 38.2105 38.5971 38.2825 38.526 38.2825L35.4965 38.4023L35.5201 38.6899H45.3899C48.0172 38.6899 50.3604 36.7484 50.8101 35.2143C51.2598 33.6802 51.2598 32.2899 49.1533 31.5948C50.3367 31.3311 52.3722 29.9888 52.7745 28.1191C53.1532 26.4412 52.5379 24.7154 49.674 24.6914ZM44.7036 35.454H41.674L43.3781 32.3858H45.6266C47.9698 32.3858 46.8337 35.454 44.7036 35.454ZM48.6325 28.8622C48.5379 29.2457 47.8041 30.1806 46.8811 30.1806H44.6325L46.0763 27.5918H47.2361C48.6799 27.6637 48.7272 28.5027 48.6325 28.8622Z" fill="black"/>
<path fill-rule="evenodd" clip-rule="evenodd" d="M60.7984 43.1237C60.7984 41.9252 59.828 40.9424 58.6445 40.9424C57.4374 40.9424 56.4434 41.9491 56.4434 43.1956C56.4434 44.442 57.4138 45.4248 58.6445 45.4248C59.5439 45.4248 60.396 44.8016 60.6327 43.9626H59.5203C59.3073 44.3222 58.9996 44.49 58.6209 44.49C58.1238 44.49 57.6741 44.1304 57.5321 43.651H60.751C60.7747 43.4113 60.7984 43.2915 60.7984 43.1237ZM57.4848 42.836C57.6268 42.2607 58.0765 41.8772 58.6445 41.8772C59.2126 41.8772 59.6623 42.2368 59.7806 42.836H57.4848Z" fill="black"/>
<path fill-rule="evenodd" clip-rule="evenodd" d="M46.3131 41.1581V41.4937C45.9818 41.1341 45.5321 40.9424 45.035 40.9424C43.9463 40.9424 42.9995 41.9012 42.9995 43.1237C42.9995 44.2982 43.8279 45.3289 45.0587 45.3289C45.6031 45.3289 46.0054 45.2091 46.4078 44.7536V45.3049H47.3309V41.1581H46.3131ZM45.177 44.466C44.467 44.466 43.8989 43.8907 43.8989 43.1716C43.8989 42.4525 44.467 41.8772 45.177 41.8772C45.8871 41.8772 46.4551 42.4525 46.4551 43.1716C46.4551 43.8907 45.8871 44.466 45.177 44.466Z" fill="black"/>
<path fill-rule="evenodd" clip-rule="evenodd" d="M18.5501 40.9424C18.1241 40.9424 17.8164 41.0862 17.4614 41.4458V41.0383H16.5146V45.3289H17.5324V43.3154C17.5324 42.7641 17.5797 41.9012 18.3371 41.9012C19.0472 41.9012 19.1182 42.7162 19.1182 43.2435V45.3289H20.1359V43.0278C20.1359 42.4285 20.0886 42.1409 19.9229 41.8053C19.6862 41.278 19.1182 40.9424 18.5501 40.9424Z" fill="black"/>
<path fill-rule="evenodd" clip-rule="evenodd" d="M24.8462 43.1237C24.8462 41.9252 23.8758 40.9424 22.6924 40.9424C21.4853 40.9424 20.4912 41.9491 20.4912 43.1956C20.4912 44.442 21.4616 45.4248 22.6924 45.4248C23.5918 45.4248 24.4439 44.8016 24.6806 43.9626H23.5681C23.3551 44.3222 23.0474 44.49 22.6687 44.49C22.1717 44.49 21.722 44.1304 21.58 43.651H24.7989C24.8462 43.4113 24.8462 43.2915 24.8462 43.1237ZM21.5563 42.836C21.6983 42.2607 22.148 41.8772 22.7161 41.8772C23.2841 41.8772 23.7338 42.2368 23.8522 42.836H21.5563Z" fill="black"/>
<path fill-rule="evenodd" clip-rule="evenodd" d="M41.5791 45.3294H42.5732V39.6006H41.5791V45.3294Z" fill="black"/>
<path fill-rule="evenodd" clip-rule="evenodd" d="M50.0062 40.9424C49.5802 40.9424 49.2725 41.0862 48.9174 41.4458V41.0383H47.9707V45.3289H48.9885V43.3154C48.9885 42.7641 49.0358 41.9012 49.7932 41.9012C50.5032 41.9012 50.5742 42.7162 50.5742 43.2435V45.3289H51.592V43.0278C51.592 42.4285 51.5447 42.1409 51.379 41.8053C51.1423 41.278 50.5979 40.9424 50.0062 40.9424Z" fill="black"/>
<path fill-rule="evenodd" clip-rule="evenodd" d="M54.1243 41.8772C54.5977 41.8772 54.858 42.021 55.1184 42.4765H56.2545C55.9468 41.5656 55.142 40.9424 54.1716 40.9424C52.9409 40.9424 51.9468 41.9491 51.9468 43.1716C51.9468 44.418 52.9409 45.4248 54.1716 45.4248C54.787 45.4248 55.4261 45.1372 55.8284 44.6817C56.0414 44.442 56.1125 44.2982 56.2545 43.9147H55.1184C54.8817 44.2742 54.574 44.49 54.1953 44.49C53.4852 44.49 52.9645 43.9386 52.9645 43.1956C52.9409 42.4285 53.4616 41.8772 54.1243 41.8772Z" fill="black"/>
<path fill-rule="evenodd" clip-rule="evenodd" d="M28.7285 43.6518L28.0185 41.0391H27.2137L26.48 43.6518L25.6279 41.0391H24.7285L26.125 45.3297H26.7877L27.6161 42.5492L28.4208 45.3297H29.0835L30.4563 41.0391H29.6042L28.7285 43.6518Z" fill="black"/>
<path fill-rule="evenodd" clip-rule="evenodd" d="M34.1713 40.9429C33.6743 40.9429 33.2009 41.1347 32.8932 41.4942V39.6006H31.8755V45.3055H32.7986V44.7542C33.1773 45.2096 33.6033 45.3294 34.1477 45.3294C35.3784 45.3294 36.2068 44.2748 36.2068 43.1242C36.2068 41.9017 35.2838 40.9429 34.1713 40.9429ZM34.0293 44.4665C33.3193 44.4665 32.7512 43.8912 32.7512 43.1721C32.7512 42.453 33.3193 41.8777 34.0293 41.8777C34.7394 41.8777 35.3074 42.453 35.3074 43.1721C35.3074 43.8912 34.7394 44.4665 34.0293 44.4665Z" fill="black"/>
<path fill-rule="evenodd" clip-rule="evenodd" d="M39.8756 41.1581V41.4937C39.5443 41.1341 39.0946 40.9424 38.5975 40.9424C37.5088 40.9424 36.562 41.9012 36.562 43.1237C36.562 44.2982 37.3904 45.3289 38.6212 45.3289C39.1656 45.3289 39.5679 45.2091 39.9703 44.7536V45.3049H40.8934V41.1581H39.8756ZM38.7395 44.466C38.0295 44.466 37.4614 43.8907 37.4614 43.1716C37.4614 42.4525 38.0295 41.8772 38.7395 41.8772C39.4496 41.8772 40.0176 42.4525 40.0176 43.1716C40.0176 43.8907 39.4496 44.466 38.7395 44.466Z" fill="black"/>
</g>
<defs>
<clipPath id="clip0_2226_9998">
<rect width="44.284" height="20.7581" fill="white" transform="translate(16.5146 24.667)"/>
</clipPath>
</defs>
</svg>
