<svg width="43" height="23" viewBox="0 0 43 23" fill="none" xmlns="http://www.w3.org/2000/svg">
<path fill-rule="evenodd" clip-rule="evenodd" d="M5.54391 7.95494C5.62592 7.9751 5.70792 7.99526 5.78992 8.01542C3.9244 12.1076 4.0474 16.1393 9.47994 16.1393C18.6845 13.8412 18.6845 13.8412 24.9371 12.1076C23.789 12.0874 22.6205 12.0673 21.4725 12.0471C21.288 10.8578 21.124 9.66841 20.9395 8.47906C20.4885 9.62809 20.058 10.7973 19.607 11.9463C18.705 11.9866 17.8235 12.0068 16.9215 12.0471C18.2335 8.27748 19.525 4.528 20.8165 0.778527C21.739 0.798685 22.6615 0.798685 23.584 0.818844C22.8255 3.05643 22.8255 3.05643 22.9075 3.17738C23.6045 2.3912 24.3015 1.60502 25.0191 0.818844C27.6841 0.758368 30.3491 0.718051 32.9936 0.677734C32.7886 1.34296 32.6041 2.02835 32.4196 2.69358C31.4561 2.75406 30.5131 2.79437 29.5496 2.85485C28.9551 4.56832 28.9551 4.56832 28.9346 4.95133C29.7751 5.01181 30.6156 5.05212 31.4766 5.1126C31.2306 5.79799 30.9641 6.50353 30.7181 7.18892C29.7956 7.26955 28.8731 7.35019 27.9506 7.43082C27.6841 8.19684 27.4176 8.98302 27.1716 9.7692C28.0531 9.80952 28.9141 9.82968 29.7956 9.87C29.6931 10.1724 29.6111 10.4747 29.5086 10.7973C29.6931 10.7973 29.8571 10.7973 30.0621 10.8174C34.3056 9.70873 38.5492 8.62017 42.7927 7.51145C32.0301 12.1076 21.288 16.6836 10.5254 21.2998C-2.22564 25.4122 -2.41014 15.1314 5.54391 7.95494ZM6.13842 12.0471C7.45043 8.25732 8.76244 4.48768 10.0949 0.697893C11.0585 0.697893 12.022 0.697893 13.006 0.697893C13.0265 2.06867 13.047 3.43944 13.0675 4.83038C13.5595 3.47976 14.0515 2.12914 14.5435 0.778527C15.384 0.73821 16.245 0.718051 17.0855 0.697893C15.8145 4.48768 14.5435 8.25732 13.293 12.0471C12.309 12.0471 11.3455 12.0471 10.3614 12.0471C10.3204 10.7167 10.2999 9.38619 10.2794 8.05573C9.11094 11.1803 9.11094 11.1803 8.90594 12.0471C7.98343 12.0471 7.06093 12.0471 6.13842 12.0471ZM13.744 12.0471C15.0355 8.29763 16.3475 4.54816 17.639 0.798685C18.5615 0.798685 19.484 0.798685 20.4065 0.798685C19.0535 4.50784 17.721 8.217 16.3885 11.9262C15.507 11.9665 14.6255 12.0068 13.744 12.0471ZM24.0965 10.8981C23.584 6.58416 23.584 6.58417 23.584 5.57624C27.2946 1.34296 27.2946 1.34296 27.5406 1.24217C26.3926 4.46753 25.2446 7.69288 24.0965 10.8981Z" fill="black"/>
</svg>
