<?xml version="1.0" encoding="UTF-8"?>
<svg xmlns="http://www.w3.org/2000/svg" xmlns:xlink="http://www.w3.org/1999/xlink" width="65px" height="35px" viewBox="0 0 65 35" version="1.1">
<g id="surface1">
<path style=" stroke:none;fill-rule:evenodd;fill:rgb(0%,0%,0%);fill-opacity:1;" d="M 8.382812 12.105469 C 8.503906 12.136719 8.628906 12.167969 8.753906 12.199219 C 5.933594 18.425781 6.117188 24.558594 14.332031 24.558594 C 28.242188 21.0625 28.242188 21.0625 37.695312 18.425781 C 35.960938 18.394531 34.191406 18.363281 32.460938 18.332031 C 32.179688 16.523438 31.933594 14.714844 31.652344 12.902344 C 30.972656 14.652344 30.320312 16.429688 29.640625 18.179688 C 28.273438 18.242188 26.941406 18.269531 25.578125 18.332031 C 27.5625 12.597656 29.511719 6.890625 31.46875 1.183594 C 32.859375 1.214844 34.253906 1.214844 35.652344 1.246094 C 34.503906 4.652344 34.503906 4.652344 34.625 4.835938 C 35.679688 3.640625 36.734375 2.441406 37.820312 1.246094 C 41.847656 1.152344 45.878906 1.09375 49.875 1.03125 C 49.5625 2.042969 49.285156 3.085938 49.007812 4.097656 C 47.546875 4.191406 46.125 4.253906 44.667969 4.34375 C 43.769531 6.949219 43.769531 6.949219 43.738281 7.535156 C 45.007812 7.625 46.277344 7.6875 47.582031 7.777344 C 47.210938 8.824219 46.804688 9.894531 46.433594 10.941406 C 45.039062 11.0625 43.644531 11.1875 42.253906 11.308594 C 41.847656 12.472656 41.445312 13.667969 41.074219 14.867188 C 42.40625 14.925781 43.707031 14.957031 45.039062 15.019531 C 44.882812 15.480469 44.761719 15.9375 44.605469 16.429688 C 44.882812 16.429688 45.132812 16.429688 45.445312 16.460938 C 51.855469 14.773438 58.273438 13.117188 64.6875 11.429688 C 48.417969 18.425781 32.179688 25.386719 15.910156 32.414062 C -3.363281 38.667969 -3.640625 23.027344 8.382812 12.105469 Z M 9.28125 18.332031 C 11.261719 12.566406 13.246094 6.828125 15.257812 1.0625 C 16.71875 1.0625 18.171875 1.0625 19.660156 1.0625 C 19.691406 3.148438 19.722656 5.234375 19.753906 7.351562 C 20.5 5.296875 21.242188 3.238281 21.984375 1.183594 C 23.253906 1.125 24.554688 1.09375 25.828125 1.0625 C 23.90625 6.828125 21.984375 12.566406 20.09375 18.332031 C 18.605469 18.332031 17.152344 18.332031 15.664062 18.332031 C 15.601562 16.308594 15.570312 14.285156 15.539062 12.257812 C 13.769531 17.011719 13.769531 17.011719 13.460938 18.332031 C 12.066406 18.332031 10.671875 18.332031 9.28125 18.332031 Z M 20.777344 18.332031 C 22.730469 12.628906 24.710938 6.921875 26.664062 1.214844 C 28.058594 1.214844 29.453125 1.214844 30.847656 1.214844 C 28.800781 6.859375 26.789062 12.503906 24.773438 18.148438 C 23.441406 18.210938 22.109375 18.269531 20.777344 18.332031 Z M 36.425781 16.582031 C 35.652344 10.019531 35.652344 10.019531 35.652344 8.484375 C 41.257812 2.042969 41.257812 2.042969 41.632812 1.890625 C 39.894531 6.796875 38.160156 11.707031 36.425781 16.582031 Z M 36.425781 16.582031 "/>
</g>
</svg>
