<svg width="69" height="91" viewBox="0 0 69 91" fill="none" xmlns="http://www.w3.org/2000/svg">
<path d="M22.3015 87.0654C22.2188 87.0654 22.1485 87.0365 22.0906 86.9786C22.0327 86.9207 22.0038 86.8504 22.0038 86.7677V78.6915C22.0038 78.6005 22.0327 78.5261 22.0906 78.4682C22.1485 78.4103 22.2188 78.3814 22.3015 78.3814H23.2568C23.3726 78.3814 23.4553 78.4103 23.5049 78.4682C23.5628 78.5178 23.6 78.5551 23.6165 78.5799L27.1894 84.1377V78.6915C27.1894 78.6005 27.2142 78.5261 27.2638 78.4682C27.3217 78.4103 27.3962 78.3814 27.4871 78.3814H28.5292C28.6202 78.3814 28.6946 78.4103 28.7525 78.4682C28.8104 78.5261 28.8394 78.6005 28.8394 78.6915V86.7553C28.8394 86.8463 28.8104 86.9207 28.7525 86.9786C28.6946 87.0365 28.6243 87.0654 28.5416 87.0654H27.574C27.4582 87.0654 27.3755 87.0365 27.3259 86.9786C27.2762 86.9207 27.239 86.8835 27.2142 86.8669L23.6538 81.4332V86.7677C23.6538 86.8504 23.6248 86.9207 23.5669 86.9786C23.509 87.0365 23.4346 87.0654 23.3436 87.0654H22.3015ZM30.9239 87.0654C30.8412 87.0654 30.7709 87.0365 30.713 86.9786C30.6551 86.9207 30.6262 86.8504 30.6262 86.7677V80.9122C30.6262 80.8295 30.6551 80.7592 30.713 80.7013C30.7709 80.6434 30.8412 80.6144 30.9239 80.6144H31.9536C32.0446 80.6144 32.1149 80.6434 32.1645 80.7013C32.2224 80.7592 32.2514 80.8295 32.2514 80.9122V86.7677C32.2514 86.8504 32.2224 86.9207 32.1645 86.9786C32.1149 87.0365 32.0446 87.0654 31.9536 87.0654H30.9239ZM30.8743 79.5475C30.7916 79.5475 30.7213 79.5186 30.6634 79.4607C30.6055 79.4028 30.5766 79.3325 30.5766 79.2498V78.3566C30.5766 78.2739 30.6055 78.2036 30.6634 78.1457C30.7213 78.0878 30.7916 78.0588 30.8743 78.0588H32.0032C32.0942 78.0588 32.1686 78.0878 32.2265 78.1457C32.2844 78.2036 32.3134 78.2739 32.3134 78.3566V79.2498C32.3134 79.3325 32.2844 79.4028 32.2265 79.4607C32.1686 79.5186 32.0942 79.5475 32.0032 79.5475H30.8743ZM34.2074 87.0654C34.1247 87.0654 34.0544 87.0365 33.9965 86.9786C33.9386 86.9207 33.9097 86.8504 33.9097 86.7677V78.5551C33.9097 78.4724 33.9386 78.4021 33.9965 78.3442C34.0544 78.2863 34.1247 78.2573 34.2074 78.2573H35.2123C35.3032 78.2573 35.3735 78.2863 35.4232 78.3442C35.4811 78.4021 35.51 78.4724 35.51 78.5551V82.7978L37.5942 80.8253C37.6769 80.7592 37.743 80.7095 37.7927 80.6764C37.8506 80.6351 37.9374 80.6144 38.0532 80.6144H39.2069C39.2896 80.6144 39.3558 80.6392 39.4054 80.6889C39.455 80.7385 39.4799 80.8046 39.4799 80.8873C39.4799 80.9204 39.4716 80.9576 39.455 80.999C39.4385 81.0404 39.4054 81.0776 39.3558 81.1107L36.8002 83.505L39.6659 86.5816C39.7487 86.6643 39.79 86.7346 39.79 86.7925C39.79 86.8752 39.7611 86.9414 39.7032 86.991C39.6535 87.0406 39.5915 87.0654 39.5171 87.0654H38.3385C38.2145 87.0654 38.1235 87.0489 38.0656 87.0158C38.016 86.9745 37.9539 86.9207 37.8795 86.8545L35.51 84.361V86.7677C35.51 86.8504 35.4811 86.9207 35.4232 86.9786C35.3735 87.0365 35.3032 87.0654 35.2123 87.0654H34.2074ZM43.194 87.1895C42.276 87.1895 41.5482 86.9248 41.0106 86.3955C40.473 85.8662 40.1836 85.1136 40.1422 84.1377C40.1339 84.055 40.1298 83.9516 40.1298 83.8275C40.1298 83.6952 40.1339 83.5918 40.1422 83.5174C40.1753 82.8888 40.3159 82.3512 40.564 81.9046C40.8204 81.4497 41.1719 81.1024 41.6185 80.8625C42.0651 80.6144 42.5903 80.4904 43.194 80.4904C43.864 80.4904 44.4263 80.631 44.8812 80.9122C45.3361 81.1851 45.6793 81.5697 45.9109 82.0659C46.1425 82.5539 46.2583 83.1204 46.2583 83.7655V84.026C46.2583 84.1087 46.2293 84.179 46.1714 84.2369C46.1135 84.2948 46.0391 84.3237 45.9481 84.3237H41.8294C41.8294 84.3237 41.8294 84.3362 41.8294 84.361C41.8294 84.3858 41.8294 84.4065 41.8294 84.423C41.8377 84.7125 41.8914 84.9813 41.9907 85.2294C42.0982 85.4692 42.2512 85.6636 42.4497 85.8124C42.6565 85.9613 42.9004 86.0357 43.1816 86.0357C43.4132 86.0357 43.6076 86.0027 43.7647 85.9365C43.9218 85.8621 44.05 85.7794 44.1493 85.6884C44.2485 85.5974 44.3188 85.523 44.3602 85.4651C44.4346 85.3658 44.4925 85.3079 44.5339 85.2914C44.5835 85.2666 44.6538 85.2542 44.7448 85.2542H45.8117C45.8944 85.2542 45.9605 85.279 46.0102 85.3286C46.068 85.3782 46.0929 85.4403 46.0846 85.5147C46.0763 85.647 46.006 85.8083 45.8737 85.9985C45.7496 86.1888 45.5677 86.3748 45.3278 86.5568C45.088 86.7387 44.7861 86.8917 44.4222 87.0158C44.0666 87.1316 43.6572 87.1895 43.194 87.1895ZM41.8294 83.2817H44.5711V83.2444C44.5711 82.9219 44.5173 82.6407 44.4098 82.4009C44.3023 82.1527 44.1451 81.9625 43.9384 81.8302C43.7316 81.6896 43.4835 81.6193 43.194 81.6193C42.9046 81.6193 42.6565 81.6896 42.4497 81.8302C42.2429 81.9625 42.0858 82.1527 41.9783 82.4009C41.879 82.6407 41.8294 82.9219 41.8294 83.2444V83.2817Z" fill="black"/>
<circle cx="34.2165" cy="34.7468" r="33.7282" stroke="black" stroke-width="0.775362"/>
<g clip-path="url(#clip0_2226_10024)">
<path fill-rule="evenodd" clip-rule="evenodd" d="M21.0344 31.1926C21.1169 31.2129 21.1994 31.2332 21.2819 31.2535C19.4051 35.3706 19.5288 39.4268 24.9944 39.4268C34.2551 37.1148 34.2551 37.1148 40.5457 35.3706C39.3907 35.3503 38.2151 35.33 37.0601 35.3097C36.8745 34.1131 36.7095 32.9165 36.5238 31.7199C36.0701 32.876 35.637 34.0523 35.1832 35.2083C34.2757 35.2489 33.3888 35.2692 32.4813 35.3097C33.8013 31.5171 35.1007 27.7448 36.4001 23.9725C37.3282 23.9928 38.2563 23.9928 39.1845 24.0131C38.4213 26.2643 38.4213 26.2643 38.5038 26.386C39.2051 25.595 39.9063 24.804 40.6282 24.0131C43.3095 23.9522 45.9907 23.9117 48.6514 23.8711C48.4451 24.5404 48.2595 25.2299 48.0739 25.8992C47.1045 25.9601 46.1557 26.0006 45.1864 26.0615C44.5882 27.7854 44.5882 27.7854 44.5676 28.1707C45.4132 28.2316 46.2589 28.2721 47.1251 28.333C46.8776 29.0225 46.6095 29.7324 46.362 30.4219C45.4339 30.5031 44.5057 30.5842 43.5776 30.6653C43.3095 31.436 43.0414 32.227 42.7939 33.018C43.6807 33.0585 44.547 33.0788 45.4339 33.1194C45.3307 33.4236 45.2482 33.7278 45.1451 34.0523C45.3307 34.0523 45.4957 34.0523 45.702 34.0726C49.9714 32.9571 54.2407 31.8619 58.5101 30.7464C47.682 35.3706 36.8745 39.9744 26.0463 44.6188C13.2175 48.7562 13.0319 38.4128 21.0344 31.1926ZM21.6326 35.3097C22.9526 31.4969 24.2726 27.7043 25.6132 23.8914C26.5826 23.8914 27.5519 23.8914 28.5419 23.8914C28.5626 25.2705 28.5832 26.6496 28.6038 28.049C29.0988 26.6902 29.5938 25.3313 30.0888 23.9725C30.9344 23.9319 31.8007 23.9117 32.6463 23.8914C31.3676 27.7043 30.0888 31.4969 28.8307 35.3097C27.8407 35.3097 26.8713 35.3097 25.8813 35.3097C25.8401 33.9712 25.8194 32.6326 25.7988 31.294C24.6232 34.4376 24.6232 34.4376 24.4169 35.3097C23.4888 35.3097 22.5607 35.3097 21.6326 35.3097ZM29.2844 35.3097C30.5838 31.5374 31.9038 27.7651 33.2032 23.9928C34.1313 23.9928 35.0595 23.9928 35.9876 23.9928C34.6263 27.7245 33.2857 31.4563 31.9451 35.188C31.0582 35.2286 30.1713 35.2692 29.2844 35.3097ZM39.7001 34.1537C39.1845 29.8135 39.1845 29.8135 39.1845 28.7994C42.9176 24.5404 42.9176 24.5404 43.1651 24.439C42.0101 27.684 40.8551 30.929 39.7001 34.1537Z" fill="black"/>
</g>
<defs>
<clipPath id="clip0_2226_10024">
<rect width="42.9001" height="21.6807" fill="white" transform="translate(15.6089 23.8916)"/>
</clipPath>
</defs>
</svg>
