<svg width="43" height="23" viewBox="0 0 43 23" fill="none" xmlns="http://www.w3.org/2000/svg">
<g clip-path="url(#clip0_1389_7970)">
<path fill-rule="evenodd" clip-rule="evenodd" d="M23.0336 0.77783C22.8894 0.800336 22.7563 1.31797 22.49 1.58804C22.2904 1.77934 22.0463 1.76809 21.9132 2.01566C21.8689 2.10568 21.88 2.26322 21.8245 2.40951C21.7136 2.70209 21.3253 2.73584 21.3253 3.05093C21.3253 3.39977 21.647 3.46729 21.9243 3.71485C22.1462 3.9174 22.1684 4.05244 22.4346 4.15372C22.6564 4.23249 23.0003 3.97367 23.2998 4.06369C23.5439 4.14246 23.7879 4.18748 23.8434 4.45755C23.8877 4.69386 23.8434 5.06521 23.5328 5.03145C23.4329 5.02019 22.9892 4.87391 22.4457 4.93017C21.7912 5.00894 21.0369 5.22275 20.9704 5.96544C20.926 6.3818 21.4362 6.86568 21.9243 6.7644C22.2571 6.69688 22.1018 6.29178 22.2904 6.10048C22.5344 5.85291 23.8988 6.97821 25.1634 6.97821C25.6958 6.97821 26.0952 6.84317 26.4834 6.42681C26.5167 6.39305 26.5611 6.32554 26.6276 6.32554C26.6831 6.32554 26.7718 6.3818 26.8051 6.40431C27.8256 7.23703 28.6021 8.90246 32.3515 8.92497C32.8839 8.92497 33.4829 9.18379 33.971 9.6339C34.4036 10.0503 34.6698 10.6804 34.9139 11.3331C35.291 12.3009 35.9677 13.2574 36.9882 14.3039C37.0437 14.3601 37.8867 15.0241 37.9533 15.0691C37.9644 15.0803 38.0309 15.2266 38.0087 15.3054C37.9865 15.9356 37.8978 17.7698 39.24 17.8598C39.5728 17.8823 39.4841 17.646 39.4841 17.4772C39.4841 17.1621 39.4286 16.8358 39.595 16.5095C39.8168 16.0593 39.118 15.8568 39.1291 14.8778C39.1402 14.1576 38.5412 14.2701 38.2417 13.7187C38.0642 13.3924 37.9089 13.2236 37.92 12.841C37.9865 10.6354 37.4541 9.18379 37.1879 8.83494C36.9771 8.56487 36.8107 8.4636 36.9993 8.33981C38.1307 7.58587 38.3859 6.88818 38.3859 6.88818C38.9849 5.45906 39.5284 4.15372 40.2605 3.57982C40.4047 3.45603 40.793 3.17471 41.0259 3.06218C41.7248 2.73584 42.0797 2.53329 42.2905 2.33074C42.6122 2.01566 42.8562 1.36298 42.5567 0.957878C42.1796 0.462748 41.5251 0.856601 41.2256 1.0254C39.1513 2.27447 38.8518 4.4688 38.1307 5.72913C37.5539 6.7419 36.6332 7.48459 35.8013 7.54085C35.1801 7.58587 34.5034 7.46208 33.8379 7.15825C32.2072 6.43807 31.3198 5.50407 31.1091 5.33528C30.6765 4.99769 27.2821 1.61055 24.5311 1.47551C24.5311 1.47551 24.1872 0.77783 24.0985 0.766578C23.8988 0.744072 23.6881 1.18294 23.5439 1.22795C23.4107 1.27296 23.1778 0.744072 23.0336 0.77783Z" fill="black"/>
<path fill-rule="evenodd" clip-rule="evenodd" d="M10.9206 20.9534C10.6655 20.9422 10.4436 20.7284 10.4436 20.4695V11.771H7.61499V21.3698C7.61499 21.8424 7.99214 22.225 8.44694 22.225H13.3943C13.8602 22.225 14.2262 21.8424 14.2262 21.3698V11.7598H11.3976V20.4583C11.4087 20.7284 11.1868 20.9422 10.9206 20.9534Z" fill="black"/>
<path fill-rule="evenodd" clip-rule="evenodd" d="M20.394 11.7598H16.1122C15.602 11.7598 15.1915 12.1761 15.1915 12.6938V22.2025H18.0202V13.4815C18.0202 13.2114 18.2309 12.9976 18.4972 12.9976C18.7634 12.9976 18.9741 13.2001 18.9741 13.4702V22.2025H21.7917V13.4702C21.7917 13.2001 22.0024 12.9976 22.2687 12.9976C22.5349 12.9976 22.7457 13.2114 22.7457 13.4815V22.2025H25.5743V12.6938C25.5743 12.1761 25.1639 11.7598 24.6536 11.7598H20.394Z" fill="black"/>
<path fill-rule="evenodd" clip-rule="evenodd" d="M5.72926 19.5806H2.87844V22.2025H0.0498047V11.7598H5.75145C6.26171 11.7598 6.66105 12.1761 6.66105 12.705V18.6466C6.66105 19.1642 6.25062 19.5806 5.72926 19.5806ZM3.83241 13.504C3.83241 13.2114 3.59947 13.0088 3.35543 13.0088H2.87844V18.2977H3.35543C3.59947 18.2977 3.83241 18.0952 3.83241 17.8026V13.504Z" fill="black"/>
<path fill-rule="evenodd" clip-rule="evenodd" d="M36.5667 20.9655C36.5667 21.6744 36.001 22.2483 35.3133 22.2483C34.6144 22.2483 34.0487 21.6744 34.0487 20.9655C34.0487 20.2678 34.6144 19.6826 35.2911 19.6826C36.001 19.6826 36.5667 20.2453 36.5667 20.9655ZM35.2911 19.8739C34.7254 19.8739 34.2484 20.369 34.2484 20.9767C34.2484 21.5844 34.7254 22.0795 35.3133 22.0795C35.8901 22.0795 36.3671 21.5844 36.3671 20.9767C36.3671 20.369 35.8901 19.8739 35.3133 19.8739H35.2911Z" fill="black"/>
<path fill-rule="evenodd" clip-rule="evenodd" d="M35.9012 21.708H35.5685L35.1358 21.1229V21.708H34.8585V20.2227H35.1469C35.5463 20.2227 35.7459 20.3689 35.7459 20.6615C35.7459 20.8528 35.6239 21.0216 35.4464 21.0779L35.4242 21.0891L35.9012 21.708ZM35.1802 20.8866C35.3799 20.8866 35.4797 20.8191 35.4797 20.6728C35.4797 20.549 35.3799 20.4815 35.1913 20.4815H35.1358V20.8866H35.1802Z" fill="black"/>
<path fill-rule="evenodd" clip-rule="evenodd" d="M30.333 22.2025V19.5806H29.3679V22.2025H26.5393V12.6938C26.5393 12.1761 26.9497 11.7598 27.46 11.7598H32.2299C32.7401 11.7598 33.1505 12.1761 33.1505 12.6938V22.2025H30.333ZM30.333 18.2865V13.4702C30.3219 13.2001 30.1112 12.9976 29.856 12.9976C29.5898 12.9976 29.379 13.2114 29.379 13.4702V18.2752H30.333V18.2865Z" fill="black"/>
</g>
<defs>
<clipPath id="clip0_1389_7970">
<rect width="42.6403" height="21.5494" fill="white" transform="translate(0.0506592 0.698242)"/>
</clipPath>
</defs>
</svg>
