<?xml version="1.0" encoding="UTF-8"?>
<svg xmlns="http://www.w3.org/2000/svg" xmlns:xlink="http://www.w3.org/1999/xlink" width="65px" height="35px" viewBox="0 0 65 35" version="1.1">
<defs>
<clipPath id="clip1">
  <path d="M 31.453125 1.0625 L 64.53125 1.0625 L 64.53125 27.300781 L 31.453125 27.300781 Z M 31.453125 1.0625 "/>
</clipPath>
<clipPath id="clip2">
  <path d="M 11.183594 17.5 L 21.667969 17.5 L 21.667969 33.855469 L 11.183594 33.855469 Z M 11.183594 17.5 "/>
</clipPath>
<clipPath id="clip3">
  <path d="M 22.367188 17.5 L 39 17.5 L 39 33.855469 L 22.367188 33.855469 Z M 22.367188 17.5 "/>
</clipPath>
<clipPath id="clip4">
  <path d="M 0.078125 17.5 L 10.484375 17.5 L 10.484375 33.855469 L 0.078125 33.855469 Z M 0.078125 17.5 "/>
</clipPath>
<clipPath id="clip5">
  <path d="M 51.023438 29.398438 L 55.914062 29.398438 L 55.914062 33.855469 L 51.023438 33.855469 Z M 51.023438 29.398438 "/>
</clipPath>
<clipPath id="clip6">
  <path d="M 40 17.5 L 50.324219 17.5 L 50.324219 33.855469 L 40 33.855469 Z M 40 17.5 "/>
</clipPath>
</defs>
<g id="surface1">
<g clip-path="url(#clip1)" clip-rule="nonzero">
<path style=" stroke:none;fill-rule:evenodd;fill:rgb(0%,0%,0%);fill-opacity:1;" d="M 34.816406 1.183594 C 34.597656 1.214844 34.398438 2.003906 33.996094 2.417969 C 33.695312 2.707031 33.324219 2.691406 33.125 3.066406 C 33.058594 3.203125 33.074219 3.445312 32.992188 3.667969 C 32.820312 4.113281 32.234375 4.164062 32.234375 4.644531 C 32.234375 5.171875 32.722656 5.277344 33.140625 5.652344 C 33.476562 5.960938 33.511719 6.167969 33.910156 6.320312 C 34.246094 6.441406 34.769531 6.046875 35.222656 6.183594 C 35.589844 6.300781 35.960938 6.371094 36.042969 6.785156 C 36.109375 7.140625 36.042969 7.707031 35.574219 7.65625 C 35.421875 7.640625 34.753906 7.414062 33.929688 7.503906 C 32.941406 7.625 31.800781 7.949219 31.699219 9.078125 C 31.632812 9.710938 32.40625 10.449219 33.140625 10.292969 C 33.644531 10.191406 33.410156 9.574219 33.695312 9.285156 C 34.0625 8.90625 36.125 10.621094 38.035156 10.621094 C 38.84375 10.621094 39.445312 10.414062 40.03125 9.78125 C 40.085938 9.730469 40.148438 9.625 40.25 9.625 C 40.335938 9.625 40.46875 9.710938 40.519531 9.746094 C 42.0625 11.015625 43.234375 13.546875 48.902344 13.582031 C 49.707031 13.582031 50.613281 13.976562 51.351562 14.660156 C 52.003906 15.292969 52.410156 16.253906 52.777344 17.246094 C 53.347656 18.71875 54.367188 20.175781 55.910156 21.765625 C 55.996094 21.851562 57.269531 22.863281 57.371094 22.929688 C 57.386719 22.949219 57.488281 23.171875 57.453125 23.292969 C 57.421875 24.25 57.289062 27.039062 59.316406 27.175781 C 59.816406 27.210938 59.683594 26.851562 59.683594 26.59375 C 59.683594 26.117188 59.601562 25.617188 59.855469 25.125 C 60.1875 24.4375 59.132812 24.128906 59.148438 22.640625 C 59.164062 21.542969 58.257812 21.714844 57.804688 20.878906 C 57.539062 20.378906 57.304688 20.121094 57.320312 19.539062 C 57.421875 16.183594 56.617188 13.976562 56.214844 13.445312 C 55.894531 13.035156 55.644531 12.878906 55.929688 12.691406 C 57.640625 11.542969 58.023438 10.480469 58.023438 10.480469 C 58.929688 8.308594 59.753906 6.320312 60.859375 5.445312 C 61.078125 5.257812 61.664062 4.832031 62.015625 4.660156 C 63.074219 4.164062 63.609375 3.855469 63.925781 3.546875 C 64.414062 3.066406 64.78125 2.074219 64.332031 1.457031 C 63.761719 0.707031 62.769531 1.304688 62.320312 1.5625 C 59.183594 3.460938 58.730469 6.800781 57.640625 8.71875 C 56.769531 10.257812 55.375 11.386719 54.117188 11.476562 C 53.179688 11.542969 52.15625 11.355469 51.148438 10.894531 C 48.683594 9.796875 47.34375 8.375 47.023438 8.117188 C 46.371094 7.605469 41.238281 2.449219 37.082031 2.246094 C 37.082031 2.246094 36.5625 1.183594 36.429688 1.167969 C 36.125 1.132812 35.804688 1.800781 35.589844 1.867188 C 35.386719 1.9375 35.035156 1.132812 34.816406 1.183594 Z M 34.816406 1.183594 "/>
</g>
<g clip-path="url(#clip2)" clip-rule="nonzero">
<path style=" stroke:none;fill-rule:evenodd;fill:rgb(0%,0%,0%);fill-opacity:1;" d="M 16.507812 31.886719 C 16.121094 31.871094 15.785156 31.542969 15.785156 31.148438 L 15.785156 17.914062 L 11.511719 17.914062 L 11.511719 32.519531 C 11.511719 33.238281 12.082031 33.820312 12.769531 33.820312 L 20.246094 33.820312 C 20.953125 33.820312 21.503906 33.238281 21.503906 32.519531 L 21.503906 17.894531 L 17.230469 17.894531 L 17.230469 31.128906 C 17.246094 31.542969 16.910156 31.871094 16.507812 31.886719 Z M 16.507812 31.886719 "/>
</g>
<g clip-path="url(#clip3)" clip-rule="nonzero">
<path style=" stroke:none;fill-rule:evenodd;fill:rgb(0%,0%,0%);fill-opacity:1;" d="M 30.828125 17.894531 L 24.355469 17.894531 C 23.582031 17.894531 22.964844 18.527344 22.964844 19.316406 L 22.964844 33.785156 L 27.238281 33.785156 L 27.238281 20.515625 C 27.238281 20.101562 27.558594 19.777344 27.960938 19.777344 C 28.363281 19.777344 28.679688 20.085938 28.679688 20.496094 L 28.679688 33.785156 L 32.941406 33.785156 L 32.941406 20.496094 C 32.941406 20.085938 33.257812 19.777344 33.664062 19.777344 C 34.0625 19.777344 34.382812 20.101562 34.382812 20.515625 L 34.382812 33.785156 L 38.660156 33.785156 L 38.660156 19.316406 C 38.660156 18.527344 38.039062 17.894531 37.265625 17.894531 Z M 30.828125 17.894531 "/>
</g>
<g clip-path="url(#clip4)" clip-rule="nonzero">
<path style=" stroke:none;fill-rule:evenodd;fill:rgb(0%,0%,0%);fill-opacity:1;" d="M 8.660156 29.796875 L 4.351562 29.796875 L 4.351562 33.785156 L 0.078125 33.785156 L 0.078125 17.894531 L 8.691406 17.894531 C 9.464844 17.894531 10.070312 18.527344 10.070312 19.335938 L 10.070312 28.375 C 10.070312 29.160156 9.449219 29.796875 8.660156 29.796875 Z M 5.792969 20.550781 C 5.792969 20.101562 5.441406 19.796875 5.074219 19.796875 L 4.351562 19.796875 L 4.351562 27.84375 L 5.074219 27.84375 C 5.441406 27.84375 5.792969 27.535156 5.792969 27.09375 Z M 5.792969 20.550781 "/>
</g>
<g clip-path="url(#clip5)" clip-rule="nonzero">
<path style=" stroke:none;fill-rule:evenodd;fill:rgb(0%,0%,0%);fill-opacity:1;" d="M 55.273438 31.90625 C 55.273438 32.980469 54.421875 33.855469 53.378906 33.855469 C 52.324219 33.855469 51.46875 32.980469 51.46875 31.90625 C 51.46875 30.839844 52.324219 29.953125 53.347656 29.953125 C 54.421875 29.953125 55.273438 30.808594 55.273438 31.90625 Z M 53.347656 30.242188 C 52.492188 30.242188 51.769531 30.996094 51.769531 31.921875 C 51.769531 32.84375 52.492188 33.601562 53.378906 33.601562 C 54.25 33.601562 54.976562 32.84375 54.976562 31.921875 C 54.976562 30.996094 54.25 30.242188 53.378906 30.242188 Z M 53.347656 30.242188 "/>
</g>
<path style=" stroke:none;fill-rule:evenodd;fill:rgb(0%,0%,0%);fill-opacity:1;" d="M 54.269531 33.035156 L 53.765625 33.035156 L 53.113281 32.144531 L 53.113281 33.035156 L 52.691406 33.035156 L 52.691406 30.773438 L 53.128906 30.773438 C 53.734375 30.773438 54.035156 30.996094 54.035156 31.441406 C 54.035156 31.730469 53.851562 31.988281 53.582031 32.074219 L 53.546875 32.09375 Z M 53.179688 31.785156 C 53.480469 31.785156 53.632812 31.679688 53.632812 31.457031 C 53.632812 31.269531 53.480469 31.167969 53.199219 31.167969 L 53.113281 31.167969 L 53.113281 31.785156 Z M 53.179688 31.785156 "/>
<g clip-path="url(#clip6)" clip-rule="nonzero">
<path style=" stroke:none;fill-rule:evenodd;fill:rgb(0%,0%,0%);fill-opacity:1;" d="M 45.851562 33.785156 L 45.851562 29.796875 L 44.394531 29.796875 L 44.394531 33.785156 L 40.117188 33.785156 L 40.117188 19.316406 C 40.117188 18.527344 40.738281 17.894531 41.507812 17.894531 L 48.71875 17.894531 C 49.488281 17.894531 50.113281 18.527344 50.113281 19.316406 L 50.113281 33.785156 Z M 45.851562 27.828125 L 45.851562 20.496094 C 45.835938 20.085938 45.515625 19.777344 45.132812 19.777344 C 44.726562 19.777344 44.410156 20.101562 44.410156 20.496094 L 44.410156 27.8125 L 45.851562 27.8125 Z M 45.851562 27.828125 "/>
</g>
</g>
</svg>
