<svg width="70" height="90" viewBox="0 0 70 90" fill="none" xmlns="http://www.w3.org/2000/svg">
<path d="M19.1067 87C19.024 87 18.9537 86.9711 18.8958 86.9132C18.8379 86.8553 18.809 86.785 18.809 86.7023V78.6261C18.809 78.5351 18.8379 78.4607 18.8958 78.4028C18.9537 78.3449 19.024 78.3159 19.1067 78.3159H22.4315C23.0766 78.3159 23.6389 78.4193 24.1186 78.6261C24.5983 78.8246 24.9705 79.1306 25.2352 79.5441C25.4998 79.9494 25.6321 80.458 25.6321 81.07C25.6321 81.6903 25.4998 82.2031 25.2352 82.6084C24.9705 83.0053 24.5983 83.3031 24.1186 83.5016C23.6389 83.7001 23.0766 83.7993 22.4315 83.7993H20.583V86.7023C20.583 86.785 20.554 86.8553 20.4961 86.9132C20.4465 86.9711 20.3762 87 20.2852 87H19.1067ZM20.5582 82.4223H22.3694C22.8491 82.4223 23.2172 82.3106 23.4735 82.0873C23.7299 81.8557 23.8581 81.5166 23.8581 81.07C23.8581 80.6565 23.7382 80.3257 23.4983 80.0776C23.2585 79.8212 22.8822 79.693 22.3694 79.693H20.5582V82.4223ZM29.2321 87.1241C28.7276 87.1241 28.2892 87.0124 27.917 86.7891C27.5531 86.5575 27.2719 86.235 27.0734 85.8214C26.875 85.3997 26.7757 84.9034 26.7757 84.3328V80.8467C26.7757 80.764 26.8047 80.6937 26.8625 80.6358C26.9204 80.5779 26.9907 80.549 27.0734 80.549H28.1652C28.2561 80.549 28.3264 80.5779 28.3761 80.6358C28.4339 80.6937 28.4629 80.764 28.4629 80.8467V84.2583C28.4629 85.2839 28.9136 85.7966 29.8151 85.7966C30.2452 85.7966 30.5843 85.6602 30.8324 85.3872C31.0888 85.1143 31.217 84.738 31.217 84.2583V80.8467C31.217 80.764 31.2459 80.6937 31.3038 80.6358C31.3617 80.5779 31.432 80.549 31.5147 80.549H32.6064C32.6891 80.549 32.7594 80.5779 32.8173 80.6358C32.8752 80.6937 32.9042 80.764 32.9042 80.8467V86.7023C32.9042 86.785 32.8752 86.8553 32.8173 86.9132C32.7594 86.9711 32.6891 87 32.6064 87H31.6016C31.5106 87 31.4361 86.9711 31.3783 86.9132C31.3286 86.8553 31.3038 86.785 31.3038 86.7023V86.1936C31.0805 86.4831 30.8035 86.7105 30.4726 86.8759C30.1418 87.0414 29.7283 87.1241 29.2321 87.1241ZM34.8406 87C34.7579 87 34.6876 86.9711 34.6297 86.9132C34.5718 86.8553 34.5429 86.785 34.5429 86.7023V80.8467C34.5429 80.764 34.5718 80.6937 34.6297 80.6358C34.6876 80.5779 34.7579 80.549 34.8406 80.549H35.8083C35.891 80.549 35.9613 80.5779 36.0192 80.6358C36.0771 80.6937 36.106 80.764 36.106 80.8467V81.2685C36.2797 81.0369 36.5113 80.8426 36.8007 80.6855C37.0985 80.52 37.45 80.4332 37.8552 80.4249C38.7981 80.4084 39.4556 80.7764 39.8278 81.529C40.018 81.1982 40.2909 80.9336 40.6465 80.7351C41.0104 80.5283 41.4116 80.4249 41.8499 80.4249C42.28 80.4249 42.6687 80.5242 43.016 80.7227C43.3717 80.9212 43.6487 81.223 43.8472 81.6283C44.054 82.0253 44.1574 82.5298 44.1574 83.1418V86.7023C44.1574 86.785 44.1284 86.8553 44.0705 86.9132C44.0126 86.9711 43.9423 87 43.8596 87H42.8424C42.7597 87 42.6894 86.9711 42.6315 86.9132C42.5736 86.8553 42.5446 86.785 42.5446 86.7023V83.241C42.5446 82.8689 42.4909 82.5753 42.3834 82.3602C42.2758 82.1369 42.1311 81.9798 41.9492 81.8888C41.7672 81.7978 41.5646 81.7524 41.3413 81.7524C41.1593 81.7524 40.9774 81.7978 40.7954 81.8888C40.6135 81.9798 40.4646 82.1369 40.3488 82.3602C40.233 82.5753 40.1751 82.8689 40.1751 83.241V86.7023C40.1751 86.785 40.1462 86.8553 40.0883 86.9132C40.0304 86.9711 39.9601 87 39.8774 87H38.8601C38.7774 87 38.7071 86.9711 38.6492 86.9132C38.5913 86.8553 38.5624 86.785 38.5624 86.7023V83.241C38.5624 82.8689 38.5045 82.5753 38.3887 82.3602C38.2729 82.1369 38.124 81.9798 37.9421 81.8888C37.7601 81.7978 37.5658 81.7524 37.359 81.7524C37.1688 81.7524 36.9827 81.802 36.8007 81.9012C36.6188 81.9922 36.4699 82.1452 36.3541 82.3602C36.2384 82.5753 36.1805 82.8689 36.1805 83.241V86.7023C36.1805 86.785 36.1515 86.8553 36.0936 86.9132C36.0357 86.9711 35.9654 87 35.8827 87H34.8406ZM47.6105 87.1241C47.1804 87.1241 46.7917 87.0414 46.4443 86.8759C46.0969 86.7023 45.8199 86.4748 45.6131 86.1936C45.4146 85.9042 45.3154 85.5816 45.3154 85.226C45.3154 84.647 45.5511 84.188 46.0225 83.8489C46.4939 83.5016 47.1101 83.27 47.871 83.1542L49.5706 82.9061V82.6456C49.5706 82.2982 49.4837 82.0294 49.31 81.8392C49.1364 81.649 48.8386 81.5539 48.4168 81.5539C48.1191 81.5539 47.8751 81.6159 47.6849 81.7399C47.5029 81.8557 47.3665 82.0129 47.2755 82.2114C47.2093 82.3189 47.1142 82.3726 46.9902 82.3726H46.0101C45.9191 82.3726 45.8488 82.3478 45.7992 82.2982C45.7579 82.2486 45.7372 82.1824 45.7372 82.0997C45.7455 81.9674 45.7992 81.8061 45.8985 81.6159C46.006 81.4257 46.1631 81.2437 46.3699 81.07C46.5849 80.8881 46.862 80.7351 47.2011 80.611C47.5402 80.487 47.9495 80.4249 48.4292 80.4249C48.9503 80.4249 49.3886 80.4911 49.7443 80.6234C50.1082 80.7475 50.3976 80.917 50.6127 81.1321C50.8277 81.3471 50.9848 81.5993 51.0841 81.8888C51.1833 82.1783 51.2329 82.4843 51.2329 82.8068V86.7023C51.2329 86.785 51.204 86.8553 51.1461 86.9132C51.0882 86.9711 51.0179 87 50.9352 87H49.9303C49.8394 87 49.7649 86.9711 49.707 86.9132C49.6574 86.8553 49.6326 86.785 49.6326 86.7023V86.2184C49.5251 86.3673 49.3803 86.512 49.1984 86.6526C49.0164 86.7932 48.7931 86.909 48.5285 87C48.2721 87.0827 47.9661 87.1241 47.6105 87.1241ZM48.0323 85.9455C48.3217 85.9455 48.5822 85.8835 48.8138 85.7594C49.0537 85.6354 49.2398 85.4451 49.3721 85.1888C49.5127 84.9241 49.583 84.5933 49.583 84.1963V83.9358L48.3424 84.1343C47.8544 84.2087 47.4905 84.3286 47.2507 84.494C47.0108 84.6594 46.8909 84.8621 46.8909 85.1019C46.8909 85.2839 46.9447 85.441 47.0522 85.5733C47.168 85.6974 47.3127 85.7925 47.4864 85.8587C47.6601 85.9166 47.842 85.9455 48.0323 85.9455Z" fill="black"/>
<circle cx="34.8991" cy="34.6814" r="33.7282" stroke="black" stroke-width="0.775362"/>
<g clip-path="url(#clip0_2226_9964)">
<path fill-rule="evenodd" clip-rule="evenodd" d="M36.3114 23.9052C36.1664 23.9278 36.0324 24.4486 35.7646 24.7203C35.5637 24.9128 35.3182 24.9014 35.1843 25.1505C35.1396 25.2411 35.1508 25.3996 35.095 25.5468C34.9834 25.8411 34.5928 25.8751 34.5928 26.1921C34.5928 26.5431 34.9164 26.611 35.1954 26.8601C35.4186 27.0639 35.4409 27.1997 35.7088 27.3016C35.932 27.3809 36.278 27.1205 36.5793 27.211C36.8248 27.2903 37.0703 27.3356 37.1261 27.6073C37.1708 27.845 37.1261 28.2187 36.8136 28.1847C36.7132 28.1734 36.2668 28.0262 35.7199 28.0828C35.0615 28.162 34.3026 28.3772 34.2356 29.1244C34.191 29.5433 34.7044 30.0301 35.1954 29.9282C35.5302 29.8603 35.374 29.4527 35.5637 29.2602C35.8092 29.0112 37.1819 30.1433 38.4542 30.1433C38.9899 30.1433 39.3917 30.0074 39.7823 29.5886C39.8158 29.5546 39.8604 29.4867 39.9274 29.4867C39.9832 29.4867 40.0724 29.5433 40.1059 29.5659C41.1327 30.4037 41.9139 32.0793 45.6861 32.1019C46.2218 32.1019 46.8244 32.3623 47.3155 32.8152C47.7507 33.2341 48.0186 33.8681 48.2641 34.5247C48.6435 35.4984 49.3243 36.4607 50.3511 37.5136C50.4069 37.5702 51.255 38.2382 51.322 38.2835C51.3332 38.2948 51.4001 38.442 51.3778 38.5212C51.3555 39.1552 51.2662 41.0006 52.6166 41.0912C52.9514 41.1138 52.8621 40.8761 52.8621 40.7063C52.8621 40.3893 52.8063 40.0609 52.9737 39.7326C53.1969 39.2798 52.4938 39.076 52.505 38.091C52.5161 37.3664 51.9135 37.4796 51.6122 36.9249C51.4336 36.5966 51.2774 36.4267 51.2885 36.0418C51.3555 33.8228 50.8198 32.3623 50.5519 32.0114C50.3399 31.7396 50.1725 31.6377 50.3622 31.5132C51.5006 30.7547 51.7573 30.0527 51.7573 30.0527C52.3599 28.6149 52.9068 27.3016 53.6433 26.7242C53.7884 26.5997 54.179 26.3166 54.4134 26.2034C55.1165 25.8751 55.4736 25.6713 55.6857 25.4675C56.0093 25.1505 56.2548 24.4939 55.9535 24.0863C55.5741 23.5882 54.9156 23.9844 54.6143 24.1542C52.5273 25.4109 52.226 27.6186 51.5006 28.8866C50.9202 29.9056 49.9939 30.6528 49.1569 30.7094C48.5319 30.7547 47.8512 30.6301 47.1815 30.3245C45.541 29.5999 44.6482 28.6602 44.4361 28.4904C44.0009 28.1507 40.5858 24.7429 37.8181 24.6071C37.8181 24.6071 37.4721 23.9052 37.3828 23.8938C37.1819 23.8712 36.9699 24.3127 36.8248 24.358C36.6909 24.4033 36.4565 23.8712 36.3114 23.9052Z" fill="black"/>
<path fill-rule="evenodd" clip-rule="evenodd" d="M24.1246 44.2048C23.8679 44.1934 23.6447 43.9783 23.6447 43.7179V34.9664H20.7988V44.6236C20.7988 45.0991 21.1783 45.4841 21.6358 45.4841H26.6133C27.0821 45.4841 27.4504 45.0991 27.4504 44.6236V34.9551H24.6045V43.7066C24.6156 43.9783 24.3924 44.1934 24.1246 44.2048Z" fill="black"/>
<path fill-rule="evenodd" clip-rule="evenodd" d="M33.656 34.9551H29.3482C28.8348 34.9551 28.4219 35.374 28.4219 35.8948V45.4614H31.2677V36.6873C31.2677 36.4156 31.4798 36.2004 31.7476 36.2004C32.0155 36.2004 32.2275 36.4042 32.2275 36.6759V45.4614H35.0622V36.6759C35.0622 36.4042 35.2743 36.2004 35.5421 36.2004C35.81 36.2004 36.022 36.4156 36.022 36.6873V45.4614H38.8679V35.8948C38.8679 35.374 38.455 34.9551 37.9416 34.9551H33.656Z" fill="black"/>
<path fill-rule="evenodd" clip-rule="evenodd" d="M18.9016 42.8235H16.0334V45.4614H13.1875V34.9551H18.9239C19.4373 34.9551 19.839 35.374 19.839 35.9061V41.8838C19.839 42.4046 19.4261 42.8235 18.9016 42.8235ZM16.9932 36.7099C16.9932 36.4156 16.7588 36.2118 16.5133 36.2118H16.0334V41.5329H16.5133C16.7588 41.5329 16.9932 41.3291 16.9932 41.0347V36.7099Z" fill="black"/>
<path fill-rule="evenodd" clip-rule="evenodd" d="M49.9269 44.2155C49.9269 44.9287 49.3578 45.5061 48.6658 45.5061C47.9627 45.5061 47.3936 44.9287 47.3936 44.2155C47.3936 43.5135 47.9627 42.9248 48.6435 42.9248C49.3578 42.9248 49.9269 43.4909 49.9269 44.2155ZM48.6435 43.1173C48.0743 43.1173 47.5944 43.6154 47.5944 44.2268C47.5944 44.8381 48.0743 45.3363 48.6658 45.3363C49.2462 45.3363 49.7261 44.8381 49.7261 44.2268C49.7261 43.6154 49.2462 43.1173 48.6658 43.1173H48.6435Z" fill="black"/>
<path fill-rule="evenodd" clip-rule="evenodd" d="M49.2571 44.9632H48.9223L48.487 44.3745V44.9632H48.208V43.4688H48.4982C48.8999 43.4688 49.1008 43.6159 49.1008 43.9103C49.1008 44.1028 48.9781 44.2726 48.7995 44.3292L48.7772 44.3405L49.2571 44.9632ZM48.5317 44.1367C48.7325 44.1367 48.833 44.0688 48.833 43.9216C48.833 43.7971 48.7325 43.7291 48.5428 43.7291H48.487V44.1367H48.5317Z" fill="black"/>
<path fill-rule="evenodd" clip-rule="evenodd" d="M43.6547 45.4614V42.8235H42.6838V45.4614H39.8379V35.8948C39.8379 35.374 40.2508 34.9551 40.7642 34.9551H45.5631C46.0765 34.9551 46.4894 35.374 46.4894 35.8948V45.4614H43.6547ZM43.6547 41.5216V36.6759C43.6435 36.4042 43.4315 36.2004 43.1748 36.2004C42.907 36.2004 42.6949 36.4156 42.6949 36.6759V41.5102H43.6547V41.5216Z" fill="black"/>
</g>
<defs>
<clipPath id="clip0_2226_9964">
<rect width="42.9001" height="21.6807" fill="white" transform="translate(13.1885 23.8262)"/>
</clipPath>
</defs>
</svg>
