<?xml version="1.0" encoding="UTF-8"?>
<svg xmlns="http://www.w3.org/2000/svg" xmlns:xlink="http://www.w3.org/1999/xlink" width="76px" height="35px" viewBox="0 0 75 35" version="1.1">
<g id="surface1">
<path style=" stroke:none;fill-rule:evenodd;fill:rgb(0%,0%,0%);fill-opacity:1;" d="M 4.640625 12.730469 L 0.917969 12.730469 L 0.917969 1.015625 L 9.332031 1.015625 C 14.089844 1.375 15.730469 6.382812 11.667969 9.171875 C 12.636719 9.597656 13.589844 11.34375 13.699219 12.070312 L 13.699219 15.648438 L 10.023438 15.648438 L 10.023438 11.878906 C 10.023438 11.175781 9.179688 10.171875 8.378906 10.152344 L 5.546875 10.152344 L 5.546875 7.679688 L 8.8125 7.679688 C 10.648438 7.679688 11.339844 4.015625 8.8125 3.953125 L 4.640625 3.953125 Z M 4.640625 12.730469 "/>
<path style=" stroke:none;fill-rule:evenodd;fill:rgb(0%,0%,0%);fill-opacity:1;" d="M 25.464844 12.878906 L 19.148438 12.878906 C 13.980469 12.625 13.203125 4.953125 18.628906 3.996094 L 25.679688 3.996094 L 25.679688 6.277344 L 23.820312 9.449219 L 20.316406 9.449219 L 22.023438 6.53125 L 19.820312 6.53125 C 17.613281 6.703125 17.851562 9.960938 19.539062 9.984375 L 25.484375 9.984375 Z M 25.464844 12.878906 "/>
<path style=" stroke:none;fill-rule:evenodd;fill:rgb(0%,0%,0%);fill-opacity:1;" d="M 37.054688 12.878906 L 30.738281 12.878906 C 25.574219 12.625 24.792969 4.953125 30.222656 3.996094 L 37.25 3.996094 L 37.25 6.277344 L 35.390625 9.449219 L 31.886719 9.449219 L 33.59375 6.53125 L 31.367188 6.53125 C 29.160156 6.703125 29.398438 9.960938 31.085938 9.984375 L 37.035156 9.984375 Z M 37.054688 12.878906 "/>
<path style=" stroke:none;fill-rule:evenodd;fill:rgb(0%,0%,0%);fill-opacity:1;" d="M 38.4375 12.878906 L 44.820312 12.878906 C 51.71875 12.519531 50.160156 3.914062 45.792969 3.871094 L 42.9375 3.871094 L 42.9375 6.425781 L 44.839844 6.425781 C 46.871094 6.511719 46.71875 9.921875 44.773438 9.855469 L 42.289062 9.855469 L 42.289062 0.972656 L 38.460938 0.972656 Z M 38.4375 12.878906 "/>
<path style=" stroke:none;fill-rule:evenodd;fill:rgb(0%,0%,0%);fill-opacity:1;" d="M 62.183594 12.878906 L 62.183594 1.398438 L 66.183594 1.398438 L 66.183594 6.464844 L 66.75 6.464844 C 67.871094 6.445312 68.933594 5.507812 69.167969 4.144531 L 73.039062 4.144531 L 73.039062 4.589844 C 73.058594 6.1875 71.523438 7.0625 70.445312 7.742188 C 72.175781 7.789062 72.519531 9.320312 72.519531 10.386719 L 72.519531 12.878906 L 68.867188 12.878906 L 68.867188 10.640625 C 68.84375 9.875 68.238281 9.128906 67.289062 9.085938 L 66.054688 9.085938 L 66.054688 12.878906 Z M 62.183594 12.878906 "/>
<path style=" stroke:none;fill-rule:evenodd;fill:rgb(0%,0%,0%);fill-opacity:1;" d="M 3.992188 18.566406 L 27.300781 14.199219 L 53.035156 30.496094 C 38.480469 23.191406 23.949219 17.734375 3.992188 18.566406 Z M 3.992188 18.566406 "/>
<path style=" stroke:none;fill-rule:evenodd;fill:rgb(0%,0%,0%);fill-opacity:1;" d="M 10.4375 29.921875 L 19.605469 31.6875 C 23.085938 27.300781 27.996094 25.167969 33.183594 23.488281 L 27.238281 21.570312 C 21.355469 22.613281 15.796875 25.679688 10.4375 29.921875 Z M 10.4375 29.921875 "/>
<path style=" stroke:none;fill-rule:evenodd;fill:rgb(0%,0%,0%);fill-opacity:1;" d="M 22.933594 32.332031 L 32.125 34.097656 C 34.09375 30.027344 37.898438 27.496094 41.101562 26.042969 L 35.78125 24.320312 C 31.867188 24.832031 25.875 28.6875 22.933594 32.332031 Z M 22.933594 32.332031 "/>
<path style=" stroke:none;fill-rule:evenodd;fill:rgb(0%,0%,0%);fill-opacity:1;" d="M 36.882812 18.972656 L 44.773438 23.976562 C 53.535156 20.890625 61.792969 17.566406 71.246094 15.734375 C 59.804688 16.054688 48.34375 16.96875 36.882812 18.972656 Z M 36.882812 18.972656 "/>
<path style=" stroke:none;fill-rule:nonzero;fill:rgb(0%,0%,0%);fill-opacity:1;" d="M 68.304688 19.972656 L 68.304688 17.90625 L 69.0625 17.90625 C 69.210938 17.90625 69.339844 17.929688 69.40625 17.96875 C 69.492188 18.015625 69.535156 18.078125 69.601562 18.160156 C 69.644531 18.246094 69.667969 18.351562 69.667969 18.480469 C 69.667969 18.632812 69.625 18.757812 69.535156 18.863281 C 69.449219 18.972656 69.339844 19.015625 69.167969 19.054688 C 69.234375 19.097656 69.277344 19.144531 69.320312 19.164062 C 69.382812 19.25 69.449219 19.335938 69.492188 19.417969 L 69.796875 19.972656 L 69.515625 19.972656 L 69.277344 19.546875 C 69.1875 19.375 69.128906 19.269531 69.082031 19.207031 C 69.039062 19.144531 68.996094 19.097656 68.953125 19.078125 C 68.910156 19.054688 68.84375 19.054688 68.78125 19.054688 L 68.519531 19.054688 L 68.519531 19.972656 Z M 68.519531 18.824219 L 69.019531 18.824219 C 69.128906 18.824219 69.210938 18.800781 69.253906 18.78125 C 69.320312 18.757812 69.363281 18.714844 69.382812 18.652344 C 69.429688 18.589844 69.429688 18.527344 69.429688 18.460938 C 69.429688 18.351562 69.40625 18.269531 69.339844 18.207031 C 69.277344 18.140625 69.1875 18.121094 69.0625 18.121094 L 68.519531 18.121094 Z M 68.519531 18.824219 "/>
<path style=" stroke:none;fill-rule:evenodd;fill:rgb(0%,0%,0%);fill-opacity:1;" d="M 50.546875 8.410156 C 50.546875 10.921875 53.035156 12.964844 56.105469 12.964844 C 59.175781 12.964844 61.664062 10.921875 61.664062 8.410156 C 61.664062 5.894531 59.175781 3.851562 56.105469 3.851562 C 53.035156 3.851562 50.546875 5.894531 50.546875 8.410156 Z M 54.03125 8.410156 C 54.03125 9.386719 54.957031 10.175781 56.105469 10.175781 C 57.25 10.175781 58.179688 9.386719 58.179688 8.410156 C 58.179688 7.425781 57.25 6.640625 56.105469 6.640625 C 54.957031 6.640625 54.03125 7.425781 54.03125 8.410156 Z M 54.03125 8.410156 "/>
</g>
</svg>
