<svg width="69" height="90" viewBox="0 0 69 90" fill="none" xmlns="http://www.w3.org/2000/svg">
<path d="M13.3377 87C13.255 87 13.1847 86.9711 13.1268 86.9132C13.0689 86.8553 13.0399 86.785 13.0399 86.7023V78.6261C13.0399 78.5351 13.0689 78.4607 13.1268 78.4028C13.1847 78.3449 13.255 78.3159 13.3377 78.3159H16.5508C17.5515 78.3159 18.3413 78.5475 18.9203 79.0107C19.4992 79.4738 19.7887 80.1479 19.7887 81.0328C19.7887 81.6448 19.6357 82.1535 19.3297 82.5587C19.0319 82.964 18.6308 83.2576 18.1263 83.4395L19.9375 86.603C19.9623 86.6526 19.9748 86.6981 19.9748 86.7395C19.9748 86.8139 19.9458 86.8759 19.8879 86.9256C19.8383 86.9752 19.7804 87 19.7142 87H18.5853C18.4447 87 18.3372 86.9628 18.2628 86.8883C18.1883 86.8139 18.1304 86.7395 18.0891 86.665L16.4887 83.7249H14.7643V86.7023C14.7643 86.785 14.7354 86.8553 14.6775 86.9132C14.6279 86.9711 14.5576 87 14.4666 87H13.3377ZM14.7643 82.323H16.5135C17.018 82.323 17.3944 82.2114 17.6425 81.9881C17.8906 81.7565 18.0146 81.4339 18.0146 81.0204C18.0146 80.6069 17.8906 80.2843 17.6425 80.0528C17.4026 79.8129 17.0263 79.693 16.5135 79.693H14.7643V82.323ZM23.9445 87.1241C23.0265 87.1241 22.2987 86.8594 21.7611 86.3301C21.2235 85.8008 20.934 85.0482 20.8927 84.0722C20.8844 83.9895 20.8803 83.8861 20.8803 83.7621C20.8803 83.6298 20.8844 83.5264 20.8927 83.4519C20.9258 82.8234 21.0664 82.2858 21.3145 81.8392C21.5709 81.3843 21.9224 81.0369 22.369 80.7971C22.8156 80.549 23.3408 80.4249 23.9445 80.4249C24.6144 80.4249 25.1768 80.5655 25.6317 80.8467C26.0866 81.1197 26.4298 81.5042 26.6614 82.0005C26.893 82.4884 27.0087 83.055 27.0087 83.7001V83.9606C27.0087 84.0433 26.9798 84.1136 26.9219 84.1715C26.864 84.2294 26.7896 84.2583 26.6986 84.2583H22.5799C22.5799 84.2583 22.5799 84.2707 22.5799 84.2955C22.5799 84.3203 22.5799 84.341 22.5799 84.3576C22.5881 84.647 22.6419 84.9158 22.7411 85.1639C22.8487 85.4038 23.0017 85.5981 23.2002 85.747C23.4069 85.8959 23.6509 85.9703 23.9321 85.9703C24.1637 85.9703 24.358 85.9372 24.5152 85.8711C24.6723 85.7966 24.8005 85.7139 24.8998 85.623C24.999 85.532 25.0693 85.4575 25.1107 85.3997C25.1851 85.3004 25.243 85.2425 25.2843 85.226C25.334 85.2012 25.4043 85.1888 25.4952 85.1888H26.5621C26.6448 85.1888 26.711 85.2136 26.7606 85.2632C26.8185 85.3128 26.8433 85.3748 26.8351 85.4493C26.8268 85.5816 26.7565 85.7429 26.6242 85.9331C26.5001 86.1233 26.3182 86.3094 26.0783 86.4914C25.8385 86.6733 25.5366 86.8263 25.1727 86.9504C24.8171 87.0662 24.4077 87.1241 23.9445 87.1241ZM22.5799 83.2162H25.3216V83.179C25.3216 82.8565 25.2678 82.5753 25.1603 82.3354C25.0528 82.0873 24.8956 81.8971 24.6889 81.7648C24.4821 81.6242 24.234 81.5539 23.9445 81.5539C23.655 81.5539 23.4069 81.6242 23.2002 81.7648C22.9934 81.8971 22.8363 82.0873 22.7287 82.3354C22.6295 82.5753 22.5799 82.8565 22.5799 83.179V83.2162ZM31.1045 87.1241C30.1865 87.1241 29.4587 86.8594 28.9211 86.3301C28.3835 85.8008 28.094 85.0482 28.0527 84.0722C28.0444 83.9895 28.0403 83.8861 28.0403 83.7621C28.0403 83.6298 28.0444 83.5264 28.0527 83.4519C28.0858 82.8234 28.2263 82.2858 28.4745 81.8392C28.7309 81.3843 29.0823 81.0369 29.529 80.7971C29.9756 80.549 30.5007 80.4249 31.1045 80.4249C31.7744 80.4249 32.3368 80.5655 32.7917 80.8467C33.2466 81.1197 33.5898 81.5042 33.8214 82.0005C34.0529 82.4884 34.1687 83.055 34.1687 83.7001V83.9606C34.1687 84.0433 34.1398 84.1136 34.0819 84.1715C34.024 84.2294 33.9496 84.2583 33.8586 84.2583H29.7399C29.7399 84.2583 29.7399 84.2707 29.7399 84.2955C29.7399 84.3203 29.7399 84.341 29.7399 84.3576C29.7481 84.647 29.8019 84.9158 29.9011 85.1639C30.0086 85.4038 30.1617 85.5981 30.3601 85.747C30.5669 85.8959 30.8109 85.9703 31.0921 85.9703C31.3237 85.9703 31.518 85.9372 31.6752 85.8711C31.8323 85.7966 31.9605 85.7139 32.0597 85.623C32.159 85.532 32.2293 85.4575 32.2706 85.3997C32.3451 85.3004 32.403 85.2425 32.4443 85.226C32.4939 85.2012 32.5642 85.1888 32.6552 85.1888H33.7221C33.8048 85.1888 33.871 85.2136 33.9206 85.2632C33.9785 85.3128 34.0033 85.3748 33.995 85.4493C33.9868 85.5816 33.9165 85.7429 33.7841 85.9331C33.6601 86.1233 33.4781 86.3094 33.2383 86.4914C32.9984 86.6733 32.6966 86.8263 32.3327 86.9504C31.977 87.0662 31.5676 87.1241 31.1045 87.1241ZM29.7399 83.2162H32.4815V83.179C32.4815 82.8565 32.4278 82.5753 32.3203 82.3354C32.2127 82.0873 32.0556 81.8971 31.8488 81.7648C31.6421 81.6242 31.394 81.5539 31.1045 81.5539C30.815 81.5539 30.5669 81.6242 30.3601 81.7648C30.1534 81.8971 29.9962 82.0873 29.8887 82.3354C29.7895 82.5753 29.7399 82.8565 29.7399 83.179V83.2162ZM39.0584 87.1241C38.5788 87.1241 38.1776 87.0414 37.8551 86.8759C37.5408 86.7105 37.2803 86.4996 37.0735 86.2432V86.7023C37.0735 86.785 37.0446 86.8553 36.9867 86.9132C36.9371 86.9711 36.8668 87 36.7758 87H35.7957C35.713 87 35.6427 86.9711 35.5848 86.9132C35.5269 86.8553 35.498 86.785 35.498 86.7023V78.4896C35.498 78.4069 35.5269 78.3366 35.5848 78.2787C35.6427 78.2208 35.713 78.1919 35.7957 78.1919H36.8502C36.9412 78.1919 37.0115 78.2208 37.0611 78.2787C37.119 78.3366 37.148 78.4069 37.148 78.4896V81.2437C37.3547 81.0039 37.6111 80.8095 37.9171 80.6606C38.2314 80.5035 38.6118 80.4249 39.0584 80.4249C39.4968 80.4249 39.8772 80.4994 40.1998 80.6482C40.5223 80.7971 40.7911 81.008 41.0062 81.2809C41.2295 81.5456 41.399 81.8557 41.5148 82.2114C41.6306 82.567 41.6926 82.9516 41.7009 83.3651C41.7092 83.514 41.7133 83.6504 41.7133 83.7745C41.7133 83.8903 41.7092 84.0226 41.7009 84.1715C41.6843 84.6015 41.6182 84.9985 41.5024 85.3624C41.3866 85.7181 41.2212 86.0282 41.0062 86.2929C40.7911 86.5575 40.5223 86.7643 40.1998 86.9132C39.8772 87.0538 39.4968 87.1241 39.0584 87.1241ZM38.5994 85.7966C38.9551 85.7966 39.2321 85.7222 39.4306 85.5733C39.6291 85.4162 39.7738 85.2136 39.8648 84.9655C39.9558 84.7173 40.0096 84.4444 40.0261 84.1467C40.0344 83.8986 40.0344 83.6504 40.0261 83.4023C40.0096 83.1046 39.9558 82.8317 39.8648 82.5835C39.7738 82.3354 39.6291 82.1369 39.4306 81.9881C39.2321 81.8309 38.9551 81.7524 38.5994 81.7524C38.2686 81.7524 37.9998 81.8268 37.7931 81.9757C37.5863 82.1245 37.4292 82.3147 37.3216 82.5463C37.2141 82.7696 37.1562 83.0053 37.148 83.2535C37.1397 83.4023 37.1356 83.5636 37.1356 83.7373C37.1356 83.9027 37.1397 84.0598 37.148 84.2087C37.1645 84.4651 37.2183 84.7173 37.3092 84.9655C37.4085 85.2053 37.5615 85.4038 37.7682 85.5609C37.9833 85.7181 38.2603 85.7966 38.5994 85.7966ZM45.9471 87.1241C45.2855 87.1241 44.7272 87.0083 44.2724 86.7767C43.8258 86.5451 43.4825 86.2184 43.2427 85.7966C43.0111 85.3748 42.8788 84.8827 42.8457 84.3203C42.8374 84.1715 42.8333 83.9895 42.8333 83.7745C42.8333 83.5595 42.8374 83.3775 42.8457 83.2286C42.8788 82.658 43.0152 82.1659 43.2551 81.7524C43.5032 81.3306 43.8506 81.0039 44.2972 80.7723C44.7521 80.5407 45.302 80.4249 45.9471 80.4249C46.5923 80.4249 47.1381 80.5407 47.5847 80.7723C48.0396 81.0039 48.387 81.3306 48.6268 81.7524C48.8749 82.1659 49.0155 82.658 49.0486 83.2286C49.0569 83.3775 49.061 83.5595 49.061 83.7745C49.061 83.9895 49.0569 84.1715 49.0486 84.3203C49.0155 84.8827 48.8791 85.3748 48.6392 85.7966C48.4076 86.2184 48.0644 86.5451 47.6095 86.7767C47.1629 87.0083 46.6088 87.1241 45.9471 87.1241ZM45.9471 85.8959C46.3855 85.8959 46.7246 85.7594 46.9644 85.4865C47.2043 85.2053 47.3366 84.7959 47.3614 84.2583C47.3697 84.1343 47.3738 83.973 47.3738 83.7745C47.3738 83.576 47.3697 83.4147 47.3614 83.2907C47.3366 82.7531 47.2043 82.3478 46.9644 82.0749C46.7246 81.7937 46.3855 81.6531 45.9471 81.6531C45.5088 81.6531 45.1697 81.7937 44.9299 82.0749C44.69 82.3478 44.5577 82.7531 44.5329 83.2907C44.5246 83.4147 44.5205 83.576 44.5205 83.7745C44.5205 83.973 44.5246 84.1343 44.5329 84.2583C44.5577 84.7959 44.69 85.2053 44.9299 85.4865C45.1697 85.7594 45.5088 85.8959 45.9471 85.8959ZM50.7457 87C50.663 87 50.5927 86.9711 50.5348 86.9132C50.4769 86.8553 50.4479 86.785 50.4479 86.7023V78.4896C50.4479 78.4069 50.4769 78.3366 50.5348 78.2787C50.5927 78.2208 50.663 78.1919 50.7457 78.1919H51.7505C51.8415 78.1919 51.9118 78.2208 51.9614 78.2787C52.0193 78.3366 52.0483 78.4069 52.0483 78.4896V82.7324L54.1325 80.7599C54.2152 80.6937 54.2813 80.6441 54.3309 80.611C54.3888 80.5697 54.4757 80.549 54.5915 80.549H55.7452C55.8279 80.549 55.8941 80.5738 55.9437 80.6234C55.9933 80.673 56.0181 80.7392 56.0181 80.8219C56.0181 80.855 56.0099 80.8922 55.9933 80.9336C55.9768 80.9749 55.9437 81.0121 55.8941 81.0452L53.3385 83.4395L56.2042 86.5162C56.2869 86.5989 56.3283 86.6692 56.3283 86.7271C56.3283 86.8098 56.2993 86.8759 56.2414 86.9256C56.1918 86.9752 56.1298 87 56.0554 87H54.8768C54.7527 87 54.6618 86.9835 54.6039 86.9504C54.5542 86.909 54.4922 86.8553 54.4178 86.7891L52.0483 84.2955V86.7023C52.0483 86.785 52.0193 86.8553 51.9614 86.9132C51.9118 86.9711 51.8415 87 51.7505 87H50.7457Z" fill="black"/>
<circle cx="34.5573" cy="34.6814" r="33.7282" stroke="black" stroke-width="0.775362"/>
<g clip-path="url(#clip0_2226_9928)">
<path fill-rule="evenodd" clip-rule="evenodd" d="M15.7877 32.4554H13.6221V25.7197H18.5199C21.2898 25.9279 22.2467 28.8059 19.8797 30.4102C20.4462 30.6551 21.0002 31.6594 21.0632 32.0757V34.1332H18.9228V31.9655C18.9228 31.5614 18.4317 30.9858 17.9659 30.9735H16.3165V29.5529H18.2177C19.2879 29.5529 19.6908 27.4465 18.2177 27.4098H15.7877V32.4554Z" fill="black"/>
<path fill-rule="evenodd" clip-rule="evenodd" d="M27.9125 32.5414H24.236C21.2268 32.3945 20.7735 27.9857 23.9338 27.4346H28.0384V28.745L26.9556 30.5697H24.9159L25.9105 28.8919H24.6263C23.342 28.9899 23.4805 30.8636 24.4626 30.8759H27.9251L27.9125 32.5414Z" fill="black"/>
<path fill-rule="evenodd" clip-rule="evenodd" d="M34.6625 32.5414H30.986C27.9768 32.3945 27.5235 27.9857 30.6838 27.4346H34.7758V28.745L33.693 30.5697H31.6533L32.648 28.8919H31.3511C30.0669 28.9899 30.2053 30.8636 31.1874 30.8759H34.6499L34.6625 32.5414Z" fill="black"/>
<path fill-rule="evenodd" clip-rule="evenodd" d="M35.4668 32.5412H39.1811C43.1975 32.333 42.291 27.3854 39.7476 27.3609H38.0857V28.8305H39.1937C40.3772 28.8794 40.289 30.8389 39.1559 30.8022H37.7079V25.6953H35.4794L35.4668 32.5412Z" fill="black"/>
<path fill-rule="evenodd" clip-rule="evenodd" d="M49.292 32.5414V25.9404H51.6213V28.8551H51.9486C52.6034 28.8429 53.2203 28.304 53.3588 27.5203H55.6125V27.7774C55.6251 28.6959 54.7312 29.198 54.1017 29.5899C55.1089 29.6144 55.3104 30.4962 55.3104 31.1085V32.5414H53.1825V31.2555C53.1699 30.8146 52.8174 30.386 52.2634 30.3615H51.5457V32.5414H49.292Z" fill="black"/>
<path fill-rule="evenodd" clip-rule="evenodd" d="M15.4102 35.8113L28.983 33.3008L43.9659 42.6695C35.4924 38.4689 27.0314 35.3337 15.4102 35.8113Z" fill="black"/>
<path fill-rule="evenodd" clip-rule="evenodd" d="M19.1631 42.3388L24.5016 43.3553C26.5287 40.8324 29.3868 39.6078 32.4085 38.6403L28.9461 37.5381C25.5214 38.1382 22.2856 39.9017 19.1631 42.3388Z" fill="black"/>
<path fill-rule="evenodd" clip-rule="evenodd" d="M26.4395 43.7219L31.7905 44.7384C32.9363 42.3993 35.1522 40.9419 37.0157 40.1092L33.9183 39.1172C31.6394 39.4111 28.1518 41.6278 26.4395 43.7219Z" fill="black"/>
<path fill-rule="evenodd" clip-rule="evenodd" d="M34.5615 36.0441L39.1571 38.9221C44.2564 37.1463 49.066 35.2358 54.5682 34.1826C47.9077 34.3663 41.2346 34.8929 34.5615 36.0441Z" fill="black"/>
<path d="M52.8555 36.6196V35.4316H53.2961C53.3843 35.4316 53.4598 35.4439 53.4976 35.4684C53.548 35.4929 53.5731 35.5296 53.6109 35.5786C53.6361 35.6276 53.6487 35.6888 53.6487 35.7623C53.6487 35.848 53.6235 35.9215 53.5731 35.9827C53.5228 36.044 53.4598 36.0685 53.3591 36.093C53.3969 36.1175 53.422 36.1419 53.4472 36.1542C53.485 36.2032 53.5228 36.2522 53.548 36.3012L53.7242 36.6196H53.5606L53.4221 36.3746C53.3717 36.2767 53.3339 36.2154 53.3087 36.1787C53.2836 36.1419 53.2584 36.1175 53.2332 36.1052C53.208 36.093 53.1702 36.093 53.1325 36.093H52.9814V36.6196H52.8555ZM52.9814 35.9582H53.271C53.3339 35.9582 53.3843 35.946 53.4095 35.9338C53.4472 35.9215 53.4724 35.897 53.485 35.8603C53.5102 35.8235 53.5102 35.7868 53.5102 35.7501C53.5102 35.6888 53.4976 35.6398 53.4598 35.6031C53.4221 35.5664 53.3717 35.5541 53.2961 35.5541H52.9814V35.9582Z" fill="black"/>
<path fill-rule="evenodd" clip-rule="evenodd" d="M42.5176 29.9694C42.5176 31.4145 43.9655 32.5902 45.7534 32.5902C47.5413 32.5902 48.9892 31.4145 48.9892 29.9694C48.9892 28.5243 47.5413 27.3486 45.7534 27.3486C43.9655 27.3486 42.5176 28.5243 42.5176 29.9694ZM44.5441 29.9695C44.5441 30.5328 45.0855 30.986 45.7528 30.986C46.4201 30.986 46.9615 30.5328 46.9615 29.9695C46.9615 29.4061 46.4201 28.953 45.7528 28.953C45.0855 28.953 44.5441 29.4061 44.5441 29.9695Z" fill="black"/>
</g>
<defs>
<clipPath id="clip0_2226_9928">
<rect width="41.9775" height="19.3742" fill="white" transform="translate(13.6221 25.377)"/>
</clipPath>
</defs>
</svg>
