<svg width="43" height="20" viewBox="0 0 43 20" fill="none" xmlns="http://www.w3.org/2000/svg">
<path fill-rule="evenodd" clip-rule="evenodd" d="M2.48318 7.27398H0.330688V0.579102H5.19883C7.95201 0.786034 8.90311 3.64657 6.55039 5.24117C7.11354 5.48462 7.66418 6.48277 7.72675 6.89663V8.94162H5.59929V6.78708C5.59929 6.38539 5.11122 5.81328 4.64819 5.80111H3.00879V4.3891H4.89848C5.96221 4.3891 6.36267 2.29543 4.89848 2.25891H2.48318V7.27398Z" fill="black"/>
<path fill-rule="evenodd" clip-rule="evenodd" d="M14.5345 7.36012H10.8803C7.88934 7.21405 7.43881 2.83194 10.58 2.28418H14.6597V3.58664L13.5834 5.40034H11.5561L12.5447 3.73271H11.2682C9.99177 3.83009 10.1294 5.69248 11.1056 5.70466H14.547L14.5345 7.36012Z" fill="black"/>
<path fill-rule="evenodd" clip-rule="evenodd" d="M21.2423 7.36012H17.5881C14.5971 7.21405 14.1466 2.83194 17.2877 2.28418H21.3549V3.58664L20.2787 5.40034H18.2513L19.24 3.73271H17.951C16.6745 3.83009 16.8122 5.69248 17.7883 5.70466H21.2298L21.2423 7.36012Z" fill="black"/>
<path fill-rule="evenodd" clip-rule="evenodd" d="M22.0432 7.3601H25.735C29.7271 7.15317 28.8261 2.23547 26.2981 2.21113H24.6462V3.67183H25.7475C26.9239 3.72052 26.8363 5.66812 25.71 5.6316H24.2708V0.555664H22.0557L22.0432 7.3601Z" fill="black"/>
<path fill-rule="evenodd" clip-rule="evenodd" d="M35.7844 7.35883V0.797852H38.0996V3.69491H38.425C39.0757 3.68274 39.6889 3.14715 39.8266 2.36811H42.0667V2.62373C42.0792 3.53667 41.1907 4.03574 40.565 4.42526C41.5661 4.4496 41.7664 5.32603 41.7664 5.93465V7.35883H39.6514V6.08072C39.6389 5.64251 39.2885 5.21647 38.7378 5.19213H38.0245V7.35883H35.7844Z" fill="black"/>
<path fill-rule="evenodd" clip-rule="evenodd" d="M2.10754 10.6096L15.5982 8.11426L30.4904 17.4262C22.0682 13.2511 13.6584 10.1349 2.10754 10.6096Z" fill="black"/>
<path fill-rule="evenodd" clip-rule="evenodd" d="M5.8374 17.0978L11.1435 18.1081C13.1584 15.6006 15.9992 14.3833 19.0026 13.4217L15.5612 12.3262C12.1572 12.9226 8.941 14.6755 5.8374 17.0978Z" fill="black"/>
<path fill-rule="evenodd" clip-rule="evenodd" d="M13.0707 18.4743L18.3893 19.4846C19.5282 17.1597 21.7307 15.7112 23.5828 14.8834L20.5043 13.8975C18.2392 14.1896 14.7726 16.3928 13.0707 18.4743Z" fill="black"/>
<path fill-rule="evenodd" clip-rule="evenodd" d="M21.1423 10.8414L25.7101 13.702C30.7785 11.937 35.559 10.038 41.0279 8.99121C34.4077 9.1738 27.775 9.69722 21.1423 10.8414Z" fill="black"/>
<path d="M39.326 11.4132V10.2324H39.7641C39.8517 10.2324 39.9267 10.2446 39.9643 10.2689C40.0143 10.2933 40.0394 10.3298 40.0769 10.3785C40.1019 10.4272 40.1145 10.488 40.1145 10.5611C40.1145 10.6463 40.0894 10.7193 40.0394 10.7802C39.9893 10.841 39.9267 10.8654 39.8266 10.8897C39.8642 10.9141 39.8892 10.9384 39.9142 10.9506C39.9518 10.9993 39.9893 11.048 40.0143 11.0967L40.1895 11.4132H40.0269L39.8892 11.1697C39.8391 11.0723 39.8016 11.0115 39.7766 10.9749C39.7515 10.9384 39.7265 10.9141 39.7015 10.9019C39.6765 10.8897 39.6389 10.8897 39.6014 10.8897H39.4512V11.4132H39.326ZM39.4512 10.7558H39.739C39.8016 10.7558 39.8517 10.7437 39.8767 10.7315C39.9142 10.7193 39.9393 10.695 39.9518 10.6585C39.9768 10.6219 39.9768 10.5854 39.9768 10.5489C39.9768 10.488 39.9643 10.4394 39.9267 10.4028C39.8892 10.3663 39.8391 10.3541 39.7641 10.3541H39.4512V10.7558Z" fill="black"/>
<path fill-rule="evenodd" clip-rule="evenodd" d="M29.0509 4.80414C29.0509 6.24049 30.4901 7.40905 32.2671 7.40905C34.0442 7.40905 35.4834 6.24049 35.4834 4.80414C35.4834 3.36778 34.0442 2.19922 32.2671 2.19922C30.4901 2.19922 29.0509 3.36778 29.0509 4.80414ZM31.0658 4.80422C31.0658 5.36415 31.604 5.81453 32.2672 5.81453C32.9305 5.81453 33.4686 5.36415 33.4686 4.80422C33.4686 4.24428 32.9305 3.7939 32.2672 3.7939C31.604 3.7939 31.0658 4.24428 31.0658 4.80422Z" fill="black"/>
</svg>
