<svg width="61" height="6" viewBox="0 0 61 6" fill="none" xmlns="http://www.w3.org/2000/svg">
<g clip-path="url(#clip0_1389_7958)">
<path d="M7.86231 2.93734C8.21469 2.15061 7.73417 1.84556 6.58091 1.84556H4.6588C4.24235 1.84556 4.14624 1.81345 4.24235 1.60473L4.3865 1.29967C4.46659 1.107 4.59473 1.05884 5.01119 1.05884H7.54196C8.07054 1.05884 8.27876 1.12306 8.56708 1.23545L8.82336 0.175781H3.79385C2.8328 0.175781 2.07998 0.609281 1.71157 1.46023L1.16698 2.66439C0.750522 3.5635 1.05485 3.82039 2.12803 3.82039H4.33845C4.75491 3.82039 4.83499 3.86856 4.73889 4.06123L4.54668 4.4305C4.46659 4.62317 4.35447 4.67134 3.92199 4.67134H1.31114C0.766539 4.67134 0.558311 4.575 0.334066 4.46261L0.0617676 5.57045H4.96313C6.26055 5.57045 6.86922 5.08878 7.26966 4.25389L7.86231 2.93734Z" fill="black"/>
<path d="M21.0131 3.22634C21.6378 3.22634 21.9101 3.30661 22.1824 3.37084L22.727 2.19878C22.4066 2.263 22.0542 2.34328 21.4295 2.34328H19.4914L20.068 1.09095H22.2785C22.9192 1.09095 23.1915 1.17123 23.4477 1.23545L23.704 0.207892H17.5373C17.5853 0.416615 17.5693 0.625337 17.3451 1.12306L15.7433 4.65528C15.5992 4.97639 15.471 5.16906 15.3429 5.32961C15.1827 5.04061 15.0546 4.7195 14.9745 4.47867L14.0935 1.76528L15.8875 0.705615C16.4 0.400559 16.6883 0.304226 17.0728 0.175781H14.59C14.574 0.240003 14.558 0.304226 14.526 0.384503C14.4459 0.561115 14.3177 0.689559 13.8853 0.962503L11.2584 2.60017L11.9311 1.107C12.1714 0.593226 12.3476 0.400559 12.5718 0.191837H9.40036C9.44842 0.400559 9.4324 0.609281 9.20815 1.107L7.6064 4.63923C7.38215 5.153 7.18994 5.34567 6.9657 5.57045H10.1212C10.0891 5.34567 10.0891 5.153 10.3134 4.63923L10.6818 3.83645L11.5787 3.29056L12.1233 5.57045H21.3174L22.0382 4.52684C21.7339 4.59106 21.3815 4.67134 20.7568 4.67134H18.3862L19.0429 3.22634H21.0131Z" fill="black"/>
<path d="M29.1492 4.25389C29.1492 4.25389 28.2843 4.46261 27.2111 4.44656C27.2111 4.44656 26.1539 4.44656 25.9457 4.44656C25.6734 4.44656 25.5933 4.36628 25.6894 4.10939C25.7855 3.8525 26.8427 1.58867 26.8427 1.58867C26.8747 1.50839 27.0189 1.28361 27.3552 1.28361H29.3574C29.854 1.28361 30.3025 1.44417 30.3025 1.44417L30.6228 0.207892H30.6068L30.6228 0.175781H26.3461C25.1768 0.175781 24.3439 0.593226 23.8154 1.74923L22.8063 3.96489C22.2777 5.12089 22.7262 5.53834 23.8954 5.53834H28.2843L29.1492 4.25389Z" fill="black"/>
<path d="M36.902 4.63977L38.5198 1.10755C38.744 0.593772 38.9362 0.401105 39.1605 0.192383H36.005C36.037 0.401105 36.037 0.609827 35.8128 1.10755L35.2522 2.34383H33.218L33.7786 1.10755C34.0188 0.593772 34.195 0.401105 34.4193 0.192383H31.2638C31.2959 0.401105 31.2959 0.593772 31.0556 1.10755L29.4538 4.63977C29.2136 5.15355 29.0374 5.34622 28.7971 5.57099H31.9526C31.9205 5.36227 31.9205 5.15355 32.1608 4.63977L32.8015 3.22688H34.8197L34.179 4.63977C33.9387 5.15355 33.7626 5.34622 33.5383 5.57099H36.6938C36.6617 5.34622 36.6777 5.13749 36.902 4.63977Z" fill="black"/>
<path d="M42.6048 4.67243H40.2503L40.907 3.22743H42.8451C43.4698 3.22743 43.7421 3.30771 43.9984 3.37193L44.543 2.19987C44.2226 2.2641 43.8702 2.34437 43.2616 2.34437H41.3234L41.9001 1.09204H44.1105C44.7512 1.09204 45.0235 1.17232 45.2798 1.23654L45.52 0.208984H39.3533C39.3853 0.417707 39.3853 0.626429 39.145 1.12415L37.5433 4.65637C37.303 5.17015 37.1268 5.36282 36.9026 5.5876H43.1815L43.9023 4.54398C43.5979 4.59215 43.2455 4.67243 42.6048 4.67243Z" fill="black"/>
<path d="M51.3818 3.21071C51.9745 3.1786 52.5031 3.13043 52.8715 2.34371L53.32 1.34827C53.7364 0.449156 53.2559 0.160156 52.0225 0.160156H46.1761C46.2883 0.368878 46.2722 0.577601 46.048 1.07532L44.4462 4.60755C44.206 5.12132 44.0298 5.31399 43.8055 5.53877H46.961C46.929 5.33005 46.929 5.12132 47.1532 4.60755L47.7939 3.19466H48.6268L48.8511 5.53877H51.8944C51.7502 5.33005 51.7502 5.0571 51.6862 4.71993L51.3818 3.21071ZM50.597 1.36432L50.3087 2.0226C50.1965 2.27949 50.0684 2.32766 49.716 2.32766H48.1783L48.755 1.07532H50.2766C50.645 1.07532 50.7251 1.10743 50.597 1.36432Z" fill="black"/>
<path d="M56.4275 1.3001C56.5236 1.10743 56.6357 1.05927 57.0682 1.05927H59.599C60.1275 1.05927 60.3358 1.12349 60.6241 1.23588L60.9765 0.160156H55.8348C54.8738 0.160156 54.137 0.593656 53.7526 1.4446L53.208 2.64877C52.7915 3.54788 53.0958 3.80477 54.169 3.80477H56.3794C56.7959 3.80477 56.876 3.85293 56.7799 4.0456L56.6037 4.41488C56.5236 4.60755 56.4115 4.65571 55.979 4.65571H53.3521C52.8235 4.65571 52.5993 4.55938 52.3751 4.44699L52.1188 5.53877H57.0201C58.3336 5.53877 58.9422 5.0571 59.3267 4.22221L59.9193 2.90566C60.2717 2.11893 59.7912 1.81388 58.6379 1.81388H56.7158C56.2833 1.81388 56.2032 1.78177 56.2994 1.57305L56.4275 1.3001Z" fill="black"/>
<path d="M59.4234 4.75195C59.6476 4.75195 59.8238 4.92856 59.8238 5.15334C59.8238 5.37812 59.6476 5.55473 59.4234 5.55473C59.1991 5.55473 59.0229 5.37812 59.0229 5.15334C59.0229 4.92856 59.1991 4.75195 59.4234 4.75195ZM59.4234 4.83223C59.2632 4.83223 59.1191 4.97673 59.1191 5.15334C59.1191 5.32995 59.2472 5.47445 59.4234 5.47445C59.5996 5.47445 59.7277 5.32995 59.7277 5.15334C59.7277 4.97673 59.5996 4.83223 59.4234 4.83223ZM59.3593 5.39418H59.2632V4.94462C59.2952 4.94462 59.3433 4.92856 59.4074 4.92856C59.4875 4.92856 59.5355 4.94462 59.5675 4.96068C59.5996 4.97673 59.5996 5.00884 59.5996 5.05701C59.5996 5.10518 59.5675 5.15334 59.5195 5.15334C59.5515 5.15334 59.5836 5.20151 59.5836 5.26573C59.5996 5.32995 59.5996 5.36206 59.6156 5.37812H59.5195C59.5035 5.36206 59.5035 5.32995 59.4875 5.26573C59.4875 5.21756 59.4554 5.20151 59.4074 5.20151H59.3593V5.39418ZM59.3593 5.13729H59.4074C59.4554 5.13729 59.5035 5.12123 59.5035 5.07306C59.5035 5.04095 59.4714 5.00884 59.4074 5.00884C59.3914 5.00884 59.3753 5.00884 59.3593 5.00884V5.13729Z" fill="black"/>
</g>
<defs>
<clipPath id="clip0_1389_7958">
<rect width="60.8827" height="5.39467" fill="white" transform="translate(0.0639648 0.175781)"/>
</clipPath>
</defs>
</svg>
