<?xml version="1.0" encoding="UTF-8"?>
<svg xmlns="http://www.w3.org/2000/svg"
  xmlns:xlink="http://www.w3.org/1999/xlink" width="108px" height="11px" viewBox="0 0 111 11" version="1.1">
  <defs>
    <clipPath id="clip1">
      <path d="M 0.117188 0.324219 L 16.167969 0.324219 L 16.167969 10.210938 L 0.117188 10.210938 Z M 0.117188 0.324219 "/>
    </clipPath>
    <clipPath id="clip2">
      <path d="M 12.671875 0.324219 L 43.265625 0.324219 L 43.265625 10.210938 L 12.671875 10.210938 Z M 12.671875 0.324219 "/>
    </clipPath>
    <clipPath id="clip3">
      <path d="M 41.078125 0.324219 L 55.9375 0.324219 L 55.9375 10.210938 L 41.078125 10.210938 Z M 41.078125 0.324219 "/>
    </clipPath>
    <clipPath id="clip4">
      <path d="M 52.222656 0.324219 L 71.449219 0.324219 L 71.449219 10.210938 L 52.222656 10.210938 Z M 52.222656 0.324219 "/>
    </clipPath>
    <clipPath id="clip5">
      <path d="M 67.082031 0.324219 L 83 0.324219 L 83 10.210938 L 67.082031 10.210938 Z M 67.082031 0.324219 "/>
    </clipPath>
    <clipPath id="clip6">
      <path d="M 79.535156 0.324219 L 97.453125 0.324219 L 97.453125 10.210938 L 79.535156 10.210938 Z M 79.535156 0.324219 "/>
    </clipPath>
    <clipPath id="clip7">
      <path d="M 94.832031 0.324219 L 110.902344 0.324219 L 110.902344 10.210938 L 94.832031 10.210938 Z M 94.832031 0.324219 "/>
    </clipPath>
    <clipPath id="clip8">
      <path d="M 107.285156 8.578125 L 109 8.578125 L 109 10.210938 L 107.285156 10.210938 Z M 107.285156 8.578125 "/>
    </clipPath>
  </defs>
  <g id="surface1">
    <g clip-path="url(#clip1)" clip-rule="nonzero">
      <path style=" stroke:none;fill-rule:nonzero;fill:rgb(0%,0%,0%);fill-opacity:1;" d="M 14.308594 5.386719 C 14.949219 3.941406 14.074219 3.382812 11.976562 3.382812 L 8.476562 3.382812 C 7.71875 3.382812 7.546875 3.324219 7.71875 2.941406 L 7.980469 2.382812 C 8.128906 2.03125 8.359375 1.941406 9.117188 1.941406 L 13.722656 1.941406 C 14.6875 1.941406 15.066406 2.058594 15.589844 2.265625 L 16.054688 0.324219 L 6.902344 0.324219 C 5.15625 0.324219 3.785156 1.117188 3.113281 2.675781 L 2.125 4.882812 C 1.367188 6.53125 1.917969 7.003906 3.871094 7.003906 L 7.894531 7.003906 C 8.652344 7.003906 8.796875 7.09375 8.625 7.445312 L 8.273438 8.121094 C 8.128906 8.476562 7.921875 8.566406 7.136719 8.566406 L 2.386719 8.566406 C 1.394531 8.566406 1.015625 8.386719 0.609375 8.179688 L 0.113281 10.210938 L 9.03125 10.210938 C 11.390625 10.210938 12.5 9.328125 13.226562 7.800781 Z M 14.308594 5.386719 "/>
    </g>
    <g clip-path="url(#clip2)" clip-rule="nonzero">
      <path style=" stroke:none;fill-rule:nonzero;fill:rgb(0%,0%,0%);fill-opacity:1;" d="M 38.238281 5.914062 C 39.375 5.914062 39.871094 6.0625 40.363281 6.179688 L 41.355469 4.03125 C 40.773438 4.148438 40.132812 4.296875 38.996094 4.296875 L 35.46875 4.296875 L 36.515625 2 L 40.539062 2 C 41.707031 2 42.199219 2.148438 42.667969 2.265625 L 43.132812 0.382812 L 31.910156 0.382812 C 32 0.765625 31.972656 1.144531 31.5625 2.058594 L 28.648438 8.535156 C 28.386719 9.125 28.152344 9.476562 27.917969 9.769531 C 27.628906 9.242188 27.394531 8.652344 27.25 8.210938 L 25.644531 3.238281 L 28.910156 1.292969 C 29.84375 0.734375 30.367188 0.558594 31.066406 0.324219 L 26.550781 0.324219 C 26.519531 0.441406 26.492188 0.558594 26.433594 0.703125 C 26.285156 1.027344 26.054688 1.265625 25.265625 1.765625 L 20.488281 4.765625 L 21.710938 2.03125 C 22.148438 1.089844 22.46875 0.734375 22.875 0.351562 L 17.105469 0.351562 C 17.191406 0.734375 17.164062 1.117188 16.753906 2.03125 L 13.839844 8.503906 C 13.433594 9.445312 13.082031 9.800781 12.675781 10.210938 L 18.417969 10.210938 C 18.359375 9.800781 18.359375 9.445312 18.765625 8.503906 L 19.4375 7.03125 L 21.070312 6.03125 L 22.058594 10.210938 L 38.789062 10.210938 L 40.101562 8.300781 C 39.546875 8.417969 38.90625 8.566406 37.769531 8.566406 L 33.457031 8.566406 L 34.652344 5.914062 Z M 38.238281 5.914062 "/>
    </g>
    <g clip-path="url(#clip3)" clip-rule="nonzero">
      <path style=" stroke:none;fill-rule:nonzero;fill:rgb(0%,0%,0%);fill-opacity:1;" d="M 53.042969 7.800781 C 53.042969 7.800781 51.46875 8.179688 49.515625 8.152344 C 49.515625 8.152344 47.589844 8.152344 47.214844 8.152344 C 46.71875 8.152344 46.570312 8.003906 46.746094 7.535156 C 46.921875 7.0625 48.84375 2.914062 48.84375 2.914062 C 48.902344 2.765625 49.164062 2.351562 49.777344 2.351562 L 53.421875 2.351562 C 54.324219 2.351562 55.140625 2.648438 55.140625 2.648438 L 55.722656 0.382812 L 55.695312 0.382812 L 55.722656 0.324219 L 47.941406 0.324219 C 45.8125 0.324219 44.296875 1.089844 43.335938 3.207031 L 41.5 7.269531 C 40.539062 9.386719 41.355469 10.152344 43.480469 10.152344 L 51.46875 10.152344 Z M 53.042969 7.800781 "/>
    </g>
    <g clip-path="url(#clip4)" clip-rule="nonzero">
      <path style=" stroke:none;fill-rule:nonzero;fill:rgb(0%,0%,0%);fill-opacity:1;" d="M 67.148438 8.507812 L 70.09375 2.03125 C 70.5 1.089844 70.851562 0.734375 71.257812 0.351562 L 65.515625 0.351562 C 65.574219 0.734375 65.574219 1.117188 65.167969 2.03125 L 64.148438 4.296875 L 60.445312 4.296875 L 61.464844 2.03125 C 61.902344 1.089844 62.222656 0.734375 62.632812 0.351562 L 56.890625 0.351562 C 56.949219 0.734375 56.949219 1.089844 56.511719 2.03125 L 53.597656 8.507812 C 53.160156 9.449219 52.839844 9.800781 52.402344 10.214844 L 58.144531 10.214844 C 58.085938 9.832031 58.085938 9.449219 58.523438 8.507812 L 59.6875 5.914062 L 63.359375 5.914062 L 62.195312 8.507812 C 61.757812 9.449219 61.4375 9.800781 61.027344 10.214844 L 66.769531 10.214844 C 66.710938 9.800781 66.742188 9.417969 67.148438 8.507812 Z M 67.148438 8.507812 "/>
    </g>
    <g clip-path="url(#clip5)" clip-rule="nonzero">
      <path style=" stroke:none;fill-rule:nonzero;fill:rgb(0%,0%,0%);fill-opacity:1;" d="M 77.527344 8.566406 L 73.242188 8.566406 L 74.4375 5.917969 L 77.964844 5.917969 C 79.101562 5.917969 79.597656 6.0625 80.0625 6.179688 L 81.054688 4.03125 C 80.472656 4.152344 79.828125 4.296875 78.722656 4.296875 L 75.195312 4.296875 L 76.246094 2.003906 L 80.265625 2.003906 C 81.433594 2.003906 81.929688 2.148438 82.394531 2.265625 L 82.832031 0.382812 L 71.609375 0.382812 C 71.667969 0.765625 71.667969 1.148438 71.230469 2.0625 L 68.316406 8.535156 C 67.878906 9.480469 67.558594 9.832031 67.152344 10.242188 L 78.574219 10.242188 L 79.886719 8.332031 C 79.335938 8.417969 78.691406 8.566406 77.527344 8.566406 Z M 77.527344 8.566406 "/>
    </g>
    <g clip-path="url(#clip6)" clip-rule="nonzero">
      <path style=" stroke:none;fill-rule:nonzero;fill:rgb(0%,0%,0%);fill-opacity:1;" d="M 93.5 5.886719 C 94.578125 5.828125 95.539062 5.738281 96.210938 4.296875 L 97.023438 2.472656 C 97.78125 0.824219 96.90625 0.292969 94.664062 0.292969 L 84.023438 0.292969 C 84.230469 0.675781 84.199219 1.058594 83.792969 1.972656 L 80.878906 8.445312 C 80.441406 9.386719 80.121094 9.742188 79.710938 10.15625 L 85.453125 10.15625 C 85.394531 9.773438 85.394531 9.386719 85.804688 8.445312 L 86.96875 5.855469 L 88.484375 5.855469 L 88.894531 10.15625 L 94.429688 10.15625 C 94.167969 9.773438 94.167969 9.269531 94.050781 8.652344 Z M 92.070312 2.5 L 91.546875 3.707031 C 91.339844 4.179688 91.109375 4.269531 90.464844 4.269531 L 87.667969 4.269531 L 88.71875 1.972656 L 91.488281 1.972656 C 92.15625 1.972656 92.304688 2.03125 92.070312 2.5 Z M 92.070312 2.5 "/>
    </g>
    <g clip-path="url(#clip7)" clip-rule="nonzero">
      <path style=" stroke:none;fill-rule:nonzero;fill:rgb(0%,0%,0%);fill-opacity:1;" d="M 102.679688 2.382812 C 102.855469 2.03125 103.058594 1.941406 103.84375 1.941406 L 108.449219 1.941406 C 109.414062 1.941406 109.792969 2.058594 110.316406 2.265625 L 110.957031 0.292969 L 101.601562 0.292969 C 99.851562 0.292969 98.511719 1.089844 97.8125 2.648438 L 96.820312 4.855469 C 96.0625 6.503906 96.617188 6.976562 98.570312 6.976562 L 102.59375 6.976562 C 103.351562 6.976562 103.496094 7.0625 103.320312 7.417969 L 103 8.09375 C 102.855469 8.445312 102.652344 8.535156 101.863281 8.535156 L 97.082031 8.535156 C 96.121094 8.535156 95.714844 8.359375 95.304688 8.152344 L 94.839844 10.15625 L 103.757812 10.15625 C 106.148438 10.15625 107.253906 9.269531 107.957031 7.742188 L 109.035156 5.328125 C 109.675781 3.882812 108.800781 3.324219 106.703125 3.324219 L 103.203125 3.324219 C 102.417969 3.324219 102.273438 3.265625 102.445312 2.882812 Z M 102.679688 2.382812 "/>
    </g>
    <g clip-path="url(#clip8)" clip-rule="nonzero">
      <path style=" stroke:none;fill-rule:nonzero;fill:rgb(0%,0%,0%);fill-opacity:1;" d="M 108.132812 8.710938 C 108.539062 8.710938 108.859375 9.035156 108.859375 9.449219 C 108.859375 9.859375 108.539062 10.183594 108.132812 10.183594 C 107.722656 10.183594 107.402344 9.859375 107.402344 9.449219 C 107.402344 9.035156 107.722656 8.710938 108.132812 8.710938 Z M 108.132812 8.859375 C 107.839844 8.859375 107.578125 9.125 107.578125 9.449219 C 107.578125 9.773438 107.808594 10.035156 108.132812 10.035156 C 108.453125 10.035156 108.683594 9.773438 108.683594 9.449219 C 108.683594 9.125 108.453125 8.859375 108.132812 8.859375 Z M 108.015625 9.890625 L 107.839844 9.890625 L 107.839844 9.066406 C 107.898438 9.066406 107.984375 9.035156 108.101562 9.035156 C 108.246094 9.035156 108.335938 9.066406 108.394531 9.09375 C 108.453125 9.125 108.453125 9.183594 108.453125 9.269531 C 108.453125 9.359375 108.394531 9.449219 108.304688 9.449219 C 108.363281 9.449219 108.421875 9.535156 108.421875 9.652344 C 108.453125 9.773438 108.453125 9.832031 108.480469 9.859375 L 108.304688 9.859375 C 108.277344 9.832031 108.277344 9.773438 108.246094 9.652344 C 108.246094 9.566406 108.1875 9.535156 108.101562 9.535156 L 108.015625 9.535156 Z M 108.015625 9.417969 L 108.101562 9.417969 C 108.1875 9.417969 108.277344 9.386719 108.277344 9.300781 C 108.277344 9.242188 108.21875 9.183594 108.101562 9.183594 C 108.074219 9.183594 108.042969 9.183594 108.015625 9.183594 Z M 108.015625 9.417969 "/>
    </g>
  </g>
</svg>
