<svg width="69" height="90" viewBox="0 0 69 90" fill="none" xmlns="http://www.w3.org/2000/svg">
<path d="M10.3089 87.1241C9.53976 87.1241 8.89466 87.0124 8.37362 86.7891C7.86084 86.5575 7.46799 86.2598 7.19507 85.8959C6.93041 85.5237 6.78981 85.135 6.77327 84.7297C6.77327 84.6553 6.79808 84.5933 6.8477 84.5437C6.89733 84.494 6.95936 84.4692 7.03379 84.4692H8.13791C8.24542 84.4692 8.32399 84.494 8.37362 84.5437C8.43151 84.585 8.48113 84.6388 8.52249 84.7049C8.57211 84.8621 8.66722 85.0192 8.80782 85.1763C8.94842 85.3252 9.13864 85.4493 9.37848 85.5485C9.6266 85.6478 9.93675 85.6974 10.3089 85.6974C10.9044 85.6974 11.3469 85.5981 11.6363 85.3997C11.9341 85.2012 12.0829 84.9324 12.0829 84.5933C12.0829 84.3534 12.0044 84.1632 11.8472 84.0226C11.6901 83.8737 11.4461 83.7414 11.1153 83.6256C10.7927 83.5016 10.3627 83.3734 9.82509 83.241C9.2048 83.0922 8.68376 82.9144 8.26196 82.7076C7.84844 82.4926 7.53416 82.2238 7.31912 81.9012C7.11236 81.5787 7.00898 81.1693 7.00898 80.673C7.00898 80.1934 7.13717 79.7674 7.39356 79.3953C7.65822 79.0231 8.03039 78.7295 8.51008 78.5144C8.99804 78.2994 9.57698 78.1919 10.2469 78.1919C10.7845 78.1919 11.26 78.2663 11.6736 78.4152C12.0871 78.5558 12.4303 78.746 12.7032 78.9859C12.9762 79.2174 13.1829 79.4697 13.3235 79.7426C13.4724 80.0073 13.551 80.2678 13.5592 80.5242C13.5592 80.5903 13.5344 80.6524 13.4848 80.7103C13.4434 80.7599 13.3814 80.7847 13.2987 80.7847H12.145C12.0788 80.7847 12.0126 80.7682 11.9465 80.7351C11.8803 80.702 11.8266 80.64 11.7852 80.549C11.7356 80.2926 11.5743 80.0734 11.3014 79.8915C11.0285 79.7095 10.677 79.6186 10.2469 79.6186C9.80028 79.6186 9.44051 79.7013 9.16759 79.8667C8.89466 80.0321 8.7582 80.2885 8.7582 80.6358C8.7582 80.8674 8.82436 81.0618 8.95669 81.2189C9.09729 81.3678 9.31646 81.5001 9.61419 81.6159C9.9202 81.7317 10.3213 81.8557 10.8176 81.9881C11.5206 82.1452 12.0954 82.3272 12.542 82.5339C12.9886 82.7407 13.3153 83.0053 13.522 83.3279C13.7288 83.6422 13.8322 84.0433 13.8322 84.5312C13.8322 85.0771 13.6833 85.5444 13.3856 85.9331C13.0961 86.3135 12.6867 86.6071 12.1574 86.8139C11.6281 87.0207 11.0119 87.1241 10.3089 87.1241ZM15.4152 87C15.3325 87 15.2622 86.9711 15.2043 86.9132C15.1464 86.8553 15.1174 86.785 15.1174 86.7023V78.4896C15.1174 78.4069 15.1464 78.3366 15.2043 78.2787C15.2622 78.2208 15.3325 78.1919 15.4152 78.1919H16.42C16.511 78.1919 16.5813 78.2208 16.6309 78.2787C16.6888 78.3366 16.7178 78.4069 16.7178 78.4896V82.7324L18.8019 80.7599C18.8846 80.6937 18.9508 80.6441 19.0004 80.611C19.0583 80.5697 19.1452 80.549 19.261 80.549H20.4147C20.4974 80.549 20.5636 80.5738 20.6132 80.6234C20.6628 80.673 20.6876 80.7392 20.6876 80.8219C20.6876 80.855 20.6794 80.8922 20.6628 80.9336C20.6463 80.9749 20.6132 81.0121 20.5636 81.0452L18.008 83.4395L20.8737 86.5162C20.9564 86.5989 20.9978 86.6692 20.9978 86.7271C20.9978 86.8098 20.9688 86.8759 20.9109 86.9256C20.8613 86.9752 20.7993 87 20.7248 87H19.5463C19.4222 87 19.3313 86.9835 19.2734 86.9504C19.2237 86.909 19.1617 86.8553 19.0873 86.7891L16.7178 84.2955V86.7023C16.7178 86.785 16.6888 86.8553 16.6309 86.9132C16.5813 86.9711 16.511 87 16.42 87H15.4152ZM24.4018 87.1241C23.4838 87.1241 22.756 86.8594 22.2184 86.3301C21.6808 85.8008 21.3913 85.0482 21.35 84.0722C21.3417 83.9895 21.3376 83.8861 21.3376 83.7621C21.3376 83.6298 21.3417 83.5264 21.35 83.4519C21.3831 82.8234 21.5237 82.2858 21.7718 81.8392C22.0282 81.3843 22.3797 81.0369 22.8263 80.7971C23.2729 80.549 23.7981 80.4249 24.4018 80.4249C25.0717 80.4249 25.6341 80.5655 26.089 80.8467C26.5439 81.1197 26.8871 81.5042 27.1187 82.0005C27.3502 82.4884 27.466 83.055 27.466 83.7001V83.9606C27.466 84.0433 27.4371 84.1136 27.3792 84.1715C27.3213 84.2294 27.2469 84.2583 27.1559 84.2583H23.0372C23.0372 84.2583 23.0372 84.2707 23.0372 84.2955C23.0372 84.3203 23.0372 84.341 23.0372 84.3576C23.0454 84.647 23.0992 84.9158 23.1984 85.1639C23.306 85.4038 23.459 85.5981 23.6575 85.747C23.8642 85.8959 24.1082 85.9703 24.3894 85.9703C24.621 85.9703 24.8153 85.9372 24.9725 85.8711C25.1296 85.7966 25.2578 85.7139 25.357 85.623C25.4563 85.532 25.5266 85.4575 25.5679 85.3997C25.6424 85.3004 25.7003 85.2425 25.7416 85.226C25.7912 85.2012 25.8615 85.1888 25.9525 85.1888H27.0194C27.1021 85.1888 27.1683 85.2136 27.2179 85.2632C27.2758 85.3128 27.3006 85.3748 27.2923 85.4493C27.2841 85.5816 27.2138 85.7429 27.0815 85.9331C26.9574 86.1233 26.7754 86.3094 26.5356 86.4914C26.2958 86.6733 25.9939 86.8263 25.63 86.9504C25.2743 87.0662 24.8649 87.1241 24.4018 87.1241ZM23.0372 83.2162H25.7788V83.179C25.7788 82.8565 25.7251 82.5753 25.6176 82.3354C25.5101 82.0873 25.3529 81.8971 25.1461 81.7648C24.9394 81.6242 24.6913 81.5539 24.4018 81.5539C24.1123 81.5539 23.8642 81.6242 23.6575 81.7648C23.4507 81.8971 23.2935 82.0873 23.186 82.3354C23.0868 82.5753 23.0372 82.8565 23.0372 83.179V83.2162ZM31.5742 87.1241C30.9787 87.1241 30.4535 87.0124 29.9987 86.7891C29.552 86.5658 29.2005 86.2432 28.9442 85.8214C28.696 85.3914 28.5596 84.8745 28.5348 84.2707C28.5265 84.1467 28.5224 83.9854 28.5224 83.7869C28.5224 83.5801 28.5265 83.4106 28.5348 83.2783C28.5596 82.6745 28.696 82.1617 28.9442 81.7399C29.2005 81.3099 29.552 80.9832 29.9987 80.7599C30.4535 80.5366 30.9787 80.4249 31.5742 80.4249C32.1035 80.4249 32.5542 80.4994 32.9264 80.6482C33.2986 80.7888 33.6046 80.9749 33.8444 81.2065C34.0843 81.4298 34.2621 81.6655 34.3779 81.9136C34.502 82.1535 34.5681 82.3726 34.5764 82.5711C34.5847 82.6621 34.5557 82.7365 34.4895 82.7944C34.4317 82.8441 34.3614 82.8689 34.2787 82.8689H33.1869C33.1042 82.8689 33.0381 82.8482 32.9884 82.8068C32.9471 82.7655 32.9057 82.7035 32.8644 82.6208C32.7403 82.2899 32.5749 82.0584 32.3682 81.926C32.1697 81.7854 31.9133 81.7151 31.599 81.7151C31.1855 81.7151 30.8547 81.8475 30.6065 82.1121C30.3667 82.3685 30.2385 82.7779 30.222 83.3403C30.2054 83.6546 30.2054 83.944 30.222 84.2087C30.2385 84.7794 30.3667 85.1929 30.6065 85.4493C30.8547 85.7057 31.1855 85.8339 31.599 85.8339C31.9216 85.8339 32.1821 85.7677 32.3806 85.6354C32.5791 85.4948 32.7403 85.2591 32.8644 84.9282C32.9057 84.8455 32.9471 84.7835 32.9884 84.7421C33.0381 84.7008 33.1042 84.6801 33.1869 84.6801H34.2787C34.3614 84.6801 34.4317 84.7091 34.4895 84.767C34.5557 84.8166 34.5847 84.8869 34.5764 84.9779C34.5681 85.1267 34.5268 85.2963 34.4523 85.4865C34.3862 85.6684 34.2745 85.8587 34.1174 86.0572C33.9685 86.2474 33.7783 86.4252 33.5467 86.5906C33.3151 86.7477 33.0339 86.8759 32.7031 86.9752C32.3806 87.0744 32.0043 87.1241 31.5742 87.1241ZM36.1803 87C36.0976 87 36.0273 86.9711 35.9694 86.9132C35.9115 86.8553 35.8826 86.785 35.8826 86.7023V78.4896C35.8826 78.4069 35.9115 78.3366 35.9694 78.2787C36.0273 78.2208 36.0976 78.1919 36.1803 78.1919H37.2844C37.3754 78.1919 37.4457 78.2208 37.4953 78.2787C37.5532 78.3366 37.5822 78.4069 37.5822 78.4896V81.3181C37.8055 81.0535 38.0784 80.8385 38.401 80.673C38.7235 80.5076 39.1205 80.4249 39.5919 80.4249C40.0964 80.4249 40.5348 80.5407 40.9069 80.7723C41.2874 80.9956 41.581 81.314 41.7877 81.7275C41.9945 82.1411 42.0979 82.6373 42.0979 83.2162V86.7023C42.0979 86.785 42.0689 86.8553 42.011 86.9132C41.9532 86.9711 41.8829 87 41.8001 87H40.6836C40.6009 87 40.5306 86.9711 40.4727 86.9132C40.4148 86.8553 40.3859 86.785 40.3859 86.7023V83.2907C40.3859 82.811 40.266 82.4347 40.0261 82.1617C39.7945 81.8888 39.4555 81.7524 39.0088 81.7524C38.5788 81.7524 38.2314 81.8888 37.9668 82.1617C37.7104 82.4347 37.5822 82.811 37.5822 83.2907V86.7023C37.5822 86.785 37.5532 86.8553 37.4953 86.9132C37.4457 86.9711 37.3754 87 37.2844 87H36.1803ZM46.4512 87.1241C45.5331 87.1241 44.8053 86.8594 44.2677 86.3301C43.7301 85.8008 43.4407 85.0482 43.3993 84.0722C43.3911 83.9895 43.3869 83.8861 43.3869 83.7621C43.3869 83.6298 43.3911 83.5264 43.3993 83.4519C43.4324 82.8234 43.573 82.2858 43.8211 81.8392C44.0775 81.3843 44.429 81.0369 44.8756 80.7971C45.3222 80.549 45.8474 80.4249 46.4512 80.4249C47.1211 80.4249 47.6835 80.5655 48.1383 80.8467C48.5932 81.1197 48.9364 81.5042 49.168 82.0005C49.3996 82.4884 49.5154 83.055 49.5154 83.7001V83.9606C49.5154 84.0433 49.4864 84.1136 49.4285 84.1715C49.3706 84.2294 49.2962 84.2583 49.2052 84.2583H45.0865C45.0865 84.2583 45.0865 84.2707 45.0865 84.2955C45.0865 84.3203 45.0865 84.341 45.0865 84.3576C45.0948 84.647 45.1485 84.9158 45.2478 85.1639C45.3553 85.4038 45.5083 85.5981 45.7068 85.747C45.9136 85.8959 46.1575 85.9703 46.4387 85.9703C46.6703 85.9703 46.8647 85.9372 47.0218 85.8711C47.179 85.7966 47.3072 85.7139 47.4064 85.623C47.5056 85.532 47.5759 85.4575 47.6173 85.3997C47.6917 85.3004 47.7496 85.2425 47.791 85.226C47.8406 85.2012 47.9109 85.1888 48.0019 85.1888H49.0688C49.1515 85.1888 49.2176 85.2136 49.2673 85.2632C49.3252 85.3128 49.35 85.3748 49.3417 85.4493C49.3334 85.5816 49.2631 85.7429 49.1308 85.9331C49.0067 86.1233 48.8248 86.3094 48.5849 86.4914C48.3451 86.6733 48.0432 86.8263 47.6793 86.9504C47.3237 87.0662 46.9143 87.1241 46.4512 87.1241ZM45.0865 83.2162H47.8282V83.179C47.8282 82.8565 47.7744 82.5753 47.6669 82.3354C47.5594 82.0873 47.4023 81.8971 47.1955 81.7648C46.9887 81.6242 46.7406 81.5539 46.4512 81.5539C46.1617 81.5539 45.9136 81.6242 45.7068 81.7648C45.5 81.8971 45.3429 82.0873 45.2354 82.3354C45.1361 82.5753 45.0865 82.8565 45.0865 83.179V83.2162ZM51.13 87C51.0473 87 50.977 86.9711 50.9191 86.9132C50.8612 86.8553 50.8322 86.785 50.8322 86.7023V80.8591C50.8322 80.7682 50.8612 80.6937 50.9191 80.6358C50.977 80.5779 51.0473 80.549 51.13 80.549H52.1348C52.2176 80.549 52.2879 80.5779 52.3457 80.6358C52.4119 80.6937 52.445 80.7682 52.445 80.8591V81.3678C52.6352 81.1031 52.8792 80.9005 53.1769 80.7599C53.4829 80.6193 53.8344 80.549 54.2314 80.549H54.7401C54.831 80.549 54.9013 80.5779 54.951 80.6358C55.0089 80.6937 55.0378 80.764 55.0378 80.8467V81.7399C55.0378 81.8226 55.0089 81.8929 54.951 81.9508C54.9013 82.0087 54.831 82.0377 54.7401 82.0377H53.7724C53.3754 82.0377 53.0653 82.1493 52.842 82.3726C52.6269 82.5877 52.5194 82.8937 52.5194 83.2907V86.7023C52.5194 86.785 52.4905 86.8553 52.4326 86.9132C52.3747 86.9711 52.3003 87 52.2093 87H51.13ZM58.4493 87.1241C57.9531 87.1241 57.5271 87.0662 57.1715 86.9504C56.8241 86.8346 56.5388 86.6899 56.3155 86.5162C56.0922 86.3425 55.9268 86.1688 55.8193 85.9951C55.7118 85.8214 55.6539 85.6767 55.6456 85.5609C55.6373 85.47 55.6621 85.3997 55.72 85.35C55.7862 85.2921 55.8565 85.2632 55.9309 85.2632H56.911C56.9441 85.2632 56.973 85.2673 56.9978 85.2756C57.0226 85.2839 57.0557 85.3087 57.0971 85.35C57.2046 85.441 57.3162 85.5361 57.432 85.6354C57.5561 85.7346 57.7008 85.8214 57.8662 85.8959C58.0316 85.962 58.2384 85.9951 58.4865 85.9951C58.8091 85.9951 59.0779 85.9331 59.2929 85.809C59.5162 85.6767 59.6278 85.4906 59.6278 85.2508C59.6278 85.0771 59.5782 84.9365 59.479 84.829C59.388 84.7215 59.2143 84.6264 58.9579 84.5437C58.7016 84.4527 58.3376 84.3576 57.8662 84.2583C57.4031 84.1508 57.0185 84.0143 56.7125 83.8489C56.4065 83.6835 56.179 83.4768 56.0302 83.2286C55.8813 82.9805 55.8069 82.6911 55.8069 82.3602C55.8069 82.0377 55.902 81.7317 56.0922 81.4422C56.2907 81.1445 56.5802 80.9005 56.9606 80.7103C57.3493 80.52 57.829 80.4249 58.3997 80.4249C58.8463 80.4249 59.235 80.4828 59.5658 80.5986C59.8966 80.7061 60.1696 80.8426 60.3846 81.008C60.6079 81.1734 60.7775 81.343 60.8932 81.5166C61.009 81.6821 61.0711 81.8268 61.0793 81.9508C61.0876 82.0418 61.0628 82.1163 61.0049 82.1741C60.947 82.2238 60.8808 82.2486 60.8064 82.2486H59.8884C59.847 82.2486 59.8098 82.2403 59.7767 82.2238C59.7436 82.2072 59.7106 82.1866 59.6775 82.1617C59.5865 82.079 59.4873 81.9922 59.3797 81.9012C59.2722 81.802 59.1399 81.7193 58.9827 81.6531C58.8339 81.5869 58.6354 81.5539 58.3873 81.5539C58.073 81.5539 57.8331 81.6242 57.6677 81.7648C57.5023 81.8971 57.4196 82.0666 57.4196 82.2734C57.4196 82.414 57.4568 82.5381 57.5313 82.6456C57.614 82.7448 57.7753 82.8399 58.0151 82.9309C58.2549 83.0219 58.6188 83.117 59.1068 83.2162C59.6609 83.3155 60.0993 83.4643 60.4218 83.6628C60.7526 83.8531 60.9842 84.0764 61.1165 84.3328C61.2571 84.5809 61.3274 84.8579 61.3274 85.1639C61.3274 85.5361 61.2158 85.8711 60.9925 86.1688C60.7775 86.4666 60.4549 86.7023 60.0248 86.8759C59.603 87.0414 59.0779 87.1241 58.4493 87.1241Z" fill="black"/>
<circle cx="34.239" cy="34.6814" r="33.7282" stroke="black" stroke-width="0.775362"/>
<g clip-path="url(#clip0_2226_9948)">
<path d="M11.8456 35.1338C12.2002 34.3423 11.7167 34.0354 10.5564 34.0354H8.6226C8.20361 34.0354 8.10692 34.0031 8.20361 33.7931L8.34864 33.4862C8.42922 33.2924 8.55814 33.2439 8.97713 33.2439H11.5233C12.0551 33.2439 12.2646 33.3085 12.5547 33.4216L12.8125 32.3555H7.75238C6.78548 32.3555 6.02806 32.7916 5.65742 33.6477L5.1095 34.8592C4.69051 35.7638 4.9967 36.0223 6.07641 36.0223H8.3003C8.71929 36.0223 8.79987 36.0707 8.70318 36.2646L8.50979 36.6361C8.42922 36.83 8.31641 36.8784 7.8813 36.8784H5.25454C4.70662 36.8784 4.49713 36.7815 4.27152 36.6684L3.99756 37.783H8.92879C10.2341 37.783 10.8465 37.2984 11.2494 36.4584L11.8456 35.1338Z" fill="black"/>
<path d="M25.0773 35.4236C25.7058 35.4236 25.9798 35.5044 26.2537 35.569L26.8016 34.3898C26.4793 34.4544 26.1248 34.5352 25.4963 34.5352H23.5464L24.1265 33.2752H26.3504C26.995 33.2752 27.269 33.356 27.5268 33.4206L27.7846 32.3868H21.5803C21.6287 32.5968 21.6126 32.8068 21.3869 33.3075L19.7754 36.8613C19.6304 37.1844 19.5015 37.3782 19.3725 37.5397C19.2114 37.249 19.0825 36.9259 19.0019 36.6836L18.1156 33.9537L19.9205 32.8876C20.4361 32.5806 20.7262 32.4837 21.113 32.3545H18.6151C18.599 32.4191 18.5829 32.4837 18.5507 32.5645C18.4701 32.7422 18.3412 32.8714 17.9061 33.146L15.2632 34.7937L15.94 33.2914C16.1818 32.7745 16.359 32.5806 16.5846 32.3706H13.3938C13.4422 32.5806 13.4261 32.7906 13.2005 33.2914L11.5889 36.8451C11.3633 37.362 11.1699 37.5559 10.9443 37.782H14.119C14.0868 37.5559 14.0868 37.362 14.3124 36.8451L14.683 36.0375L15.5855 35.4882L16.1334 37.782H25.3835L26.1087 36.7321C25.8025 36.7967 25.448 36.8774 24.8195 36.8774H22.4344L23.0951 35.4236H25.0773Z" fill="black"/>
<path d="M33.2629 36.4574C33.2629 36.4574 32.3927 36.6674 31.313 36.6513C31.313 36.6513 30.2494 36.6513 30.0399 36.6513C29.7659 36.6513 29.6854 36.5705 29.782 36.3121C29.8787 36.0536 30.9423 33.776 30.9423 33.776C30.9746 33.6952 31.1196 33.4691 31.458 33.4691H33.4724C33.972 33.4691 34.4232 33.6306 34.4232 33.6306L34.7455 32.3868H34.7294L34.7455 32.3545H30.4428C29.2664 32.3545 28.4284 32.7745 27.8966 33.9375L26.8813 36.1667C26.3495 37.3297 26.8007 37.7497 27.9772 37.7497H32.3927L33.2629 36.4574Z" fill="black"/>
<path d="M41.062 36.8456L42.6896 33.2918C42.9152 32.7749 43.1086 32.5811 43.3342 32.3711H40.1595C40.1917 32.5811 40.1918 32.7911 39.9661 33.2918L39.4021 34.5356H37.3555L37.9195 33.2918C38.1612 32.7749 38.3385 32.5811 38.5641 32.3711H35.3894C35.4217 32.5811 35.4217 32.7749 35.1799 33.2918L33.5684 36.8456C33.3267 37.3625 33.1494 37.5563 32.9077 37.7825H36.0824C36.0502 37.5725 36.0502 37.3625 36.2919 36.8456L36.9365 35.4241H38.967L38.3224 36.8456C38.0807 37.3625 37.9034 37.5563 37.6778 37.7825H40.8525C40.8202 37.5563 40.8364 37.3463 41.062 36.8456Z" fill="black"/>
<path d="M46.7995 36.8783H44.4306L45.0913 35.4245H47.0412C47.6697 35.4245 47.9437 35.5053 48.2015 35.5699L48.7494 34.3907C48.4271 34.4553 48.0726 34.5361 47.4602 34.5361H45.5103L46.0904 33.2761H48.3143C48.9589 33.2761 49.2329 33.3569 49.4907 33.4215L49.7324 32.3877H43.5281C43.5603 32.5977 43.5603 32.8077 43.3186 33.3084L41.7071 36.8622C41.4654 37.3791 41.2881 37.5729 41.0625 37.7991H47.3796L48.1048 36.7491C47.7986 36.7976 47.4441 36.8783 46.7995 36.8783Z" fill="black"/>
<path d="M55.6303 35.408C56.2265 35.3757 56.7583 35.3272 57.129 34.5357L57.5802 33.5342C57.9992 32.6296 57.5157 32.3389 56.2749 32.3389H50.3928C50.5057 32.5489 50.4895 32.7589 50.2639 33.2596L48.6524 36.8134C48.4107 37.3303 48.2334 37.5241 48.0078 37.7502H51.1825C51.1503 37.5403 51.1503 37.3303 51.3759 36.8134L52.0205 35.3919H52.8585L53.0841 37.7502H56.1459C56.0009 37.5403 56.0009 37.2656 55.9365 36.9264L55.6303 35.408ZM54.8406 33.5504L54.5506 34.2127C54.4377 34.4711 54.3088 34.5196 53.9543 34.5196H52.4072L52.9874 33.2596H54.5183C54.889 33.2596 54.9695 33.2919 54.8406 33.5504Z" fill="black"/>
<path d="M60.707 33.4858C60.8037 33.2919 60.9165 33.2435 61.3516 33.2435H63.8978C64.4296 33.2435 64.6391 33.3081 64.9292 33.4211L65.2837 32.3389H60.1108C59.1439 32.3389 58.4026 32.775 58.0158 33.6311L57.4679 34.8426C57.0489 35.7472 57.3551 36.0057 58.4348 36.0057H60.6587C61.0777 36.0057 61.1583 36.0541 61.0616 36.248L60.8843 36.6195C60.8037 36.8134 60.6909 36.8618 60.2558 36.8618H57.6129C57.0811 36.8618 56.8555 36.7649 56.6299 36.6518L56.3721 37.7502H61.3033C62.6247 37.7502 63.2371 37.2656 63.6239 36.4257L64.2201 35.1011C64.5747 34.3096 64.0912 34.0027 62.9309 34.0027H60.9971C60.562 34.0027 60.4814 33.9704 60.5781 33.7604L60.707 33.4858Z" fill="black"/>
<path d="M63.7203 36.959C63.9459 36.959 64.1231 37.1367 64.1231 37.3628C64.1231 37.589 63.9459 37.7667 63.7203 37.7667C63.4946 37.7667 63.3174 37.589 63.3174 37.3628C63.3174 37.1367 63.4946 36.959 63.7203 36.959ZM63.7203 37.0398C63.5591 37.0398 63.4141 37.1851 63.4141 37.3628C63.4141 37.5405 63.543 37.6859 63.7203 37.6859C63.8975 37.6859 64.0264 37.5405 64.0264 37.3628C64.0264 37.1851 63.8975 37.0398 63.7203 37.0398ZM63.6558 37.6051H63.5591V37.1528C63.5913 37.1528 63.6397 37.1367 63.7041 37.1367C63.7847 37.1367 63.8331 37.1528 63.8653 37.169C63.8975 37.1851 63.8975 37.2174 63.8975 37.2659C63.8975 37.3144 63.8653 37.3628 63.817 37.3628C63.8492 37.3628 63.8814 37.4113 63.8814 37.4759C63.8975 37.5405 63.8975 37.5728 63.9136 37.589H63.817C63.8008 37.5728 63.8008 37.5405 63.7847 37.4759C63.7847 37.4274 63.7525 37.4113 63.7041 37.4113H63.6558V37.6051ZM63.6558 37.3467H63.7041C63.7525 37.3467 63.8008 37.3305 63.8008 37.2821C63.8008 37.2497 63.7686 37.2174 63.7041 37.2174C63.688 37.2174 63.6719 37.2174 63.6558 37.2174V37.3467Z" fill="black"/>
</g>
<defs>
<clipPath id="clip0_2226_9948">
<rect width="61.2536" height="5.42753" fill="white" transform="translate(4 32.3555)"/>
</clipPath>
</defs>
</svg>
