<svg width="640" height="566" viewBox="0 0 640 566" fill="none" xmlns="http://www.w3.org/2000/svg">
<path d="M617.66 17.9597L636.266 0.75L665.607 17.9597H617.66Z" fill="#054F9D"/>
<path d="M556.832 51.6629L575.438 34.4531L604.779 51.6629H556.832Z" fill="#054F9D"/>
<path d="M496.003 92.534L514.61 75.3242L543.95 92.534H496.003Z" fill="#054F9D"/>
<path d="M617.66 92.534L636.266 75.3242L665.607 92.534H617.66Z" fill="#054F9D"/>
<path d="M435.175 126.237L453.782 109.027L483.122 126.237H435.175Z" fill="#054F9D"/>
<path d="M556.832 126.237L575.438 109.027L604.779 126.237H556.832Z" fill="#054F9D"/>
<path d="M374.347 167.112L392.953 149.902L422.294 167.112H374.347Z" fill="#054F9D"/>
<path d="M496.003 167.112L514.61 149.902L543.95 167.112H496.003Z" fill="#054F9D"/>
<path d="M617.66 167.112L636.266 149.902L665.607 167.112H617.66Z" fill="#054F9D"/>
<path d="M313.519 200.813L332.125 183.604L361.466 200.813H313.519Z" fill="#054F9D"/>
<path d="M435.175 200.813L453.782 183.604L483.122 200.813H435.175Z" fill="#054F9D"/>
<path d="M556.832 200.813L575.438 183.604L604.779 200.813H556.832Z" fill="#054F9D"/>
<path d="M252.691 240.969L270.582 224.477L300.638 240.969H252.691Z" fill="#054F9D"/>
<path d="M374.347 240.969L392.953 224.477L422.294 240.969H374.347Z" fill="#054F9D"/>
<path d="M496.003 240.969L514.61 224.477L543.95 240.969H496.003Z" fill="#054F9D"/>
<path d="M617.66 240.969L636.266 224.477L665.607 240.969H617.66Z" fill="#054F9D"/>
<path d="M191.863 275.387L209.753 258.178L239.809 275.387H191.863Z" fill="#054F9D"/>
<path d="M313.519 275.387L332.125 258.178L361.466 275.387H313.519Z" fill="#054F9D"/>
<path d="M435.175 275.387L453.782 258.178L483.122 275.387H435.175Z" fill="#054F9D"/>
<path d="M556.832 275.387L575.438 258.178L604.779 275.387H556.832Z" fill="#054F9D"/>
<path d="M131.034 315.543L148.925 299.051L178.981 315.543H131.034Z" fill="#054F9D"/>
<path d="M252.691 315.543L270.582 299.051L300.638 315.543H252.691Z" fill="#054F9D"/>
<path d="M374.347 315.543L392.953 299.051L422.294 315.543H374.347Z" fill="#054F9D"/>
<path d="M496.003 315.543L514.61 299.051L543.95 315.543H496.003Z" fill="#054F9D"/>
<path d="M617.66 315.543L636.266 299.051L665.607 315.543H617.66Z" fill="#054F9D"/>
<path d="M70.2061 349.964L88.0967 332.754L118.153 349.964H70.2061Z" fill="#054F9D"/>
<path d="M191.863 349.964L209.753 332.754L239.809 349.964H191.863Z" fill="#054F9D"/>
<path d="M313.519 349.964L332.125 332.754L361.466 349.964H313.519Z" fill="#054F9D"/>
<path d="M435.175 349.964L453.782 332.754L483.122 349.964H435.175Z" fill="#054F9D"/>
<path d="M556.832 349.964L575.438 332.754L604.779 349.964H556.832Z" fill="#054F9D"/>
<path d="M9.37793 390.12L27.2686 373.627L57.3249 390.12H9.37793Z" fill="#054F9D"/>
<path d="M131.034 390.12L148.925 373.627L178.981 390.12H131.034Z" fill="#054F9D"/>
<path d="M252.691 390.12L270.582 373.627L300.638 390.12H252.691Z" fill="#054F9D"/>
<path d="M374.347 390.12L392.953 373.627L422.294 390.12H374.347Z" fill="#054F9D"/>
<path d="M496.003 390.12L514.61 373.627L543.95 390.12H496.003Z" fill="#054F9D"/>
<path d="M617.66 390.12L636.266 373.627L665.607 390.12H617.66Z" fill="#054F9D"/>
<path d="M70.2061 424.54L88.0967 407.33L118.153 424.54H70.2061Z" fill="#054F9D"/>
<path d="M191.863 424.54L209.753 407.33L239.809 424.54H191.863Z" fill="#054F9D"/>
<path d="M313.519 424.54L332.125 407.33L361.466 424.54H313.519Z" fill="#054F9D"/>
<path d="M435.175 424.54L453.782 407.33L483.122 424.54H435.175Z" fill="#054F9D"/>
<path d="M556.832 424.54L575.438 407.33L604.779 424.54H556.832Z" fill="#054F9D"/>
<path d="M9.37793 464.694L27.2686 447.484L57.3249 464.694H9.37793Z" fill="#054F9D"/>
<path d="M131.034 464.694L148.925 447.484L178.981 464.694H131.034Z" fill="#054F9D"/>
<path d="M252.691 464.694L270.582 447.484L300.638 464.694H252.691Z" fill="#054F9D"/>
<path d="M374.347 464.694L392.953 447.484L422.294 464.694H374.347Z" fill="#054F9D"/>
<path d="M496.003 464.694L514.61 447.484L543.95 464.694H496.003Z" fill="#054F9D"/>
<path d="M617.66 464.694L636.266 447.484L665.607 464.694H617.66Z" fill="#054F9D"/>
<path d="M70.2061 498.399L88.0967 481.906L118.153 498.399H70.2061Z" fill="#054F9D"/>
<path d="M191.863 498.399L209.753 481.906L239.809 498.399H191.863Z" fill="#054F9D"/>
<path d="M313.519 498.399L332.125 481.906L361.466 498.399H313.519Z" fill="#054F9D"/>
<path d="M435.175 498.399L453.782 481.906L483.122 498.399H435.175Z" fill="#054F9D"/>
<path d="M556.832 498.399L575.438 481.906L604.779 498.399H556.832Z" fill="#054F9D"/>
<path d="M9.37793 539.272L27.2686 522.062L57.3249 539.272H9.37793Z" fill="#054F9D"/>
<path d="M131.034 539.272L148.925 522.062L178.981 539.272H131.034Z" fill="#054F9D"/>
<path d="M252.691 539.272L270.582 522.062L300.638 539.272H252.691Z" fill="#054F9D"/>
<path d="M374.347 539.272L392.953 522.062L422.294 539.272H374.347Z" fill="#054F9D"/>
<path d="M496.003 539.272L514.61 522.062L543.95 539.272H496.003Z" fill="#054F9D"/>
<path d="M617.66 539.272L636.266 522.062L665.607 539.272H617.66Z" fill="#054F9D"/>
<path d="M70.2061 572.975L88.0967 556.482L118.153 572.975H70.2061Z" fill="#054F9D"/>
<path d="M191.863 572.975L209.753 556.482L239.809 572.975H191.863Z" fill="#054F9D"/>
<path d="M313.519 572.975L332.125 556.482L361.466 572.975H313.519Z" fill="#054F9D"/>
<path d="M435.175 572.975L453.782 556.482L483.122 572.975H435.175Z" fill="#054F9D"/>
<path d="M556.832 572.975L575.438 556.482L604.779 572.975H556.832Z" fill="#054F9D"/>
</svg>
