<svg width="24" height="24" viewBox="0 0 24 24" fill="none" xmlns="http://www.w3.org/2000/svg">
<path fill-rule="evenodd" clip-rule="evenodd" d="M11.9938 0C8.73702 0 8.32755 0.0142839 7.04675 0.0714197C5.77072 0.128555 4.8994 0.333292 4.13759 0.628493C3.34721 0.933218 2.68062 1.34745 2.01404 2.01404C1.34745 2.68062 0.93798 3.35197 0.628494 4.13758C0.333292 4.89939 0.128556 5.77071 0.0714198 7.05151C0.014284 8.32754 0 8.73701 0 11.9938C0 15.2505 0.014284 15.66 0.0714198 16.9408C0.128556 18.2168 0.333292 19.0881 0.628494 19.8547C0.933218 20.6451 1.34745 21.3116 2.01404 21.9782C2.68062 22.6448 3.35197 23.0543 4.13759 23.3638C4.8994 23.659 5.77072 23.8637 7.05151 23.9208C8.33231 23.978 8.73702 23.9923 11.9985 23.9923C15.26 23.9923 15.6647 23.978 16.9455 23.9208C18.2216 23.8637 19.0929 23.659 19.8595 23.3638C20.6498 23.059 21.3164 22.6448 21.983 21.9782C22.6496 21.3116 23.0591 20.6403 23.3685 19.8547C23.6638 19.0929 23.8685 18.2215 23.9256 16.9408C23.9828 15.66 23.997 15.2553 23.997 11.9938C23.997 8.73225 23.9828 8.32754 23.9256 7.04675C23.8685 5.77071 23.6638 4.89939 23.3685 4.13282C23.0638 3.34244 22.6496 2.67586 21.983 2.00927C21.3164 1.34269 20.6451 0.933218 19.8595 0.623732C19.0976 0.328531 18.2263 0.123794 16.9455 0.0666584C15.66 0.0142839 15.2505 0 11.9938 0ZM11.9941 5.83728C8.59457 5.83728 5.83301 8.59408 5.83301 11.9984C5.83301 15.4028 8.58981 18.1596 11.9941 18.1596C15.3985 18.1596 18.1553 15.4028 18.1553 11.9984C18.1553 8.59408 15.3985 5.83728 11.9941 5.83728ZM11.9941 15.9932C9.7849 15.9932 7.99464 14.2029 7.99464 11.9937C7.99464 9.78441 9.7849 7.99415 11.9941 7.99415C14.2034 7.99415 15.9937 9.78441 15.9937 11.9937C15.9937 14.2029 14.2034 15.9932 11.9941 15.9932ZM19.8356 5.58976C19.8356 6.3839 19.1919 7.02768 18.3977 7.02768C17.6036 7.02768 16.9598 6.3839 16.9598 5.58976C16.9598 4.79562 17.6036 4.15184 18.3977 4.15184C19.1919 4.15184 19.8356 4.79562 19.8356 5.58976Z" fill="white"/>
</svg>
