<svg width="21" height="21" viewBox="0 0 21 21" fill="none" xmlns="http://www.w3.org/2000/svg">
<path d="M0 21L1.48424 15.6103C0.566618 14.0283 0.0852435 12.2367 0.0902578 10.4052C0.0902578 4.66611 4.78366 0 10.5451 0C13.3431 0 15.9706 1.08294 17.9412 3.04919C19.9169 5.01545 21.005 7.63047 21 10.4102C21 16.1492 16.3066 20.8154 10.5401 20.8154H10.5351C8.78509 20.8154 7.06518 20.3762 5.53581 19.5478L0 21ZM5.80157 17.6664L6.11747 17.856C7.45128 18.6445 8.98065 19.0587 10.5401 19.0637H10.5451C15.3338 19.0637 19.2349 15.1861 19.2349 10.4152C19.2349 8.10456 18.3324 5.9337 16.6927 4.29682C15.053 2.65993 12.8668 1.76164 10.5451 1.76164C5.75644 1.75665 1.8553 5.63427 1.8553 10.4052C1.8553 12.0371 2.3116 13.629 3.18409 15.0064L3.38968 15.3358L2.51218 18.5247L5.80157 17.6664Z" fill="white"/>
<path fill-rule="evenodd" clip-rule="evenodd" d="M7.93306 6.05374C7.7375 5.61957 7.53191 5.60959 7.34638 5.6046C7.19595 5.59961 7.02045 5.59961 6.84495 5.59961C6.66945 5.59961 6.38865 5.66449 6.14796 5.92399C5.90727 6.1835 5.23535 6.8123 5.23535 8.09486C5.23535 9.37242 6.17303 10.6101 6.3034 10.7847C6.43377 10.9594 8.11357 13.6692 10.7661 14.7123C12.9724 15.5806 13.4237 15.4059 13.9001 15.361C14.3765 15.3161 15.4445 14.7322 15.6651 14.1234C15.8808 13.5145 15.8808 12.9955 15.8156 12.8857C15.7504 12.7759 15.5749 12.7111 15.3141 12.5813C15.0534 12.4516 13.7697 11.8228 13.529 11.7329C13.2884 11.6481 13.1129 11.6032 12.9424 11.8627C12.7669 12.1222 12.2654 12.7061 12.115 12.8807C11.9646 13.0554 11.8091 13.0754 11.5484 12.9456C11.2876 12.8159 10.4452 12.5414 9.44738 11.6531C8.67016 10.9644 8.14366 10.111 7.99323 9.85151C7.8428 9.59201 7.97819 9.45227 8.10856 9.32252C8.22389 9.20774 8.3693 9.0181 8.49967 8.86838C8.63005 8.71867 8.67518 8.60888 8.76042 8.43421C8.84566 8.25954 8.80555 8.10983 8.74036 7.98008C8.67518 7.85531 8.16372 6.56777 7.93306 6.05374Z" fill="white"/>
</svg>
